ScienceGothic-BlkCndCtrS.ufo
<glyph name="exclam" format="2">
  <advance width="728"/>
  <unicode hex="0021"/>
  <outline>
    <contour>
      <point x="-17.5142" y="135" type="line"/>
      <point x="-1.51422" y="226" type="line" smooth="yes"/>
      <point x="6.48578" y="270"/>
      <point x="25.4858" y="324"/>
      <point x="61.4858" y="354"/>
      <point x="118.486" y="364"/>
      <point x="163.486" y="364" type="qcurve" smooth="yes"/>
      <point x="450.486" y="364" type="line" smooth="yes"/>
      <point x="495.486" y="364"/>
      <point x="549.486" y="354"/>
      <point x="574.486" y="324"/>
      <point x="575.486" y="269"/>
      <point x="567.486" y="224" type="qcurve" smooth="yes"/>
      <point x="552.486" y="135" type="line" smooth="yes"/>
      <point x="544.486" y="90"/>
      <point x="524.486" y="35"/>
      <point x="488.486" y="4"/>
      <point x="431.486" y="-6"/>
      <point x="386.486" y="-6" type="qcurve" smooth="yes"/>
      <point x="98.4858" y="-6" type="line" smooth="yes"/>
      <point x="53.4858" y="-6"/>
      <point x="0.485777" y="4"/>
      <point x="-24.5142" y="35"/>
      <point x="-25.5142" y="90"/>
      <point x="-17.5142" y="135" type="qcurve"/>
    </contour>
    <contour>
      <point x="306.486" y="462" type="line"/>
      <point x="203.486" y="1400" type="line"/>
      <point x="773.486" y="1400" type="line"/>
      <point x="342.486" y="462" type="line"/>
    </contour>
  </outline>
</glyph>
<glyph name="numbersign" format="2">
  <advance width="871.96"/>
  <unicode hex="0023"/>
  <outline>
    <contour>
      <point x="-31" y="224" type="line"/>
      <point x="72" y="636" type="line"/>
      <point x="777" y="636" type="line"/>
      <point x="674" y="224" type="line"/>
    </contour>
    <contour>
      <point x="102" y="765" type="line"/>
      <point x="204" y="1177" type="line"/>
      <point x="909" y="1177" type="line"/>
      <point x="807" y="765" type="line"/>
    </contour>
    <contour>
      <point x="99" y="0" type="line"/>
      <point x="443" y="1400" type="line"/>
      <point x="476" y="1400" type="line"/>
      <point x="132" y="0" type="line"/>
    </contour>
    <contour>
      <point x="402" y="0" type="line"/>
      <point x="746" y="1400" type="line"/>
      <point x="779" y="1400" type="line"/>
      <point x="435" y="0" type="line"/>
    </contour>
  </outline>
  <guideline angle="0" x="0" y="334"/>
  <guideline angle="0" x="0" y="875"/>
</glyph>
<glyph name="dollar" format="2">
  <advance width="1285.79"/>
  <unicode hex="0024"/>
  <outline>
    <contour>
      <point x="461" y="-160" type="line"/>
      <point x="491" y="10" type="line"/>
      <point x="332" y="10" type="line" smooth="yes"/>
      <point x="237" y="10"/>
      <point x="90" y="38"/>
      <point x="-4" y="113"/>
      <point x="-37" y="246"/>
      <point x="-19" y="352" type="qcurve"/>
      <point x="-8" y="410" type="line"/>
      <point x="547" y="462" type="line"/>
      <point x="474" y="46" type="line"/>
      <point x="474" y="46"/>
      <point x="474" y="46"/>
      <point x="474" y="46"/>
      <point x="474" y="46"/>
      <point x="474" y="46" type="qcurve"/>
      <point x="497" y="46" type="line"/>
      <point x="609" y="690" type="line"/>
      <point x="468" y="690" type="line" smooth="yes"/>
      <point x="373" y="690"/>
      <point x="227" y="718"/>
      <point x="135" y="794"/>
      <point x="102" y="928"/>
      <point x="120" y="1034" type="qcurve"/>
      <point x="125" y="1058" type="line"/>
      <point x="143" y="1162"/>
      <point x="227" y="1291"/>
      <point x="350" y="1364"/>
      <point x="508" y="1390"/>
      <point x="599" y="1390" type="qcurve" smooth="yes"/>
      <point x="732" y="1390" type="line"/>
      <point x="761" y="1560" type="line"/>
      <point x="823" y="1560" type="line"/>
      <point x="794" y="1390" type="line"/>
      <point x="931" y="1390" type="line" smooth="yes"/>
      <point x="1023" y="1390"/>
      <point x="1169" y="1365"/>
      <point x="1264" y="1293"/>
      <point x="1301" y="1165"/>
      <point x="1283" y="1062" type="qcurve" smooth="yes"/>
      <point x="1274" y="1006" type="line"/>
      <point x="739" y="958" type="line"/>
      <point x="808" y="1354" type="line"/>
      <point x="808" y="1354"/>
      <point x="808" y="1354"/>
      <point x="808" y="1354"/>
      <point x="808" y="1354"/>
      <point x="808" y="1354" type="qcurve"/>
      <point x="787" y="1354" type="line"/>
      <point x="678" y="726" type="line"/>
      <point x="833" y="726" type="line" smooth="yes"/>
      <point x="925" y="726"/>
      <point x="1072" y="701"/>
      <point x="1168" y="630"/>
      <point x="1206" y="502"/>
      <point x="1187" y="398" type="qcurve"/>
      <point x="1180" y="354" type="line" smooth="yes"/>
      <point x="1161" y="248"/>
      <point x="1081" y="113"/>
      <point x="962" y="38"/>
      <point x="804" y="10"/>
      <point x="708" y="10" type="qcurve" smooth="yes"/>
      <point x="553" y="10" type="line"/>
      <point x="523" y="-160" type="line"/>
    </contour>
    <contour>
      <point x="616" y="726" type="line"/>
      <point x="725" y="1354" type="line"/>
      <point x="702" y="1354" type="line"/>
      <point x="702" y="1354"/>
      <point x="702" y="1354"/>
      <point x="702" y="1354"/>
      <point x="702" y="1354"/>
      <point x="702" y="1354" type="qcurve"/>
      <point x="593" y="726" type="line"/>
      <point x="593" y="726"/>
      <point x="593" y="726"/>
      <point x="593" y="726"/>
      <point x="593" y="726"/>
      <point x="593" y="726" type="qcurve"/>
    </contour>
    <contour>
      <point x="559" y="46" type="line"/>
      <point x="580" y="46" type="line"/>
      <point x="580" y="46"/>
      <point x="580" y="46"/>
      <point x="580" y="46"/>
      <point x="580" y="46"/>
      <point x="580" y="46" type="qcurve"/>
      <point x="692" y="690" type="line"/>
      <point x="692" y="690"/>
      <point x="692" y="690"/>
      <point x="692" y="690"/>
      <point x="692" y="690"/>
      <point x="692" y="690" type="qcurve"/>
      <point x="671" y="690" type="line"/>
    </contour>
  </outline>
</glyph>
<glyph name="ampersand" format="2">
  <advance width="1594"/>
  <unicode hex="0026"/>
  <outline>
    <contour>
      <point x="121" y="-10" type="line"/>
      <point x="400" y="-10" type="line" smooth="yes"/>
      <point x="444" y="-10"/>
      <point x="529" y="5"/>
      <point x="617" y="41"/>
      <point x="713" y="100"/>
      <point x="768" y="144" type="qcurve" smooth="yes"/>
      <point x="798" y="168" type="line"/>
      <point x="900" y="0" type="line"/>
      <point x="1474" y="0" type="line"/>
      <point x="1177" y="477" type="line"/>
      <point x="1502" y="733" type="line"/>
      <point x="1481" y="759" type="line"/>
      <point x="1159" y="504" type="line"/>
      <point x="838" y="1022" type="line"/>
      <point x="838" y="1022"/>
      <point x="838" y="1022"/>
      <point x="838" y="1022"/>
      <point x="838" y="1022"/>
      <point x="838" y="1022" type="qcurve"/>
      <point x="901" y="1378" type="line"/>
      <point x="901" y="1378"/>
      <point x="901" y="1378"/>
      <point x="901" y="1378"/>
      <point x="901" y="1378"/>
      <point x="901" y="1378" type="qcurve"/>
      <point x="1010" y="1378" type="line"/>
      <point x="1010" y="1378"/>
      <point x="1010" y="1378"/>
      <point x="1010" y="1378"/>
      <point x="1010" y="1378"/>
      <point x="1010" y="1378" type="qcurve"/>
      <point x="947" y="1022" type="line"/>
      <point x="1392" y="1076" type="line"/>
      <point x="1403" y="1139" type="line" smooth="yes"/>
      <point x="1415" y="1205"/>
      <point x="1388" y="1307"/>
      <point x="1313" y="1378"/>
      <point x="1192" y="1414"/>
      <point x="1110" y="1414" type="qcurve" smooth="yes"/>
      <point x="752" y="1414" type="line" smooth="yes"/>
      <point x="676" y="1414"/>
      <point x="551" y="1374"/>
      <point x="458" y="1297"/>
      <point x="398" y="1183"/>
      <point x="385" y="1109" type="qcurve" smooth="yes"/>
      <point x="378" y="1071" type="line" smooth="yes"/>
      <point x="369" y="1019"/>
      <point x="368" y="935"/>
      <point x="387" y="857"/>
      <point x="426" y="776"/>
      <point x="456" y="727" type="qcurve"/>
      <point x="91" y="475" type="line" smooth="yes"/>
      <point x="58" y="452"/>
      <point x="9" y="405"/>
      <point x="-25" y="352"/>
      <point x="-47" y="290"/>
      <point x="-54" y="251" type="qcurve" smooth="yes"/>
      <point x="-61" y="213" type="line" smooth="yes"/>
      <point x="-70" y="159"/>
      <point x="-56" y="75"/>
      <point x="-10" y="19"/>
      <point x="67" y="-10"/>
      <point x="121" y="-10" type="qcurve"/>
    </contour>
    <contour>
      <point x="353" y="26" type="line"/>
      <point x="353" y="26"/>
      <point x="353" y="26"/>
      <point x="353" y="26"/>
      <point x="353" y="26"/>
      <point x="353" y="26" type="qcurve"/>
      <point x="470" y="698" type="line"/>
      <point x="470" y="698"/>
      <point x="470" y="698"/>
      <point x="470" y="698"/>
      <point x="470" y="698"/>
      <point x="470" y="698" type="qcurve"/>
      <point x="470" y="698" type="line"/>
      <point x="780" y="195" type="line"/>
      <point x="745" y="168" type="line" smooth="yes"/>
      <point x="687" y="123"/>
      <point x="594" y="67"/>
      <point x="514" y="36"/>
      <point x="443" y="26"/>
      <point x="407" y="26" type="qcurve" smooth="yes"/>
    </contour>
  </outline>
</glyph>
<glyph name="quotesingle" format="2">
  <advance width="728.691"/>
  <unicode hex="0027"/>
  <outline>
    <contour>
      <point x="168.262" y="1184" type="line"/>
      <point x="194.262" y="1333" type="line" smooth="yes"/>
      <point x="202.262" y="1376"/>
      <point x="213.262" y="1423"/>
      <point x="236.262" y="1446"/>
      <point x="277.262" y="1450"/>
      <point x="313.262" y="1450" type="qcurve" smooth="yes"/>
      <point x="685.262" y="1450" type="line" smooth="yes"/>
      <point x="721.262" y="1450"/>
      <point x="761.262" y="1446"/>
      <point x="776.262" y="1423"/>
      <point x="772.262" y="1376"/>
      <point x="764.262" y="1333" type="qcurve" smooth="yes"/>
      <point x="738.262" y="1184" type="line"/>
      <point x="528.262" y="785" type="line"/>
      <point x="238.262" y="785" type="line"/>
    </contour>
  </outline>
</glyph>
<glyph name="parenleft" format="2">
  <advance width="661"/>
  <unicode hex="0028"/>
  <outline>
    <contour>
      <point x="491.532" y="-256" type="line"/>
      <point x="443.532" y="-256" type="line"/>
      <point x="331.532" y="-182"/>
      <point x="158.532" y="3"/>
      <point x="51.5321" y="223"/>
      <point x="16.5321" y="478"/>
      <point x="41.5321" y="622" type="qcurve" smooth="yes"/>
      <point x="66.5321" y="766"/>
      <point x="190.532" y="1021"/>
      <point x="375.532" y="1242"/>
      <point x="611.532" y="1426"/>
      <point x="749.532" y="1500" type="qcurve"/>
      <point x="797.532" y="1500" type="line"/>
      <point x="746.532" y="1467"/>
      <point x="675.532" y="1412"/>
      <point x="622.532" y="1340"/>
      <point x="581.532" y="1232"/>
      <point x="541.532" y="1060"/>
      <point x="495.532" y="806"/>
      <point x="463.532" y="622" type="qcurve" smooth="yes"/>
      <point x="431.532" y="439"/>
      <point x="388.532" y="184"/>
      <point x="368.532" y="12"/>
      <point x="371.532" y="-96"/>
      <point x="399.532" y="-168"/>
      <point x="452.532" y="-222"/>
      <point x="491.532" y="-256" type="qcurve"/>
    </contour>
  </outline>
</glyph>
<glyph name="asterisk" format="2">
  <advance width="646"/>
  <unicode hex="002A"/>
  <outline>
    <contour>
      <point x="272" y="903" type="line"/>
      <point x="387" y="1159" type="line"/>
      <point x="160" y="962" type="line"/>
      <point x="90" y="1098" type="line"/>
      <point x="380" y="1188" type="line"/>
      <point x="131" y="1279" type="line"/>
      <point x="240" y="1411" type="line"/>
      <point x="397" y="1217" type="line"/>
      <point x="371" y="1472" type="line"/>
      <point x="547" y="1472" type="line"/>
      <point x="431" y="1217" type="line"/>
      <point x="663" y="1411" type="line"/>
      <point x="733" y="1274" type="line"/>
      <point x="438" y="1188" type="line"/>
      <point x="687" y="1096" type="line"/>
      <point x="578" y="964" type="line"/>
      <point x="421" y="1159" type="line"/>
      <point x="448" y="903" type="line"/>
    </contour>
  </outline>
</glyph>
<glyph name="plus" format="2">
  <advance width="599"/>
  <unicode hex="002B"/>
  <outline>
    <contour>
      <point x="529" y="605" type="line"/>
      <point x="522" y="569" type="line"/>
      <point x="299" y="569" type="line"/>
      <point x="242" y="241" type="line"/>
      <point x="202" y="241" type="line"/>
      <point x="259" y="569" type="line"/>
      <point x="36" y="569" type="line"/>
      <point x="43" y="605" type="line"/>
      <point x="266" y="605" type="line"/>
      <point x="322" y="927" type="line"/>
      <point x="362" y="927" type="line"/>
      <point x="306" y="605" type="line"/>
    </contour>
  </outline>
</glyph>
<glyph name="comma" format="2">
  <advance width="685"/>
  <unicode hex="002C"/>
  <outline>
    <contour>
      <point x="-16.4861" y="145" type="line"/>
      <point x="24.5139" y="385" type="line" smooth="yes"/>
      <point x="32.5139" y="429"/>
      <point x="52.5139" y="484"/>
      <point x="88.5139" y="514"/>
      <point x="145.514" y="524"/>
      <point x="190.514" y="524" type="qcurve" smooth="yes"/>
      <point x="438.514" y="524" type="line" smooth="yes"/>
      <point x="483.514" y="524"/>
      <point x="536.514" y="514"/>
      <point x="561.514" y="484"/>
      <point x="562.514" y="429"/>
      <point x="554.514" y="385" type="qcurve" smooth="yes"/>
      <point x="513.514" y="145" type="line" smooth="yes"/>
      <point x="505.514" y="100"/>
      <point x="485.514" y="45"/>
      <point x="449.514" y="14"/>
      <point x="392.514" y="4"/>
      <point x="347.514" y="4" type="qcurve" smooth="yes"/>
      <point x="99.5139" y="4" type="line" smooth="yes"/>
      <point x="54.5139" y="4"/>
      <point x="1.51389" y="14"/>
      <point x="-23.4861" y="45"/>
      <point x="-24.4861" y="100"/>
      <point x="-16.4861" y="145" type="qcurve"/>
    </contour>
    <contour>
      <point x="96.5139" y="-336" type="line"/>
      <point x="351.514" y="25" type="line"/>
      <point x="473.514" y="36" type="line"/>
      <point x="122.514" y="-342" type="line"/>
      <point x="96.5139" y="-336" type="line"/>
    </contour>
  </outline>
</glyph>
<glyph name="hyphen" format="2">
  <advance width="700"/>
  <unicode hex="002D"/>
  <outline>
    <contour>
      <point x="50.3329" y="628" type="line"/>
      <point x="630.333" y="628" type="line"/>
      <point x="625.333" y="596" type="line"/>
      <point x="45.3329" y="596" type="line"/>
    </contour>
  </outline>
  <guideline y="612"/>
</glyph>
<glyph name="period" format="2">
  <advance width="686.1"/>
  <unicode hex="002E"/>
  <outline>
    <contour>
      <point x="-19.2964" y="135" type="line"/>
      <point x="24.7036" y="386" type="line" smooth="yes"/>
      <point x="32.7036" y="430"/>
      <point x="51.7036" y="484"/>
      <point x="87.7036" y="514"/>
      <point x="144.704" y="524"/>
      <point x="189.704" y="524" type="qcurve" smooth="yes"/>
      <point x="436.704" y="524" type="line" smooth="yes"/>
      <point x="481.704" y="524"/>
      <point x="535.704" y="514"/>
      <point x="560.704" y="484"/>
      <point x="561.704" y="429"/>
      <point x="553.704" y="384" type="qcurve" smooth="yes"/>
      <point x="510.704" y="135" type="line" smooth="yes"/>
      <point x="502.704" y="90"/>
      <point x="482.704" y="35"/>
      <point x="446.704" y="4"/>
      <point x="389.704" y="-6"/>
      <point x="344.704" y="-6" type="qcurve" smooth="yes"/>
      <point x="96.7036" y="-6" type="line" smooth="yes"/>
      <point x="51.7036" y="-6"/>
      <point x="-1.2964" y="4"/>
      <point x="-26.2964" y="35"/>
      <point x="-27.2964" y="90"/>
      <point x="-19.2964" y="135" type="qcurve"/>
    </contour>
  </outline>
</glyph>
<glyph name="slash" format="2">
  <advance width="753"/>
  <unicode hex="002F"/>
  <outline>
    <contour>
      <point x="443.681" y="1430" type="line"/>
      <point x="845.681" y="1430" type="line"/>
      <point x="302.681" y="-100" type="line"/>
      <point x="-99.3187" y="-100" type="line"/>
    </contour>
  </outline>
</glyph>
<glyph name="two" format="2">
  <advance width="1361"/>
  <unicode hex="0032"/>
  <outline>
    <contour>
      <point x="-52" y="0" type="line"/>
      <point x="-16" y="205" type="line" smooth="yes"/>
      <point x="-1" y="290"/>
      <point x="62" y="425"/>
      <point x="153" y="527"/>
      <point x="270" y="594"/>
      <point x="339" y="611" type="qcurve" smooth="yes"/>
      <point x="745" y="711" type="line"/>
      <point x="745" y="711"/>
      <point x="745" y="711"/>
      <point x="745" y="711"/>
      <point x="745" y="711"/>
      <point x="745" y="711" type="qcurve"/>
      <point x="862" y="1374" type="line"/>
      <point x="862" y="1374"/>
      <point x="862" y="1374"/>
      <point x="862" y="1374" type="qcurve"/>
      <point x="718" y="1374" type="line"/>
      <point x="718" y="1374"/>
      <point x="718" y="1374"/>
      <point x="718" y="1374" type="qcurve"/>
      <point x="635" y="902" type="line"/>
      <point x="131" y="998" type="line"/>
      <point x="146" y="1082" type="line" smooth="yes"/>
      <point x="164" y="1185"/>
      <point x="246" y="1313"/>
      <point x="366" y="1385"/>
      <point x="522" y="1410"/>
      <point x="613" y="1410" type="qcurve" smooth="yes"/>
      <point x="973" y="1410" type="line" smooth="yes"/>
      <point x="1065" y="1410"/>
      <point x="1213" y="1382"/>
      <point x="1311" y="1313"/>
      <point x="1352" y="1197"/>
      <point x="1336" y="1108" type="qcurve"/>
      <point x="1333" y="1087" type="line" smooth="yes"/>
      <point x="1320" y="1010"/>
      <point x="1265" y="895"/>
      <point x="1159" y="806"/>
      <point x="987" y="735"/>
      <point x="856" y="703" type="qcurve" smooth="yes"/>
      <point x="597" y="639" type="line"/>
      <point x="597" y="639"/>
      <point x="597" y="639"/>
      <point x="597" y="639"/>
      <point x="597" y="639"/>
      <point x="597" y="639" type="qcurve"/>
      <point x="491" y="32" type="line"/>
      <point x="633" y="32" type="line"/>
      <point x="633" y="32"/>
      <point x="633" y="32"/>
      <point x="633" y="32" type="qcurve"/>
      <point x="714" y="498" type="line"/>
      <point x="1243" y="402" type="line"/>
      <point x="1233" y="342" type="line" smooth="yes"/>
      <point x="1214" y="236"/>
      <point x="1134" y="103"/>
      <point x="1015" y="28"/>
      <point x="858" y="0"/>
      <point x="763" y="0" type="qcurve" smooth="yes"/>
    </contour>
  </outline>
</glyph>
<glyph name="three" format="2">
  <advance width="1396" height="1448"/>
  <unicode hex="0033"/>
  <outline>
    <contour>
      <point x="34" y="391" type="line"/>
      <point x="582" y="482" type="line"/>
      <point x="503" y="26" type="line"/>
      <point x="503" y="26"/>
      <point x="503" y="26"/>
      <point x="503" y="26"/>
      <point x="503" y="26"/>
      <point x="503" y="26" type="qcurve"/>
      <point x="563" y="26" type="line" smooth="yes"/>
      <point x="583" y="26"/>
      <point x="619" y="32"/>
      <point x="648" y="50"/>
      <point x="669" y="84"/>
      <point x="674" y="112" type="qcurve" smooth="yes"/>
      <point x="758" y="594" type="line" smooth="yes"/>
      <point x="763" y="624"/>
      <point x="758" y="665"/>
      <point x="741" y="689"/>
      <point x="717" y="700"/>
      <point x="703" y="700" type="qcurve" smooth="yes"/>
      <point x="630" y="700" type="line"/>
      <point x="636" y="736" type="line"/>
      <point x="709" y="736" type="line" smooth="yes"/>
      <point x="721" y="736"/>
      <point x="743" y="744"/>
      <point x="761" y="762"/>
      <point x="774" y="790"/>
      <point x="778" y="811" type="qcurve" smooth="yes"/>
      <point x="860" y="1283" type="line" smooth="yes"/>
      <point x="865" y="1309"/>
      <point x="857" y="1344"/>
      <point x="838" y="1365"/>
      <point x="808" y="1374"/>
      <point x="790" y="1374" type="qcurve" smooth="yes"/>
      <point x="740" y="1374" type="line"/>
      <point x="740" y="1374"/>
      <point x="740" y="1374"/>
      <point x="740" y="1374" type="qcurve"/>
      <point x="664" y="940" type="line"/>
      <point x="148" y="1031" type="line"/>
      <point x="160" y="1102" type="line" smooth="yes"/>
      <point x="174" y="1179"/>
      <point x="241" y="1294"/>
      <point x="351" y="1371"/>
      <point x="504" y="1410"/>
      <point x="602" y="1410" type="qcurve" smooth="yes"/>
      <point x="1026" y="1410" type="line" smooth="yes"/>
      <point x="1223" y="1410"/>
      <point x="1385" y="1245"/>
      <point x="1359" y="1092" type="qcurve" smooth="yes"/>
      <point x="1345" y="1014" type="line" smooth="yes"/>
      <point x="1333" y="946"/>
      <point x="1289" y="845"/>
      <point x="1222" y="774"/>
      <point x="1129" y="731"/>
      <point x="1068" y="720" type="qcurve"/>
      <point x="1130" y="714"/>
      <point x="1215" y="674"/>
      <point x="1263" y="599"/>
      <point x="1273" y="487"/>
      <point x="1259" y="408" type="qcurve" smooth="yes"/>
      <point x="1244" y="320" type="line" smooth="yes"/>
      <point x="1228" y="225"/>
      <point x="1146" y="98"/>
      <point x="1026" y="22"/>
      <point x="870" y="-10"/>
      <point x="778" y="-10" type="qcurve" smooth="yes"/>
      <point x="352" y="-10" type="line" smooth="yes"/>
      <point x="261" y="-10"/>
      <point x="122" y="19"/>
      <point x="35" y="91"/>
      <point x="4" y="215"/>
      <point x="20" y="310" type="qcurve" smooth="yes"/>
    </contour>
  </outline>
</glyph>
<glyph name="four" format="2">
  <advance width="1366"/>
  <unicode hex="0034"/>
  <outline>
    <contour>
      <point x="-45" y="366" type="line"/>
      <point x="582" y="366" type="line"/>
      <point x="518" y="0" type="line"/>
      <point x="1090" y="0" type="line"/>
      <point x="1154" y="366" type="line"/>
      <point x="1253" y="366" type="line"/>
      <point x="1259" y="402" type="line"/>
      <point x="1160" y="402" type="line"/>
      <point x="1334" y="1400" type="line"/>
      <point x="984" y="1400" type="line"/>
      <point x="-41" y="392" type="line"/>
    </contour>
    <contour>
      <point x="20" y="402" type="line"/>
      <point x="706" y="1076" type="line"/>
      <point x="588" y="402" type="line"/>
    </contour>
  </outline>
</glyph>
<glyph name="five" format="2">
  <advance width="1158"/>
  <unicode hex="0035"/>
  <outline>
    <contour>
      <point x="345" y="-12" type="line"/>
      <point x="269" y="-12"/>
      <point x="151" y="0"/>
      <point x="61" y="18"/>
      <point x="-2" y="38"/>
      <point x="-21" y="46" type="qcurve"/>
      <point x="-27" y="92" type="line"/>
      <point x="-8" y="82"/>
      <point x="41" y="64"/>
      <point x="95" y="49"/>
      <point x="152" y="37"/>
      <point x="205" y="29"/>
      <point x="252" y="24"/>
      <point x="269" y="24" type="qcurve" smooth="yes"/>
      <point x="306" y="24"/>
      <point x="372" y="56"/>
      <point x="430" y="143"/>
      <point x="480" y="295"/>
      <point x="501" y="414" type="qcurve" smooth="yes"/>
      <point x="519" y="514"/>
      <point x="529" y="647"/>
      <point x="510" y="726"/>
      <point x="461" y="759"/>
      <point x="420" y="759" type="qcurve" smooth="yes"/>
      <point x="388" y="759"/>
      <point x="304" y="745"/>
      <point x="213" y="720"/>
      <point x="119" y="685"/>
      <point x="77" y="664" type="qcurve"/>
      <point x="265" y="1400" type="line"/>
      <point x="1087" y="1400" type="line"/>
      <point x="929" y="974" type="line"/>
      <point x="193" y="974" type="line"/>
      <point x="130" y="726" type="line"/>
      <point x="178" y="744"/>
      <point x="275" y="774"/>
      <point x="379" y="796"/>
      <point x="492" y="808"/>
      <point x="555" y="808" type="qcurve" smooth="yes"/>
      <point x="616" y="808"/>
      <point x="750" y="803"/>
      <point x="876" y="778"/>
      <point x="986" y="729"/>
      <point x="1060" y="640"/>
      <point x="1089" y="505"/>
      <point x="1072" y="408" type="qcurve" smooth="yes"/>
      <point x="1054" y="304"/>
      <point x="972" y="161"/>
      <point x="858" y="68"/>
      <point x="719" y="17"/>
      <point x="570" y="-7"/>
      <point x="416" y="-12"/>
      <point x="345" y="-12" type="qcurve"/>
    </contour>
  </outline>
</glyph>
<glyph name="six" format="2">
  <advance width="1334"/>
  <unicode hex="0036"/>
  <outline>
    <contour>
      <point x="529" y="-10" type="line"/>
      <point x="658" y="-10"/>
      <point x="850" y="-3"/>
      <point x="992" y="21"/>
      <point x="1089" y="68"/>
      <point x="1155" y="148"/>
      <point x="1196" y="266"/>
      <point x="1210" y="349" type="qcurve" smooth="yes"/>
      <point x="1226" y="439"/>
      <point x="1227" y="564"/>
      <point x="1192" y="648"/>
      <point x="1116" y="696"/>
      <point x="991" y="721"/>
      <point x="814" y="727"/>
      <point x="696" y="727" type="qcurve" smooth="yes"/>
      <point x="611" y="727"/>
      <point x="475" y="712"/>
      <point x="371" y="691"/>
      <point x="299" y="666"/>
      <point x="279" y="655" type="qcurve"/>
      <point x="272" y="615" type="line"/>
      <point x="307" y="630"/>
      <point x="378" y="658"/>
      <point x="461" y="679"/>
      <point x="561" y="691"/>
      <point x="624" y="691" type="qcurve" smooth="yes"/>
      <point x="648" y="691"/>
      <point x="680" y="687"/>
      <point x="700" y="672"/>
      <point x="708" y="644"/>
      <point x="707" y="596"/>
      <point x="696" y="527"/>
      <point x="688" y="478" type="qcurve" smooth="yes"/>
      <point x="669" y="369"/>
      <point x="641" y="216"/>
      <point x="619" y="116"/>
      <point x="600" y="60"/>
      <point x="582" y="32"/>
      <point x="562" y="26"/>
      <point x="549" y="26" type="qcurve" smooth="yes"/>
      <point x="536" y="26"/>
      <point x="519" y="33"/>
      <point x="511" y="63"/>
      <point x="513" y="124"/>
      <point x="526" y="229"/>
      <point x="552" y="387"/>
      <point x="572" y="500" type="qcurve" smooth="yes"/>
      <point x="605" y="685"/>
      <point x="664" y="959"/>
      <point x="727" y="1153"/>
      <point x="797" y="1277"/>
      <point x="884" y="1347"/>
      <point x="991" y="1374"/>
      <point x="1059" y="1374" type="qcurve" smooth="yes"/>
      <point x="1068" y="1374"/>
      <point x="1088" y="1373"/>
      <point x="1109" y="1370"/>
      <point x="1129" y="1366"/>
      <point x="1138" y="1364" type="qcurve"/>
      <point x="1129" y="1404" type="line"/>
      <point x="1125" y="1405"/>
      <point x="1111" y="1407"/>
      <point x="1094" y="1409"/>
      <point x="1076" y="1410"/>
      <point x="1068" y="1410" type="qcurve" smooth="yes"/>
      <point x="916" y="1410"/>
      <point x="659" y="1367"/>
      <point x="449" y="1277"/>
      <point x="282" y="1140"/>
      <point x="156" y="951"/>
      <point x="69" y="710"/>
      <point x="43" y="561" type="qcurve" smooth="yes"/>
      <point x="20" y="431"/>
      <point x="1" y="244"/>
      <point x="20" y="118"/>
      <point x="85" y="42"/>
      <point x="208" y="2"/>
      <point x="396" y="-10"/>
      <point x="529" y="-10" type="qcurve"/>
    </contour>
  </outline>
</glyph>
<glyph name="seven" format="2">
  <advance width="1277"/>
  <unicode hex="0037"/>
  <outline>
    <contour>
      <point x="95" y="1083" type="line"/>
      <point x="580" y="984" type="line"/>
      <point x="646" y="1364" type="line"/>
      <point x="933" y="1364" type="line"/>
      <point x="231" y="0" type="line"/>
      <point x="779" y="0" type="line"/>
      <point x="1353" y="1163" type="line"/>
      <point x="1394" y="1400" type="line"/>
      <point x="150" y="1400" type="line"/>
    </contour>
  </outline>
  <guideline x="638.5" name="halfwidth" color="0.4,0.4,0.4,1"/>
</glyph>
<glyph name="eight" format="2">
  <advance width="1395"/>
  <unicode hex="0038"/>
  <outline>
    <contour>
      <point x="509" y="90" type="line" smooth="yes"/>
      <point x="506" y="75"/>
      <point x="510" y="51"/>
      <point x="524" y="35"/>
      <point x="549" y="26"/>
      <point x="567" y="26" type="qcurve" smooth="yes"/>
      <point x="599" y="26" type="line" smooth="yes"/>
      <point x="617" y="26"/>
      <point x="645" y="35"/>
      <point x="665" y="51"/>
      <point x="676" y="75"/>
      <point x="679" y="90" type="qcurve" smooth="yes"/>
      <point x="772" y="625" type="line" smooth="yes"/>
      <point x="775" y="640"/>
      <point x="771" y="664"/>
      <point x="757" y="680"/>
      <point x="732" y="689"/>
      <point x="714" y="689" type="qcurve" smooth="yes"/>
      <point x="682" y="689" type="line" smooth="yes"/>
      <point x="667" y="689"/>
      <point x="641" y="680"/>
      <point x="619" y="664"/>
      <point x="605" y="640"/>
      <point x="602" y="625" type="qcurve" smooth="yes"/>
    </contour>
    <contour>
      <point x="889" y="1311" type="line" smooth="yes"/>
      <point x="892" y="1326"/>
      <point x="885" y="1349"/>
      <point x="869" y="1365"/>
      <point x="846" y="1374"/>
      <point x="831" y="1374" type="qcurve" smooth="yes"/>
      <point x="805" y="1374" type="line" smooth="yes"/>
      <point x="790" y="1374"/>
      <point x="764" y="1365"/>
      <point x="742" y="1349"/>
      <point x="728" y="1326"/>
      <point x="725" y="1311" type="qcurve" smooth="yes"/>
      <point x="634" y="788" type="line" smooth="yes"/>
      <point x="631" y="773"/>
      <point x="635" y="750"/>
      <point x="649" y="734"/>
      <point x="674" y="725"/>
      <point x="692" y="725" type="qcurve" smooth="yes"/>
      <point x="718" y="725" type="line" smooth="yes"/>
      <point x="733" y="725"/>
      <point x="759" y="734"/>
      <point x="781" y="750"/>
      <point x="795" y="773"/>
      <point x="798" y="788" type="qcurve" smooth="yes"/>
    </contour>
    <contour>
      <point x="-8" y="343" type="line"/>
      <point x="0" y="392" type="line" smooth="yes"/>
      <point x="15" y="477"/>
      <point x="69" y="592"/>
      <point x="137" y="665"/>
      <point x="215" y="703"/>
      <point x="253" y="712" type="qcurve"/>
      <point x="219" y="721"/>
      <point x="166" y="765"/>
      <point x="133" y="833"/>
      <point x="123" y="923"/>
      <point x="133" y="977" type="qcurve" smooth="yes"/>
      <point x="149" y="1071" type="line" smooth="yes"/>
      <point x="163" y="1149"/>
      <point x="235" y="1274"/>
      <point x="350" y="1363"/>
      <point x="510" y="1410"/>
      <point x="610" y="1410" type="qcurve" smooth="yes"/>
      <point x="1039" y="1410" type="line" smooth="yes"/>
      <point x="1140" y="1410"/>
      <point x="1282" y="1363"/>
      <point x="1366" y="1275"/>
      <point x="1395" y="1150"/>
      <point x="1381" y="1072" type="qcurve" smooth="yes"/>
      <point x="1365" y="977" type="line" smooth="yes"/>
      <point x="1355" y="923"/>
      <point x="1313" y="833"/>
      <point x="1255" y="765"/>
      <point x="1187" y="721"/>
      <point x="1152" y="712" type="qcurve"/>
      <point x="1187" y="704"/>
      <point x="1251" y="667"/>
      <point x="1294" y="595"/>
      <point x="1308" y="481"/>
      <point x="1293" y="396" type="qcurve" smooth="yes"/>
      <point x="1284" y="344" type="line" smooth="yes"/>
      <point x="1266" y="243"/>
      <point x="1178" y="107"/>
      <point x="1050" y="25"/>
      <point x="888" y="-10"/>
      <point x="796" y="-10" type="qcurve" smooth="yes"/>
      <point x="355" y="-10" type="line" smooth="yes"/>
      <point x="265" y="-10"/>
      <point x="115" y="24"/>
      <point x="16" y="106"/>
      <point x="-26" y="242"/>
      <point x="-8" y="343" type="qcurve"/>
    </contour>
  </outline>
</glyph>
<glyph name="nine" format="2">
  <advance width="1324"/>
  <unicode hex="0039"/>
  <outline>
    <contour>
      <point x="796" y="1410" type="line"/>
      <point x="668" y="1410"/>
      <point x="475" y="1405"/>
      <point x="334" y="1384"/>
      <point x="239" y="1344"/>
      <point x="175" y="1274"/>
      <point x="137" y="1170"/>
      <point x="124" y="1096" type="qcurve" smooth="yes"/>
      <point x="106" y="990"/>
      <point x="99" y="841"/>
      <point x="131" y="740"/>
      <point x="206" y="682"/>
      <point x="329" y="651"/>
      <point x="506" y="643"/>
      <point x="624" y="643" type="qcurve" smooth="yes"/>
      <point x="709" y="643"/>
      <point x="845" y="658"/>
      <point x="949" y="679"/>
      <point x="1021" y="705"/>
      <point x="1041" y="715" type="qcurve"/>
      <point x="1048" y="755" type="line"/>
      <point x="1013" y="740"/>
      <point x="942" y="713"/>
      <point x="859" y="692"/>
      <point x="760" y="679"/>
      <point x="697" y="679" type="qcurve" smooth="yes"/>
      <point x="674" y="679"/>
      <point x="641" y="683"/>
      <point x="621" y="698"/>
      <point x="612" y="726"/>
      <point x="613" y="774"/>
      <point x="624" y="843"/>
      <point x="632" y="892" type="qcurve" smooth="yes"/>
      <point x="652" y="1009"/>
      <point x="682" y="1171"/>
      <point x="706" y="1279"/>
      <point x="725" y="1338"/>
      <point x="744" y="1368"/>
      <point x="764" y="1374"/>
      <point x="777" y="1374" type="qcurve" smooth="yes"/>
      <point x="790" y="1374"/>
      <point x="807" y="1365"/>
      <point x="814" y="1333"/>
      <point x="811" y="1270"/>
      <point x="797" y="1163"/>
      <point x="771" y="1003"/>
      <point x="751" y="890" type="qcurve" smooth="yes"/>
      <point x="719" y="704"/>
      <point x="659" y="430"/>
      <point x="597" y="237"/>
      <point x="527" y="116"/>
      <point x="441" y="47"/>
      <point x="334" y="22"/>
      <point x="266" y="22" type="qcurve" smooth="yes"/>
      <point x="257" y="22"/>
      <point x="237" y="23"/>
      <point x="216" y="26"/>
      <point x="196" y="30"/>
      <point x="187" y="32" type="qcurve"/>
      <point x="196" y="-8" type="line"/>
      <point x="201" y="-9"/>
      <point x="215" y="-11"/>
      <point x="231" y="-13"/>
      <point x="249" y="-14"/>
      <point x="257" y="-14" type="qcurve" smooth="yes"/>
      <point x="410" y="-14"/>
      <point x="664" y="21"/>
      <point x="872" y="98"/>
      <point x="1036" y="221"/>
      <point x="1159" y="397"/>
      <point x="1245" y="630"/>
      <point x="1271" y="779" type="qcurve" smooth="yes"/>
      <point x="1294" y="910"/>
      <point x="1315" y="1104"/>
      <point x="1298" y="1245"/>
      <point x="1236" y="1336"/>
      <point x="1115" y="1389"/>
      <point x="929" y="1410"/>
      <point x="796" y="1410" type="qcurve"/>
    </contour>
  </outline>
</glyph>
<glyph name="colon" format="2">
  <advance width="688"/>
  <unicode hex="003A"/>
  <outline>
    <contour>
      <point x="-17" y="135" type="line"/>
      <point x="14" y="316" type="line" smooth="yes"/>
      <point x="23" y="367"/>
      <point x="38" y="423"/>
      <point x="69" y="449"/>
      <point x="127" y="454"/>
      <point x="179" y="454" type="qcurve" smooth="yes"/>
      <point x="426" y="454" type="line" smooth="yes"/>
      <point x="478" y="454"/>
      <point x="535" y="449"/>
      <point x="557" y="422"/>
      <point x="553" y="366"/>
      <point x="544" y="314" type="qcurve" smooth="yes"/>
      <point x="513" y="135" type="line" smooth="yes"/>
      <point x="504" y="83"/>
      <point x="489" y="26"/>
      <point x="457" y="-1"/>
      <point x="399" y="-6"/>
      <point x="347" y="-6" type="qcurve" smooth="yes"/>
      <point x="99" y="-6" type="line" smooth="yes"/>
      <point x="47" y="-6"/>
      <point x="-9" y="-1"/>
      <point x="-32" y="26"/>
      <point x="-26" y="83"/>
      <point x="-17" y="135" type="qcurve"/>
    </contour>
    <contour>
      <point x="84" y="715" type="line"/>
      <point x="115" y="896" type="line" smooth="yes"/>
      <point x="124" y="947"/>
      <point x="139" y="1003"/>
      <point x="170" y="1029"/>
      <point x="228" y="1034"/>
      <point x="280" y="1034" type="qcurve" smooth="yes"/>
      <point x="527" y="1034" type="line" smooth="yes"/>
      <point x="579" y="1034"/>
      <point x="636" y="1029"/>
      <point x="658" y="1002"/>
      <point x="654" y="946"/>
      <point x="645" y="894" type="qcurve" smooth="yes"/>
      <point x="614" y="715" type="line" smooth="yes"/>
      <point x="605" y="663"/>
      <point x="590" y="606"/>
      <point x="558" y="579"/>
      <point x="500" y="574"/>
      <point x="448" y="574" type="qcurve" smooth="yes"/>
      <point x="200" y="574" type="line" smooth="yes"/>
      <point x="148" y="574"/>
      <point x="92" y="579"/>
      <point x="70" y="606"/>
      <point x="75" y="663"/>
      <point x="84" y="715" type="qcurve"/>
    </contour>
  </outline>
</glyph>
<glyph name="semicolon" format="2">
  <advance width="687.275"/>
  <unicode hex="003B"/>
  <outline>
    <contour>
      <point x="84" y="715" type="line"/>
      <point x="115" y="896" type="line" smooth="yes"/>
      <point x="122" y="940"/>
      <point x="142" y="994"/>
      <point x="178" y="1024"/>
      <point x="235" y="1034"/>
      <point x="280" y="1034" type="qcurve" smooth="yes"/>
      <point x="527" y="1034" type="line" smooth="yes"/>
      <point x="572" y="1034"/>
      <point x="626" y="1024"/>
      <point x="651" y="994"/>
      <point x="652" y="939"/>
      <point x="645" y="894" type="qcurve" smooth="yes"/>
      <point x="614" y="715" type="line" smooth="yes"/>
      <point x="606" y="670"/>
      <point x="586" y="615"/>
      <point x="550" y="584"/>
      <point x="493" y="574"/>
      <point x="448" y="574" type="qcurve" smooth="yes"/>
      <point x="200" y="574" type="line" smooth="yes"/>
      <point x="155" y="574"/>
      <point x="101" y="584"/>
      <point x="76" y="615"/>
      <point x="76" y="670"/>
      <point x="84" y="715" type="qcurve"/>
    </contour>
    <contour>
      <point x="-16" y="145" type="line"/>
      <point x="14" y="315" type="line" smooth="yes"/>
      <point x="21" y="359"/>
      <point x="41" y="414"/>
      <point x="77" y="444"/>
      <point x="134" y="454"/>
      <point x="179" y="454" type="qcurve" smooth="yes"/>
      <point x="427" y="454" type="line" smooth="yes"/>
      <point x="472" y="454"/>
      <point x="525" y="444"/>
      <point x="551" y="414"/>
      <point x="551" y="359"/>
      <point x="544" y="315" type="qcurve" smooth="yes"/>
      <point x="514" y="145" type="line" smooth="yes"/>
      <point x="506" y="100"/>
      <point x="486" y="45"/>
      <point x="451" y="14"/>
      <point x="394" y="4"/>
      <point x="349" y="4" type="qcurve" smooth="yes"/>
      <point x="101" y="4" type="line" smooth="yes"/>
      <point x="56" y="4"/>
      <point x="2" y="14"/>
      <point x="-23" y="45"/>
      <point x="-24" y="100"/>
      <point x="-16" y="145" type="qcurve"/>
    </contour>
    <contour>
      <point x="97" y="-336" type="line"/>
      <point x="352" y="25" type="line"/>
      <point x="475" y="36" type="line"/>
      <point x="123" y="-342" type="line"/>
      <point x="97" y="-336" type="line"/>
    </contour>
  </outline>
</glyph>
<glyph name="less" format="2">
  <advance width="599"/>
  <unicode hex="003C"/>
  <outline>
    <contour>
      <point x="464.315" y="241" type="line"/>
      <point x="471.315" y="281" type="line"/>
      <point x="75.315" y="584" type="line"/>
      <point x="577.315" y="887" type="line"/>
      <point x="584.315" y="927" type="line"/>
      <point x="41.315" y="601" type="line"/>
      <point x="35.315" y="565" type="line"/>
    </contour>
  </outline>
</glyph>
<glyph name="equal" format="2">
  <advance width="1010.04"/>
  <unicode hex="003D"/>
  <outline>
    <contour>
      <point x="59" y="699" type="line"/>
      <point x="66" y="735" type="line"/>
      <point x="960" y="735" type="line"/>
      <point x="953" y="699" type="line"/>
    </contour>
    <contour>
      <point x="16" y="439" type="line"/>
      <point x="23" y="475" type="line"/>
      <point x="917" y="475" type="line"/>
      <point x="910" y="439" type="line"/>
    </contour>
  </outline>
</glyph>
<glyph name="question" format="2">
  <advance width="1030"/>
  <unicode hex="003F"/>
  <outline>
    <contour>
      <point x="430.28" y="462" type="line"/>
      <point x="476.28" y="725" type="line"/>
      <point x="476.28" y="725"/>
      <point x="476.28" y="725"/>
      <point x="476.28" y="725"/>
      <point x="476.28" y="725"/>
      <point x="476.28" y="725" type="qcurve"/>
      <point x="515.28" y="725" type="line" smooth="yes"/>
      <point x="534.28" y="725"/>
      <point x="556.28" y="733"/>
      <point x="569.28" y="752"/>
      <point x="575.28" y="782"/>
      <point x="579.28" y="804" type="qcurve" smooth="yes"/>
      <point x="679.28" y="1374" type="line"/>
      <point x="679.28" y="1374"/>
      <point x="679.28" y="1374"/>
      <point x="679.28" y="1374"/>
      <point x="679.28" y="1374"/>
      <point x="679.28" y="1374" type="qcurve"/>
      <point x="594.28" y="1374" type="line"/>
      <point x="594.28" y="1374"/>
      <point x="594.28" y="1374"/>
      <point x="594.28" y="1374"/>
      <point x="594.28" y="1374"/>
      <point x="594.28" y="1374" type="qcurve"/>
      <point x="517.28" y="935" type="line"/>
      <point x="75.2804" y="1008" type="line"/>
      <point x="93.2804" y="1113" type="line" smooth="yes"/>
      <point x="107.28" y="1192"/>
      <point x="163.28" y="1305"/>
      <point x="253.28" y="1377"/>
      <point x="381.28" y="1410"/>
      <point x="466.28" y="1410" type="qcurve" smooth="yes"/>
      <point x="822.28" y="1410" type="line" smooth="yes"/>
      <point x="908.28" y="1410"/>
      <point x="1023.28" y="1377"/>
      <point x="1087.28" y="1307"/>
      <point x="1103.28" y="1195"/>
      <point x="1089.28" y="1115" type="qcurve" smooth="yes"/>
      <point x="1066.28" y="987" type="line" smooth="yes"/>
      <point x="1056.28" y="928"/>
      <point x="1012.28" y="820"/>
      <point x="942.28" y="738"/>
      <point x="846.28" y="689"/>
      <point x="783.28" y="689" type="qcurve" smooth="yes"/>
      <point x="509.28" y="689" type="line"/>
      <point x="509.28" y="689"/>
      <point x="509.28" y="689"/>
      <point x="509.28" y="689"/>
      <point x="509.28" y="689"/>
      <point x="509.28" y="689" type="qcurve"/>
      <point x="470.28" y="462" type="line"/>
    </contour>
    <contour>
      <point x="128.28" y="135" type="line"/>
      <point x="143.28" y="226" type="line" smooth="yes"/>
      <point x="151.28" y="270"/>
      <point x="171.28" y="324"/>
      <point x="207.28" y="354"/>
      <point x="264.28" y="364"/>
      <point x="309.28" y="364" type="qcurve" smooth="yes"/>
      <point x="556.28" y="364" type="line" smooth="yes"/>
      <point x="601.28" y="364"/>
      <point x="655.28" y="354"/>
      <point x="680.28" y="324"/>
      <point x="681.28" y="269"/>
      <point x="673.28" y="224" type="qcurve" smooth="yes"/>
      <point x="658.28" y="135" type="line" smooth="yes"/>
      <point x="650.28" y="90"/>
      <point x="630.28" y="35"/>
      <point x="594.28" y="4"/>
      <point x="537.28" y="-6"/>
      <point x="492.28" y="-6" type="qcurve" smooth="yes"/>
      <point x="244.28" y="-6" type="line" smooth="yes"/>
      <point x="199.28" y="-6"/>
      <point x="146.28" y="4"/>
      <point x="121.28" y="35"/>
      <point x="120.28" y="90"/>
      <point x="128.28" y="135" type="qcurve"/>
    </contour>
  </outline>
</glyph>
<glyph name="at" format="2">
  <advance width="1793" height="1020.84"/>
  <unicode hex="0040"/>
  <outline>
    <contour>
      <point x="-15.3925" y="194" type="line"/>
      <point x="100.607" y="859" type="line" smooth="yes"/>
      <point x="115.607" y="947"/>
      <point x="186.607" y="1057"/>
      <point x="289.607" y="1118"/>
      <point x="422.607" y="1140"/>
      <point x="500.607" y="1140" type="qcurve" smooth="yes"/>
      <point x="1448.61" y="1140" type="line" smooth="yes"/>
      <point x="1526.61" y="1140"/>
      <point x="1652.61" y="1118"/>
      <point x="1734.61" y="1057"/>
      <point x="1767.61" y="947"/>
      <point x="1752.61" y="859" type="qcurve" smooth="yes"/>
      <point x="1676.61" y="426" type="line" smooth="yes"/>
      <point x="1660.61" y="335"/>
      <point x="1595.61" y="228"/>
      <point x="1506.61" y="171"/>
      <point x="1398.61" y="154"/>
      <point x="1340.61" y="154" type="qcurve" smooth="yes"/>
      <point x="1018.61" y="154" type="line" smooth="yes"/>
      <point x="992.607" y="154"/>
      <point x="947.607" y="164"/>
      <point x="911.607" y="180"/>
      <point x="882.607" y="202"/>
      <point x="873.607" y="214" type="qcurve"/>
      <point x="865.607" y="200"/>
      <point x="843.607" y="178"/>
      <point x="813.607" y="162"/>
      <point x="776.607" y="154"/>
      <point x="754.607" y="154" type="qcurve" smooth="yes"/>
      <point x="615.607" y="154" type="line" smooth="yes"/>
      <point x="559.607" y="154"/>
      <point x="482.607" y="176"/>
      <point x="438.607" y="221"/>
      <point x="425.607" y="291"/>
      <point x="433.607" y="339" type="qcurve" smooth="yes"/>
      <point x="497.607" y="704" type="line" smooth="yes"/>
      <point x="505.607" y="750"/>
      <point x="542.607" y="817"/>
      <point x="602.607" y="861"/>
      <point x="687.607" y="882"/>
      <point x="742.607" y="882" type="qcurve" smooth="yes"/>
      <point x="915.607" y="882" type="line" smooth="yes"/>
      <point x="926.607" y="882"/>
      <point x="954.607" y="876"/>
      <point x="962.607" y="865" type="qcurve"/>
      <point x="964.607" y="878" type="line"/>
      <point x="1320.61" y="878" type="line"/>
      <point x="1207.61" y="228" type="line" smooth="yes"/>
      <point x="1205.61" y="217"/>
      <point x="1208.61" y="200"/>
      <point x="1217.61" y="188"/>
      <point x="1235.61" y="182"/>
      <point x="1248.61" y="182" type="qcurve" smooth="yes"/>
      <point x="1273.61" y="182" type="line" smooth="yes"/>
      <point x="1290.61" y="182"/>
      <point x="1311.61" y="192"/>
      <point x="1326.61" y="213"/>
      <point x="1335.61" y="244"/>
      <point x="1339.61" y="265" type="qcurve" smooth="yes"/>
      <point x="1468.61" y="1001" type="line" smooth="yes"/>
      <point x="1472.61" y="1024"/>
      <point x="1464.61" y="1062"/>
      <point x="1432.61" y="1089"/>
      <point x="1374.61" y="1104"/>
      <point x="1327.61" y="1104" type="qcurve" smooth="yes"/>
      <point x="599.607" y="1104" type="line" smooth="yes"/>
      <point x="566.607" y="1104"/>
      <point x="510.607" y="1096"/>
      <point x="468.607" y="1073"/>
      <point x="440.607" y="1033"/>
      <point x="434.607" y="1001" type="qcurve" smooth="yes"/>
      <point x="268.607" y="51" type="line" smooth="yes"/>
      <point x="264.607" y="25"/>
      <point x="268.607" y="-17"/>
      <point x="295.607" y="-47"/>
      <point x="349.607" y="-64"/>
      <point x="395.607" y="-64" type="qcurve" smooth="yes"/>
      <point x="1295.61" y="-64" type="line"/>
      <point x="1289.61" y="-100" type="line"/>
      <point x="284.607" y="-100" type="line" smooth="yes"/>
      <point x="202.607" y="-100"/>
      <point x="76.6075" y="-76"/>
      <point x="-3.39254" y="-11"/>
      <point x="-31.3925" y="104"/>
      <point x="-15.3925" y="194" type="qcurve"/>
    </contour>
    <contour>
      <point x="773.607" y="186" type="line"/>
      <point x="773.607" y="186"/>
      <point x="773.607" y="186"/>
      <point x="773.607" y="186" type="qcurve"/>
      <point x="777.607" y="186" type="line" smooth="yes"/>
      <point x="813.607" y="186"/>
      <point x="851.607" y="232"/>
      <point x="859.607" y="277" type="qcurve" smooth="yes"/>
      <point x="959.607" y="850" type="line"/>
      <point x="889.607" y="850" type="line"/>
      <point x="889.607" y="850"/>
      <point x="889.607" y="850"/>
      <point x="889.607" y="850" type="qcurve"/>
    </contour>
  </outline>
</glyph>
<glyph name="A" format="2">
  <advance width="1234" height="1448"/>
  <unicode hex="0041"/>
  <anchor x="759" y="1550" name="top"/>
  <anchor x="432" y="-150" name="bottom"/>
  <anchor x="550" y="0" name="ogonek_in"/>
  <outline>
    <contour>
      <point x="-130" y="0" type="line"/>
      <point x="-89" y="0" type="line"/>
      <point x="56" y="298" type="line"/>
      <point x="514" y="298" type="line"/>
      <point x="550" y="0" type="line"/>
      <point x="1124" y="0" type="line"/>
      <point x="927" y="1400" type="line"/>
      <point x="554" y="1400" type="line"/>
    </contour>
    <contour>
      <point x="74" y="334" type="line"/>
      <point x="422" y="1047" type="line"/>
      <point x="509" y="334" type="line"/>
    </contour>
  </outline>
</glyph>
<glyph name="C" format="2">
  <advance width="1336.62" height="1448"/>
  <unicode hex="0043"/>
  <anchor x="844" y="1550" name="top"/>
  <anchor x="547" y="-150" name="bottom"/>
  <outline>
    <contour>
      <point x="138.87" y="1076" type="line"/>
      <point x="9.8704" y="336" type="line" smooth="yes"/>
      <point x="-8.1296" y="233"/>
      <point x="22.8704" y="99"/>
      <point x="113.87" y="21"/>
      <point x="261.87" y="-10"/>
      <point x="360.87" y="-10" type="qcurve" smooth="yes"/>
      <point x="778.87" y="-10" type="line" smooth="yes"/>
      <point x="877.87" y="-10"/>
      <point x="1036.87" y="21"/>
      <point x="1156.87" y="99"/>
      <point x="1235.87" y="233"/>
      <point x="1253.87" y="336" type="qcurve" smooth="yes"/>
      <point x="1287.87" y="530" type="line"/>
      <point x="734.87" y="640" type="line"/>
      <point x="627.87" y="26" type="line"/>
      <point x="627.87" y="26"/>
      <point x="627.87" y="26"/>
      <point x="627.87" y="26"/>
      <point x="627.87" y="26"/>
      <point x="627.87" y="26" type="qcurve"/>
      <point x="527.87" y="26" type="line"/>
      <point x="527.87" y="26"/>
      <point x="527.87" y="26"/>
      <point x="527.87" y="26"/>
      <point x="527.87" y="26"/>
      <point x="527.87" y="26" type="qcurve"/>
      <point x="762.87" y="1374" type="line"/>
      <point x="762.87" y="1374"/>
      <point x="762.87" y="1374"/>
      <point x="762.87" y="1374"/>
      <point x="762.87" y="1374"/>
      <point x="762.87" y="1374" type="qcurve"/>
      <point x="856.87" y="1374" type="line"/>
      <point x="856.87" y="1374"/>
      <point x="856.87" y="1374"/>
      <point x="856.87" y="1374"/>
      <point x="856.87" y="1374"/>
      <point x="856.87" y="1374" type="qcurve"/>
      <point x="753.87" y="786" type="line"/>
      <point x="1343.87" y="890" type="line"/>
      <point x="1376.87" y="1076" type="line" smooth="yes"/>
      <point x="1394.87" y="1177"/>
      <point x="1358.87" y="1306"/>
      <point x="1263.87" y="1381"/>
      <point x="1115.87" y="1410"/>
      <point x="1020.87" y="1410" type="qcurve" smooth="yes"/>
      <point x="608.87" y="1410" type="line" smooth="yes"/>
      <point x="514.87" y="1410"/>
      <point x="356.87" y="1381"/>
      <point x="236.87" y="1306"/>
      <point x="156.87" y="1177"/>
      <point x="138.87" y="1076" type="qcurve"/>
    </contour>
  </outline>
</glyph>
<glyph name="D" format="2">
  <advance width="1373"/>
  <unicode hex="0044"/>
  <anchor x="781" y="1550" name="top"/>
  <anchor x="482" y="-150" name="bottom"/>
  <outline>
    <contour>
      <point x="545.982" y="36" type="line"/>
      <point x="555.982" y="36" type="line" smooth="yes"/>
      <point x="573.982" y="36"/>
      <point x="609.74" y="69"/>
      <point x="646.13" y="140"/>
      <point x="683.15" y="249"/>
      <point x="722.5" y="400"/>
      <point x="762.527" y="595"/>
      <point x="783.642" y="716" type="qcurve" smooth="yes"/>
      <point x="804.407" y="835"/>
      <point x="830.388" y="1024"/>
      <point x="842.516" y="1168"/>
      <point x="841.315" y="1270"/>
      <point x="828.483" y="1334"/>
      <point x="804.718" y="1364"/>
      <point x="787.718" y="1364" type="qcurve" smooth="yes"/>
      <point x="777.718" y="1364" type="line"/>
    </contour>
    <contour>
      <point x="-32.3" y="0" type="line"/>
      <point x="212" y="1400" type="line"/>
      <point x="799" y="1400" type="line" smooth="yes"/>
      <point x="910" y="1400"/>
      <point x="1086.97" y="1354"/>
      <point x="1220.62" y="1266"/>
      <point x="1311.28" y="1138"/>
      <point x="1357.14" y="971"/>
      <point x="1359.72" y="768"/>
      <point x="1339.12" y="650" type="qcurve" smooth="yes"/>
      <point x="1317.31" y="525"/>
      <point x="1239.46" y="331"/>
      <point x="1132.16" y="186"/>
      <point x="995.881" y="87"/>
      <point x="836.411" y="27"/>
      <point x="654.7" y="0"/>
      <point x="554.7" y="0" type="qcurve" smooth="yes"/>
    </contour>
  </outline>
</glyph>
<glyph name="F" format="2">
  <advance width="1067.14"/>
  <unicode hex="0046"/>
  <outline>
    <contour>
      <point x="-32" y="0" type="line"/>
      <point x="212" y="1400" type="line"/>
      <point x="1184" y="1400" type="line"/>
      <point x="1178" y="1364" type="line"/>
      <point x="778" y="1364" type="line"/>
      <point x="668" y="734" type="line"/>
      <point x="948" y="734" type="line"/>
      <point x="942" y="698" type="line"/>
      <point x="662" y="698" type="line"/>
      <point x="540" y="0" type="line"/>
    </contour>
  </outline>
</glyph>
<glyph name="G" format="2">
  <advance width="1378.62" height="1448"/>
  <unicode hex="0047"/>
  <anchor x="846" y="1550" name="top"/>
  <anchor x="549" y="-150" name="bottom"/>
  <outline>
    <contour>
      <point x="138.87" y="1076" type="line"/>
      <point x="9.8704" y="336" type="line" smooth="yes"/>
      <point x="-8.1296" y="233"/>
      <point x="22.8704" y="99"/>
      <point x="113.87" y="21"/>
      <point x="261.87" y="-10"/>
      <point x="360.87" y="-10" type="qcurve" smooth="yes"/>
      <point x="780.87" y="-10" type="line" smooth="yes"/>
      <point x="879.87" y="-10"/>
      <point x="1038.87" y="21"/>
      <point x="1158.87" y="99"/>
      <point x="1237.87" y="233"/>
      <point x="1255.87" y="336" type="qcurve" smooth="yes"/>
      <point x="1318.87" y="700" type="line"/>
      <point x="696.87" y="700" type="line"/>
      <point x="690.87" y="664" type="line"/>
      <point x="740.87" y="664" type="line"/>
      <point x="629.87" y="26" type="line"/>
      <point x="629.87" y="26"/>
      <point x="629.87" y="26"/>
      <point x="629.87" y="26"/>
      <point x="629.87" y="26"/>
      <point x="629.87" y="26" type="qcurve"/>
      <point x="527.87" y="26" type="line"/>
      <point x="527.87" y="26"/>
      <point x="527.87" y="26"/>
      <point x="527.87" y="26"/>
      <point x="527.87" y="26"/>
      <point x="527.87" y="26" type="qcurve"/>
      <point x="762.87" y="1374" type="line"/>
      <point x="762.87" y="1374"/>
      <point x="762.87" y="1374"/>
      <point x="762.87" y="1374"/>
      <point x="762.87" y="1374"/>
      <point x="762.87" y="1374" type="qcurve"/>
      <point x="858.87" y="1374" type="line"/>
      <point x="858.87" y="1374"/>
      <point x="858.87" y="1374"/>
      <point x="858.87" y="1374"/>
      <point x="858.87" y="1374"/>
      <point x="858.87" y="1374" type="qcurve"/>
      <point x="776.87" y="906" type="line"/>
      <point x="1366.87" y="1010" type="line"/>
      <point x="1378.87" y="1076" type="line" smooth="yes"/>
      <point x="1396.87" y="1177"/>
      <point x="1360.87" y="1306"/>
      <point x="1265.87" y="1381"/>
      <point x="1117.87" y="1410"/>
      <point x="1022.87" y="1410" type="qcurve" smooth="yes"/>
      <point x="608.87" y="1410" type="line" smooth="yes"/>
      <point x="514.87" y="1410"/>
      <point x="356.87" y="1381"/>
      <point x="236.87" y="1306"/>
      <point x="156.87" y="1177"/>
      <point x="138.87" y="1076" type="qcurve"/>
    </contour>
  </outline>
  <guideline angle="0" x="0" y="574"/>
  <guideline angle="0" x="0" y="1036"/>
  <guideline angle="0" x="0" y="980"/>
  <guideline angle="0" x="0" y="806"/>
  <guideline angle="0" x="0" y="700"/>
  <guideline angle="0" x="0" y="906"/>
  <guideline angle="0" x="0" y="494"/>
</glyph>
<glyph name="H" format="2">
  <advance width="1420" height="1448"/>
  <unicode hex="0048"/>
  <anchor x="861" y="1550" name="top"/>
  <anchor x="564" y="-150" name="bottom"/>
  <anchor x="-10" y="700" name="left"/>
  <outline>
    <contour>
      <point x="-32" y="0" type="line"/>
      <point x="540" y="0" type="line"/>
      <point x="664" y="710" type="line"/>
      <point x="764" y="710" type="line"/>
      <point x="640" y="0" type="line"/>
      <point x="1212" y="0" type="line"/>
      <point x="1456" y="1400" type="line"/>
      <point x="884" y="1400" type="line"/>
      <point x="770" y="746" type="line"/>
      <point x="670" y="746" type="line"/>
      <point x="784" y="1400" type="line"/>
      <point x="212" y="1400" type="line"/>
    </contour>
  </outline>
  <guideline angle="260.093" color="1,0,0,1" x="590" y="0"/>
</glyph>
<glyph name="J" format="2">
  <advance width="1344" height="1448"/>
  <unicode hex="004A"/>
  <anchor x="1129" y="1550" name="top"/>
  <anchor x="506" y="-150" name="bottom"/>
  <outline>
    <contour>
      <point x="1388" y="1400" type="line"/>
      <point x="816" y="1400" type="line"/>
      <point x="577" y="26" type="line"/>
      <point x="577" y="26"/>
      <point x="577" y="26"/>
      <point x="577" y="26"/>
      <point x="577" y="26"/>
      <point x="577" y="26" type="qcurve"/>
      <point x="501" y="26" type="line"/>
      <point x="501" y="26"/>
      <point x="501" y="26"/>
      <point x="501" y="26"/>
      <point x="501" y="26"/>
      <point x="501" y="26" type="qcurve"/>
      <point x="625" y="740" type="line"/>
      <point x="35" y="636" type="line"/>
      <point x="-19" y="324" type="line" smooth="yes"/>
      <point x="-37" y="224"/>
      <point x="-1" y="94"/>
      <point x="94" y="19"/>
      <point x="242" y="-10"/>
      <point x="336" y="-10" type="qcurve" smooth="yes"/>
      <point x="730" y="-10" type="line" smooth="yes"/>
      <point x="825" y="-10"/>
      <point x="982" y="19"/>
      <point x="1103" y="94"/>
      <point x="1183" y="224"/>
      <point x="1201" y="324" type="qcurve" smooth="yes"/>
    </contour>
  </outline>
</glyph>
<glyph name="L" format="2">
  <advance width="1030"/>
  <unicode hex="004C"/>
  <anchor x="525" y="1550" name="top"/>
  <anchor x="408" y="-150" name="bottom"/>
  <anchor x="-10" y="700" name="left"/>
  <anchor x="784" y="1400" name="right"/>
  <anchor x="891" y="700" name="eldot"/>
  <outline>
    <contour>
      <point x="-32" y="0" type="line"/>
      <point x="212" y="1400" type="line"/>
      <point x="784" y="1400" type="line"/>
      <point x="546" y="36" type="line"/>
      <point x="906" y="36" type="line"/>
      <point x="900" y="0" type="line"/>
    </contour>
  </outline>
</glyph>
<glyph name="M" format="2">
  <advance width="1504"/>
  <unicode hex="004D"/>
  <anchor x="904" y="1550" name="top"/>
  <anchor x="607" y="-150" name="bottom"/>
  <outline>
    <contour>
      <point x="-32" y="0" type="line"/>
      <point x="6" y="0" type="line"/>
      <point x="144" y="788" type="line"/>
      <point x="412" y="186" type="line"/>
      <point x="861" y="787" type="line"/>
      <point x="724" y="0" type="line"/>
      <point x="1296" y="0" type="line"/>
      <point x="1540" y="1400" type="line"/>
      <point x="1278" y="1400" type="line"/>
      <point x="827" y="795" type="line"/>
      <point x="556" y="1400" type="line"/>
      <point x="212" y="1400" type="line"/>
    </contour>
  </outline>
</glyph>
<glyph name="N" format="2">
  <advance width="1160"/>
  <unicode hex="004E"/>
  <anchor x="731" y="1550" name="top"/>
  <anchor x="434" y="-150" name="bottom"/>
  <outline>
    <contour>
      <point x="-32" y="0" type="line"/>
      <point x="4" y="0" type="line"/>
      <point x="132" y="732" type="line"/>
      <point x="770" y="0" type="line"/>
      <point x="952" y="0" type="line"/>
      <point x="1196" y="1400" type="line"/>
      <point x="1160" y="1400" type="line"/>
      <point x="1031" y="659" type="line"/>
      <point x="390" y="1400" type="line"/>
      <point x="212" y="1400" type="line"/>
    </contour>
  </outline>
</glyph>
<glyph name="O" format="2">
  <advance width="1387" height="1448"/>
  <unicode hex="004F"/>
  <anchor x="846" y="1560" name="top"/>
  <anchor x="547" y="-160" name="bottom"/>
  <anchor x="1382" y="1076" name="horn"/>
  <anchor x="592" y="0" name="ogonek"/>
  <outline>
    <contour>
      <point x="138.87" y="1076" type="line"/>
      <point x="9.87037" y="336" type="line" smooth="yes"/>
      <point x="-8.12963" y="233"/>
      <point x="22.8704" y="99"/>
      <point x="113.87" y="21"/>
      <point x="261.87" y="-10"/>
      <point x="360.87" y="-10" type="qcurve" smooth="yes"/>
      <point x="778.87" y="-10" type="line" smooth="yes"/>
      <point x="877.87" y="-10"/>
      <point x="1036.87" y="21"/>
      <point x="1156.87" y="99"/>
      <point x="1235.87" y="233"/>
      <point x="1253.87" y="336" type="qcurve" smooth="yes"/>
      <point x="1382.87" y="1076" type="line" smooth="yes"/>
      <point x="1400.87" y="1177"/>
      <point x="1364.87" y="1306"/>
      <point x="1269.87" y="1381"/>
      <point x="1121.87" y="1410"/>
      <point x="1026.87" y="1410" type="qcurve" smooth="yes"/>
      <point x="608.87" y="1410" type="line" smooth="yes"/>
      <point x="514.87" y="1410"/>
      <point x="356.87" y="1381"/>
      <point x="236.87" y="1306"/>
      <point x="156.87" y="1177"/>
      <point x="138.87" y="1076" type="qcurve"/>
    </contour>
    <contour>
      <point x="762.87" y="1374" type="line"/>
      <point x="762.87" y="1374"/>
      <point x="762.87" y="1374"/>
      <point x="762.87" y="1374"/>
      <point x="762.87" y="1374"/>
      <point x="762.87" y="1374" type="qcurve"/>
      <point x="862.87" y="1374" type="line"/>
      <point x="862.87" y="1374"/>
      <point x="862.87" y="1374"/>
      <point x="862.87" y="1374"/>
      <point x="862.87" y="1374"/>
      <point x="862.87" y="1374" type="qcurve"/>
      <point x="627.87" y="26" type="line"/>
      <point x="627.87" y="26"/>
      <point x="627.87" y="26"/>
      <point x="627.87" y="26"/>
      <point x="627.87" y="26"/>
      <point x="627.87" y="26" type="qcurve"/>
      <point x="527.87" y="26" type="line"/>
      <point x="527.87" y="26"/>
      <point x="527.87" y="26"/>
      <point x="527.87" y="26"/>
      <point x="527.87" y="26"/>
      <point x="527.87" y="26" type="qcurve"/>
    </contour>
  </outline>
</glyph>
<glyph name="P" format="2">
  <advance width="1365"/>
  <unicode hex="0050"/>
  <outline>
    <contour>
      <point x="-32" y="0" type="line"/>
      <point x="540" y="0" type="line"/>
      <point x="617" y="440" type="line"/>
      <point x="885" y="440" type="line" smooth="yes"/>
      <point x="980" y="440"/>
      <point x="1137" y="469"/>
      <point x="1258" y="544"/>
      <point x="1339" y="674"/>
      <point x="1357" y="774" type="qcurve" smooth="yes"/>
      <point x="1408" y="1066" type="line" smooth="yes"/>
      <point x="1426" y="1167"/>
      <point x="1390" y="1296"/>
      <point x="1295" y="1371"/>
      <point x="1147" y="1400"/>
      <point x="1052" y="1400" type="qcurve" smooth="yes"/>
      <point x="212" y="1400" type="line"/>
    </contour>
    <contour>
      <point x="623" y="476" type="line"/>
      <point x="778" y="1364" type="line"/>
      <point x="812" y="1364" type="line" smooth="yes"/>
      <point x="832" y="1364"/>
      <point x="859" y="1355"/>
      <point x="875" y="1340"/>
      <point x="880" y="1318"/>
      <point x="878" y="1304" type="qcurve" smooth="yes"/>
      <point x="744" y="536" type="line"/>
      <point x="741" y="523"/>
      <point x="728" y="500"/>
      <point x="707" y="485"/>
      <point x="677" y="476"/>
      <point x="657" y="476" type="qcurve" smooth="yes"/>
    </contour>
  </outline>
  <guideline x="682.5" name="halfwidth" color="0.4,0.4,0.4,1"/>
</glyph>
<glyph name="R" format="2">
  <advance width="1537"/>
  <unicode hex="0052"/>
  <anchor x="769" y="-150" name="bottom"/>
  <anchor x="769" y="1550" name="top"/>
  <outline>
    <contour>
      <point x="-32" y="0" type="line"/>
      <point x="540" y="0" type="line"/>
      <point x="633" y="530" type="line"/>
      <point x="643" y="530" type="line"/>
      <point x="748" y="0" type="line"/>
      <point x="1370" y="0" type="line"/>
      <point x="1167" y="603" type="line"/>
      <point x="1167" y="603" type="line"/>
      <point x="1208" y="620"/>
      <point x="1276" y="671"/>
      <point x="1330" y="744"/>
      <point x="1369" y="844"/>
      <point x="1380" y="908" type="qcurve" smooth="yes"/>
      <point x="1403" y="1036" type="line" smooth="yes"/>
      <point x="1421" y="1137"/>
      <point x="1380" y="1275"/>
      <point x="1279" y="1362"/>
      <point x="1127" y="1400"/>
      <point x="1032" y="1400" type="qcurve" smooth="yes"/>
      <point x="212" y="1400" type="line"/>
    </contour>
    <contour>
      <point x="639" y="570" type="line"/>
      <point x="778" y="1364" type="line"/>
      <point x="812" y="1364" type="line" smooth="yes"/>
      <point x="832" y="1364"/>
      <point x="859" y="1355"/>
      <point x="875" y="1340"/>
      <point x="880" y="1318"/>
      <point x="878" y="1304" type="qcurve" smooth="yes"/>
      <point x="760" y="630" type="line" smooth="yes"/>
      <point x="758" y="617"/>
      <point x="745" y="594"/>
      <point x="723" y="579"/>
      <point x="693" y="570"/>
      <point x="673" y="570" type="qcurve" smooth="yes"/>
    </contour>
  </outline>
</glyph>
<glyph name="S" format="2">
  <advance width="1286"/>
  <unicode hex="0053"/>
  <anchor x="793" y="1560" name="top"/>
  <anchor x="492" y="-160" name="bottom"/>
  <outline>
    <contour>
      <point x="-8.56371" y="410" type="line"/>
      <point x="546.436" y="462" type="line"/>
      <point x="470.436" y="26" type="line"/>
      <point x="470.436" y="26"/>
      <point x="470.436" y="26"/>
      <point x="470.436" y="26"/>
      <point x="470.436" y="26"/>
      <point x="470.436" y="26" type="qcurve"/>
      <point x="576.436" y="26" type="line"/>
      <point x="576.436" y="26"/>
      <point x="576.436" y="26"/>
      <point x="576.436" y="26"/>
      <point x="576.436" y="26"/>
      <point x="576.436" y="26" type="qcurve"/>
      <point x="692.436" y="690" type="line"/>
      <point x="692.436" y="690"/>
      <point x="692.436" y="690"/>
      <point x="692.436" y="690"/>
      <point x="692.436" y="690"/>
      <point x="692.436" y="690" type="qcurve"/>
      <point x="468.436" y="690" type="line" smooth="yes"/>
      <point x="373.436" y="690"/>
      <point x="226.436" y="718"/>
      <point x="134.436" y="794"/>
      <point x="102.436" y="928"/>
      <point x="120.436" y="1034" type="qcurve" smooth="yes"/>
      <point x="128.436" y="1078" type="line" smooth="yes"/>
      <point x="146.436" y="1182"/>
      <point x="230.436" y="1311"/>
      <point x="353.436" y="1384"/>
      <point x="511.436" y="1410"/>
      <point x="602.436" y="1410" type="qcurve" smooth="yes"/>
      <point x="934.436" y="1410" type="line" smooth="yes"/>
      <point x="1026.44" y="1410"/>
      <point x="1172.44" y="1385"/>
      <point x="1267.44" y="1313"/>
      <point x="1304.44" y="1185"/>
      <point x="1286.44" y="1082" type="qcurve" smooth="yes"/>
      <point x="1273.44" y="1006" type="line"/>
      <point x="739.436" y="958" type="line"/>
      <point x="811.436" y="1374" type="line"/>
      <point x="811.436" y="1374"/>
      <point x="811.436" y="1374"/>
      <point x="811.436" y="1374"/>
      <point x="811.436" y="1374"/>
      <point x="811.436" y="1374" type="qcurve"/>
      <point x="705.436" y="1374" type="line"/>
      <point x="705.436" y="1374"/>
      <point x="705.436" y="1374"/>
      <point x="705.436" y="1374"/>
      <point x="705.436" y="1374"/>
      <point x="705.436" y="1374" type="qcurve"/>
      <point x="592.436" y="726" type="line"/>
      <point x="592.436" y="726"/>
      <point x="592.436" y="726"/>
      <point x="592.436" y="726"/>
      <point x="592.436" y="726"/>
      <point x="592.436" y="726" type="qcurve"/>
      <point x="832.436" y="726" type="line" smooth="yes"/>
      <point x="924.436" y="726"/>
      <point x="1071.44" y="701"/>
      <point x="1167.44" y="630"/>
      <point x="1205.44" y="502"/>
      <point x="1187.44" y="398" type="qcurve" smooth="yes"/>
      <point x="1176.44" y="334" type="line" smooth="yes"/>
      <point x="1157.44" y="228"/>
      <point x="1077.44" y="93"/>
      <point x="957.436" y="18"/>
      <point x="800.436" y="-10"/>
      <point x="704.436" y="-10" type="qcurve" smooth="yes"/>
      <point x="328.436" y="-10" type="line" smooth="yes"/>
      <point x="233.436" y="-10"/>
      <point x="86.4363" y="18"/>
      <point x="-7.56371" y="93"/>
      <point x="-40.5637" y="226"/>
      <point x="-21.5637" y="332" type="qcurve" smooth="yes"/>
    </contour>
  </outline>
</glyph>
<glyph name="U" format="2">
  <advance width="1388"/>
  <unicode hex="0055"/>
  <anchor x="845" y="1550" name="top"/>
  <anchor x="547" y="-150" name="bottom"/>
  <anchor x="594" y="0" name="ogonek"/>
  <anchor x="1432" y="1400" name="horn"/>
  <outline>
    <contour>
      <point x="204" y="1400" type="line"/>
      <point x="776" y="1400" type="line"/>
      <point x="537" y="26" type="line"/>
      <point x="537" y="26"/>
      <point x="537" y="26"/>
      <point x="537" y="26"/>
      <point x="537" y="26"/>
      <point x="537" y="26" type="qcurve"/>
      <point x="622" y="26" type="line"/>
      <point x="622" y="26"/>
      <point x="622" y="26"/>
      <point x="622" y="26"/>
      <point x="622" y="26"/>
      <point x="622" y="26" type="qcurve"/>
      <point x="861" y="1400" type="line"/>
      <point x="1433" y="1400" type="line"/>
      <point x="1247" y="333" type="line" smooth="yes"/>
      <point x="1229" y="227"/>
      <point x="1149" y="93"/>
      <point x="1029" y="18"/>
      <point x="871" y="-10"/>
      <point x="775" y="-10" type="qcurve" smooth="yes"/>
      <point x="368" y="-10" type="line" smooth="yes"/>
      <point x="273" y="-10"/>
      <point x="126" y="18"/>
      <point x="33" y="93"/>
      <point x="0" y="227"/>
      <point x="18" y="333" type="qcurve" smooth="yes"/>
    </contour>
  </outline>
</glyph>
<glyph name="V" format="2">
  <advance width="1194"/>
  <unicode hex="0056"/>
  <anchor x="831" y="1550" name="top"/>
  <anchor x="494" y="-150" name="bottom"/>
  <outline>
    <contour>
      <point x="117" y="1400" type="line"/>
      <point x="706" y="1400" type="line"/>
      <point x="852" y="484" type="line"/>
      <point x="1293" y="1400" type="line"/>
      <point x="1331" y="1400" type="line"/>
      <point x="657" y="0" type="line"/>
      <point x="383" y="0" type="line"/>
    </contour>
  </outline>
</glyph>
<glyph name="W" format="2">
  <advance width="1810"/>
  <unicode hex="0057"/>
  <anchor x="782" y="-150" name="bottom"/>
  <anchor x="1290" y="1550" name="top"/>
  <outline>
    <contour>
      <point x="116.858" y="1400" type="line"/>
      <point x="286.858" y="0" type="line"/>
      <point x="560.858" y="0" type="line"/>
      <point x="972.858" y="999" type="line"/>
      <point x="1094.86" y="0" type="line"/>
      <point x="1368.86" y="0" type="line"/>
      <point x="1946.86" y="1400" type="line"/>
      <point x="1909.86" y="1400" type="line"/>
      <point x="1526.86" y="468" type="line"/>
      <point x="1464.86" y="1400" type="line"/>
      <point x="1100.86" y="1400" type="line"/>
      <point x="718.858" y="467" type="line"/>
      <point x="648.858" y="1400" type="line"/>
    </contour>
  </outline>
</glyph>
<glyph name="X" format="2">
  <advance width="1347"/>
  <unicode hex="0058"/>
  <anchor x="826" y="1550" name="top"/>
  <anchor x="529" y="-150" name="bottom"/>
  <outline>
    <contour>
      <point x="-81.1422" y="0" type="line"/>
      <point x="-31.1422" y="0" type="line"/>
      <point x="474.858" y="532" type="line"/>
      <point x="675.858" y="0" type="line"/>
      <point x="1236.86" y="0" type="line"/>
      <point x="878.858" y="908" type="line"/>
      <point x="1332.86" y="1400" type="line"/>
      <point x="1283.86" y="1400" type="line"/>
      <point x="863.858" y="945" type="line"/>
      <point x="678.858" y="1400" type="line"/>
      <point x="116.858" y="1400" type="line"/>
      <point x="458.858" y="568" type="line"/>
    </contour>
  </outline>
</glyph>
<glyph name="Y" format="2">
  <advance width="1316"/>
  <unicode hex="0059"/>
  <anchor x="913" y="1550" name="top"/>
  <anchor x="515" y="-150" name="bottom"/>
  <outline>
    <contour>
      <point x="253.858" y="0" type="line"/>
      <point x="825.858" y="0" type="line"/>
      <point x="920.858" y="543" type="line"/>
      <point x="1452.86" y="1400" type="line"/>
      <point x="1410.86" y="1400" type="line"/>
      <point x="904.858" y="585" type="line"/>
      <point x="694.858" y="1400" type="line"/>
      <point x="116.858" y="1400" type="line"/>
      <point x="351.858" y="560" type="line"/>
    </contour>
  </outline>
  <guideline x="541" color="1,0,0,1"/>
</glyph>
<glyph name="Z" format="2">
  <advance width="1299"/>
  <unicode hex="005A"/>
  <anchor x="823" y="1550" name="top"/>
  <anchor x="522" y="-150" name="bottom"/>
  <outline>
    <contour>
      <point x="-59.8259" y="0" type="line"/>
      <point x="1104.17" y="0" type="line"/>
      <point x="1110.17" y="36" type="line"/>
      <point x="545.174" y="36" type="line"/>
      <point x="551.174" y="26" type="line"/>
      <point x="1335.17" y="1382" type="line"/>
      <point x="1338.17" y="1400" type="line"/>
      <point x="254.174" y="1400" type="line"/>
      <point x="248.174" y="1364" type="line"/>
      <point x="733.174" y="1364" type="line"/>
      <point x="727.174" y="1374" type="line"/>
      <point x="-56.8259" y="18" type="line"/>
    </contour>
  </outline>
</glyph>
<glyph name="bracketleft" format="2">
  <advance width="759.613"/>
  <unicode hex="005B"/>
  <outline>
    <contour>
      <point x="-77.5363" y="-256" type="line"/>
      <point x="220.464" y="1448" type="line"/>
      <point x="882.464" y="1448" type="line"/>
      <point x="876.464" y="1416" type="line"/>
      <point x="654.464" y="1416" type="line"/>
      <point x="368.464" y="-224" type="line"/>
      <point x="590.464" y="-224" type="line"/>
      <point x="584.464" y="-256" type="line"/>
    </contour>
  </outline>
</glyph>
<glyph name="backslash" format="2">
  <advance width="753"/>
  <unicode hex="005C"/>
  <outline>
    <contour>
      <point x="566" y="1430" type="line"/>
      <point x="170" y="1430" type="line"/>
      <point x="179" y="-100" type="line"/>
      <point x="575" y="-100" type="line"/>
    </contour>
  </outline>
</glyph>
<glyph name="asciicircum" format="2">
  <advance width="759"/>
  <unicode hex="005E"/>
  <outline>
    <contour>
      <point x="30" y="850" type="line"/>
      <point x="327" y="1448" type="line"/>
      <point x="645" y="1448" type="line"/>
      <point x="789" y="850" type="line"/>
      <point x="435" y="850" type="line"/>
      <point x="342" y="1411" type="line"/>
      <point x="68" y="850" type="line"/>
    </contour>
  </outline>
  <guideline y="850"/>
</glyph>
<glyph name="a" format="2">
  <advance width="1292" height="1448"/>
  <unicode hex="0061"/>
  <anchor x="720" y="1174" name="top"/>
  <anchor x="490" y="-162" name="bottom"/>
  <anchor x="597" y="0" name="ogonek"/>
  <outline>
    <contour>
      <point x="227.929" y="0" type="line" smooth="yes"/>
      <point x="166.929" y="0"/>
      <point x="62.9293" y="24"/>
      <point x="-7.0707" y="82"/>
      <point x="-37.0707" y="180"/>
      <point x="-24.0707" y="254" type="qcurve" smooth="yes"/>
      <point x="-12.0707" y="322" type="line" smooth="yes"/>
      <point x="0.9293" y="395"/>
      <point x="63.9293" y="489"/>
      <point x="153.929" y="544"/>
      <point x="265.929" y="566"/>
      <point x="326.929" y="566" type="qcurve" smooth="yes"/>
      <point x="658.929" y="566" type="line"/>
      <point x="733.929" y="998" type="line"/>
      <point x="733.929" y="998"/>
      <point x="733.929" y="998"/>
      <point x="733.929" y="998" type="qcurve"/>
      <point x="643.929" y="998" type="line"/>
      <point x="643.929" y="998"/>
      <point x="643.929" y="998"/>
      <point x="643.929" y="998" type="qcurve"/>
      <point x="585.929" y="664" type="line"/>
      <point x="97.9293" y="756" type="line"/>
      <point x="99.9293" y="770" type="line" smooth="yes"/>
      <point x="112.929" y="844"/>
      <point x="173.929" y="944"/>
      <point x="261.929" y="1004"/>
      <point x="375.929" y="1030"/>
      <point x="441.929" y="1030" type="qcurve" smooth="yes"/>
      <point x="967.929" y="1030" type="line" smooth="yes"/>
      <point x="1033.93" y="1030"/>
      <point x="1138.93" y="1007"/>
      <point x="1205.93" y="945"/>
      <point x="1230.93" y="838"/>
      <point x="1215.93" y="754" type="qcurve" smooth="yes"/>
      <point x="1083.93" y="0" type="line"/>
      <point x="559.929" y="0" type="line"/>
      <point x="564.929" y="28" type="line"/>
      <point x="558.929" y="21"/>
      <point x="541.929" y="11"/>
      <point x="520.929" y="4"/>
      <point x="497.929" y="0"/>
      <point x="483.929" y="0" type="qcurve" smooth="yes"/>
    </contour>
    <contour>
      <point x="461.929" y="32" type="line"/>
      <point x="461.929" y="32"/>
      <point x="461.929" y="32"/>
      <point x="461.929" y="32" type="qcurve"/>
      <point x="565.929" y="32" type="line"/>
      <point x="652.929" y="534" type="line"/>
      <point x="548.929" y="534" type="line"/>
      <point x="548.929" y="534"/>
      <point x="548.929" y="534"/>
      <point x="548.929" y="534" type="qcurve"/>
    </contour>
  </outline>
  <guideline x="576" y="0" angle="260.102" color="1,0,0,1"/>
</glyph>
<glyph name="b" format="2">
  <advance width="1291" height="-1448"/>
  <unicode hex="0062"/>
  <anchor x="812" y="1598" name="top"/>
  <anchor x="505" y="-162" name="bottom"/>
  <outline>
    <contour>
      <point x="-40" y="0" type="line"/>
      <point x="484" y="0" type="line"/>
      <point x="489" y="28" type="line"/>
      <point x="497" y="14"/>
      <point x="533" y="0"/>
      <point x="560" y="0" type="qcurve" smooth="yes"/>
      <point x="802" y="0" type="line" smooth="yes"/>
      <point x="882" y="0"/>
      <point x="1003" y="31"/>
      <point x="1090" y="95"/>
      <point x="1142" y="195"/>
      <point x="1154" y="264" type="qcurve" smooth="yes"/>
      <point x="1243" y="776" type="line" smooth="yes"/>
      <point x="1255" y="841"/>
      <point x="1236" y="937"/>
      <point x="1172" y="1000"/>
      <point x="1062" y="1030"/>
      <point x="982" y="1030" type="qcurve" smooth="yes"/>
      <point x="740" y="1030" type="line" smooth="yes"/>
      <point x="708" y="1030"/>
      <point x="668" y="1018"/>
      <point x="660" y="1006" type="qcurve"/>
      <point x="741" y="1472" type="line"/>
      <point x="217" y="1472" type="line"/>
    </contour>
    <contour>
      <point x="490" y="32" type="line"/>
      <point x="658" y="998" type="line"/>
      <point x="758" y="998" type="line"/>
      <point x="758" y="998"/>
      <point x="758" y="998"/>
      <point x="758" y="998" type="qcurve"/>
      <point x="590" y="32" type="line"/>
      <point x="590" y="32"/>
      <point x="590" y="32"/>
      <point x="590" y="32" type="qcurve"/>
    </contour>
  </outline>
</glyph>
<glyph name="c" format="2">
  <advance width="1262"/>
  <unicode hex="0063"/>
  <anchor x="724" y="1174" name="top"/>
  <anchor x="493" y="-150" name="bottom"/>
  <outline>
    <contour>
      <point x="-11.086" y="264" type="line"/>
      <point x="76.914" y="770" type="line" smooth="yes"/>
      <point x="88.914" y="840"/>
      <point x="142.914" y="938"/>
      <point x="232.914" y="1001"/>
      <point x="361.914" y="1030"/>
      <point x="448.914" y="1030" type="qcurve" smooth="yes"/>
      <point x="948.914" y="1030" type="line" smooth="yes"/>
      <point x="1035.91" y="1030"/>
      <point x="1152.91" y="1002"/>
      <point x="1219.91" y="940"/>
      <point x="1237.91" y="843"/>
      <point x="1225.91" y="774" type="qcurve" smooth="yes"/>
      <point x="1203.91" y="650" type="line"/>
      <point x="662.914" y="552" type="line"/>
      <point x="740.914" y="998" type="line"/>
      <point x="740.914" y="998"/>
      <point x="740.914" y="998"/>
      <point x="740.914" y="998" type="qcurve"/>
      <point x="640.914" y="998" type="line"/>
      <point x="640.914" y="998"/>
      <point x="640.914" y="998"/>
      <point x="640.914" y="998" type="qcurve"/>
      <point x="471.914" y="26" type="line"/>
      <point x="471.914" y="26"/>
      <point x="471.914" y="26"/>
      <point x="471.914" y="26" type="qcurve"/>
      <point x="575.914" y="26" type="line"/>
      <point x="575.914" y="26"/>
      <point x="575.914" y="26"/>
      <point x="575.914" y="26" type="qcurve"/>
      <point x="653.914" y="474" type="line"/>
      <point x="1158.91" y="366" type="line"/>
      <point x="1140.91" y="264" type="line" smooth="yes"/>
      <point x="1127.91" y="191"/>
      <point x="1075.91" y="89"/>
      <point x="986.914" y="24"/>
      <point x="858.914" y="-6"/>
      <point x="769.914" y="-6" type="qcurve" smooth="yes"/>
      <point x="265.914" y="-6" type="line" smooth="yes"/>
      <point x="177.914" y="-6"/>
      <point x="58.914" y="24"/>
      <point x="-7.086" y="89"/>
      <point x="-24.086" y="191"/>
      <point x="-11.086" y="264" type="qcurve"/>
    </contour>
  </outline>
</glyph>
<glyph name="d" format="2">
  <advance width="1291" height="1448"/>
  <unicode hex="0064"/>
  <anchor x="796" y="1598" name="top"/>
  <anchor x="489" y="-162" name="bottom"/>
  <anchor x="1348" y="1472" name="right"/>
  <outline>
    <contour>
      <point x="-11.028" y="264" type="line"/>
      <point x="77.972" y="776" type="line"/>
      <point x="89.972" y="841"/>
      <point x="142.972" y="937"/>
      <point x="228.972" y="1000"/>
      <point x="349.972" y="1030"/>
      <point x="428.972" y="1030" type="qcurve" smooth="yes"/>
      <point x="670.972" y="1030" type="line" smooth="yes"/>
      <point x="702.972" y="1030"/>
      <point x="737.972" y="1018"/>
      <point x="742.972" y="1006" type="qcurve"/>
      <point x="823.972" y="1472" type="line"/>
      <point x="1347.97" y="1472" type="line"/>
      <point x="1090.97" y="0" type="line"/>
      <point x="566.972" y="0" type="line"/>
      <point x="571.972" y="28" type="line"/>
      <point x="558.972" y="14"/>
      <point x="517.972" y="0"/>
      <point x="490.972" y="0" type="qcurve" smooth="yes"/>
      <point x="248.972" y="0" type="line" smooth="yes"/>
      <point x="168.972" y="0"/>
      <point x="57.972" y="31"/>
      <point x="-5.02804" y="95"/>
      <point x="-23.028" y="195"/>
      <point x="-11.028" y="264" type="qcurve"/>
    </contour>
    <contour>
      <point x="740.972" y="998" type="line"/>
      <point x="640.972" y="998" type="line"/>
      <point x="640.972" y="998"/>
      <point x="640.972" y="998"/>
      <point x="640.972" y="998" type="qcurve"/>
      <point x="472.972" y="32" type="line"/>
      <point x="472.972" y="32"/>
      <point x="472.972" y="32"/>
      <point x="472.972" y="32" type="qcurve"/>
      <point x="572.972" y="32" type="line"/>
    </contour>
  </outline>
</glyph>
<glyph name="e" format="2">
  <advance width="1274" height="1448"/>
  <unicode hex="0065"/>
  <anchor x="722" y="1174" name="top"/>
  <anchor x="491" y="-150" name="bottom"/>
  <anchor x="673" y="0" name="ogonek"/>
  <outline>
    <contour>
      <point x="-4.13908" y="304" type="line"/>
      <point x="69.8609" y="730" type="line" smooth="yes"/>
      <point x="83.8609" y="808"/>
      <point x="147.861" y="921"/>
      <point x="255.861" y="995"/>
      <point x="413.861" y="1030"/>
      <point x="520.861" y="1030" type="qcurve" smooth="yes"/>
      <point x="852.861" y="1030" type="line" smooth="yes"/>
      <point x="960.861" y="1030"/>
      <point x="1111.86" y="995"/>
      <point x="1201.86" y="922"/>
      <point x="1231.86" y="809"/>
      <point x="1217.86" y="730" type="qcurve" smooth="yes"/>
      <point x="1180.86" y="516" type="line"/>
      <point x="556.861" y="516" type="line"/>
      <point x="471.861" y="26" type="line"/>
      <point x="471.861" y="26"/>
      <point x="471.861" y="26"/>
      <point x="471.861" y="26" type="qcurve"/>
      <point x="571.861" y="26" type="line"/>
      <point x="571.861" y="26"/>
      <point x="571.861" y="26"/>
      <point x="571.861" y="26" type="qcurve"/>
      <point x="630.861" y="368" type="line"/>
      <point x="1137.86" y="270" type="line"/>
      <point x="1135.86" y="258" type="line" smooth="yes"/>
      <point x="1122.86" y="182"/>
      <point x="1055.86" y="81"/>
      <point x="941.861" y="20"/>
      <point x="779.861" y="-6"/>
      <point x="671.861" y="-6" type="qcurve" smooth="yes"/>
      <point x="339.861" y="-6" type="line" smooth="yes"/>
      <point x="231.861" y="-6"/>
      <point x="86.8609" y="30"/>
      <point x="4.86092" y="106"/>
      <point x="-18.1391" y="223"/>
      <point x="-4.13908" y="304" type="qcurve"/>
    </contour>
    <contour>
      <point x="562.861" y="548" type="line"/>
      <point x="662.861" y="548" type="line"/>
      <point x="740.861" y="998" type="line"/>
      <point x="740.861" y="998"/>
      <point x="740.861" y="998"/>
      <point x="740.861" y="998" type="qcurve"/>
      <point x="640.861" y="998" type="line"/>
      <point x="640.861" y="998"/>
      <point x="640.861" y="998"/>
      <point x="640.861" y="998" type="qcurve"/>
    </contour>
  </outline>
  <guideline y="-1030" color="1,0,0,1"/>
</glyph>
<glyph name="f" format="2">
  <advance width="861"/>
  <unicode hex="0066"/>
  <outline>
    <contour>
      <point x="139" y="1024" type="line"/>
      <point x="165" y="1176" type="line" smooth="yes"/>
      <point x="179" y="1254"/>
      <point x="239" y="1366"/>
      <point x="330" y="1438"/>
      <point x="454" y="1472"/>
      <point x="531" y="1472" type="qcurve" smooth="yes"/>
      <point x="1008" y="1472" type="line"/>
      <point x="992" y="1440" type="line"/>
      <point x="735" y="1440" type="line"/>
      <point x="735" y="1440"/>
      <point x="735" y="1440"/>
      <point x="735" y="1440" type="qcurve"/>
      <point x="663" y="1024" type="line"/>
      <point x="900" y="1024" type="line"/>
      <point x="894" y="992" type="line"/>
      <point x="657" y="992" type="line"/>
      <point x="484" y="0" type="line"/>
      <point x="-40" y="0" type="line"/>
      <point x="133" y="992" type="line"/>
      <point x="85" y="992" type="line"/>
      <point x="91" y="1024" type="line"/>
    </contour>
  </outline>
</glyph>
<glyph name="g" format="2">
  <advance width="1291" height="1448"/>
  <unicode hex="0067"/>
  <anchor x="641" y="1178" name="top"/>
  <anchor x="641" y="-554" name="bottom"/>
  <outline>
    <contour>
      <point x="472.914" y="32" type="line"/>
      <point x="639.914" y="992" type="line"/>
      <point x="639.914" y="992"/>
      <point x="639.914" y="992"/>
      <point x="639.914" y="992" type="qcurve"/>
      <point x="739.914" y="992" type="line"/>
      <point x="572.914" y="32" type="line"/>
      <point x="472.914" y="32" type="line"/>
      <point x="472.914" y="32"/>
      <point x="472.914" y="32"/>
      <point x="472.914" y="32" type="qcurve"/>
    </contour>
    <contour>
      <point x="-48.086" y="-404" type="line"/>
      <point x="759.914" y="-404" type="line" smooth="yes"/>
      <point x="818.914" y="-404"/>
      <point x="922.914" y="-357"/>
      <point x="1005.91" y="-272"/>
      <point x="1063.91" y="-152"/>
      <point x="1076.91" y="-78" type="qcurve" smooth="yes"/>
      <point x="1269.91" y="1024" type="line"/>
      <point x="745.914" y="1024" type="line"/>
      <point x="741.914" y="1000" type="line"/>
      <point x="736.914" y="1012"/>
      <point x="701.914" y="1024"/>
      <point x="669.914" y="1024" type="qcurve" smooth="yes"/>
      <point x="427.914" y="1024" type="line" smooth="yes"/>
      <point x="348.914" y="1024"/>
      <point x="227.914" y="994"/>
      <point x="141.914" y="931"/>
      <point x="88.914" y="835"/>
      <point x="76.914" y="770" type="qcurve"/>
      <point x="-11.086" y="264" type="line" smooth="yes"/>
      <point x="-23.086" y="195"/>
      <point x="-5.086" y="95"/>
      <point x="57.914" y="31"/>
      <point x="168.914" y="0"/>
      <point x="248.914" y="0" type="qcurve" smooth="yes"/>
      <point x="490.914" y="0" type="line" smooth="yes"/>
      <point x="517.914" y="0"/>
      <point x="558.914" y="14"/>
      <point x="571.914" y="28" type="qcurve"/>
      <point x="501.914" y="-372" type="line"/>
      <point x="501.914" y="-372"/>
      <point x="501.914" y="-372"/>
      <point x="501.914" y="-372" type="qcurve"/>
      <point x="-52.086" y="-372" type="line"/>
    </contour>
  </outline>
</glyph>
<glyph name="h" format="2">
  <advance width="1300" height="1448"/>
  <unicode hex="0068"/>
  <anchor x="505" y="1622" name="top"/>
  <anchor x="508" y="-150" name="bottom"/>
  <anchor x="-51" y="512" name="left"/>
  <outline>
    <contour>
      <point x="-40.3045" y="0" type="line"/>
      <point x="216.696" y="1472" type="line"/>
      <point x="740.696" y="1472" type="line"/>
      <point x="657.696" y="996" type="line"/>
      <point x="670.696" y="1010"/>
      <point x="711.696" y="1024"/>
      <point x="738.696" y="1024" type="qcurve" smooth="yes"/>
      <point x="920.696" y="1024" type="line" smooth="yes"/>
      <point x="1018.7" y="1024"/>
      <point x="1150.7" y="988"/>
      <point x="1225.7" y="914"/>
      <point x="1247.7" y="801"/>
      <point x="1233.7" y="724" type="qcurve" smooth="yes"/>
      <point x="1107.7" y="0" type="line"/>
      <point x="583.696" y="0" type="line"/>
      <point x="756.696" y="992" type="line"/>
      <point x="756.696" y="992"/>
      <point x="756.696" y="992"/>
      <point x="756.696" y="992" type="qcurve"/>
      <point x="656.696" y="992" type="line"/>
      <point x="483.696" y="0" type="line"/>
    </contour>
  </outline>
  <guideline y="988"/>
  <guideline y="870"/>
</glyph>
<glyph name="k" format="2">
  <advance width="1398" height="1448"/>
  <unicode hex="006B"/>
  <anchor x="301" y="1598" name="top"/>
  <anchor x="556" y="-150" name="bottom"/>
  <anchor x="-12" y="736" name="left"/>
  <outline>
    <contour>
      <point x="-40.3045" y="0" type="line"/>
      <point x="483.696" y="0" type="line"/>
      <point x="569.696" y="491" type="line"/>
      <point x="564.696" y="491" type="line"/>
      <point x="679.696" y="0" type="line"/>
      <point x="1277.7" y="0" type="line"/>
      <point x="1024.7" y="846" type="line"/>
      <point x="1016.7" y="829" type="line"/>
      <point x="1383.7" y="1024" type="line"/>
      <point x="1317.7" y="1024" type="line"/>
      <point x="584.696" y="636" type="line"/>
      <point x="593.696" y="630" type="line"/>
      <point x="740.696" y="1472" type="line"/>
      <point x="216.696" y="1472" type="line"/>
    </contour>
  </outline>
</glyph>
<glyph name="m" format="2">
  <advance width="1902.7" height="1448"/>
  <unicode hex="006D"/>
  <anchor x="951.35" y="1174" name="top"/>
  <anchor x="951.35" y="-150" name="bottom"/>
  <anchor x="-52.2989" y="512" name="left"/>
  <outline>
    <contour>
      <point x="-41" y="0" type="line"/>
      <point x="483" y="0" type="line"/>
      <point x="656" y="992" type="line"/>
      <point x="746" y="992" type="line"/>
      <point x="573" y="0" type="line"/>
      <point x="1097" y="0" type="line"/>
      <point x="1270" y="992" type="line"/>
      <point x="1360" y="992" type="line"/>
      <point x="1360" y="992"/>
      <point x="1360" y="992"/>
      <point x="1360" y="992" type="qcurve"/>
      <point x="1187" y="0" type="line"/>
      <point x="1711" y="0" type="line"/>
      <point x="1837" y="724" type="line" smooth="yes"/>
      <point x="1850" y="801"/>
      <point x="1829" y="914"/>
      <point x="1754" y="988"/>
      <point x="1621" y="1024"/>
      <point x="1524" y="1024" type="qcurve" smooth="yes"/>
      <point x="1264" y="1024" type="line" smooth="yes"/>
      <point x="1251" y="1024"/>
      <point x="1228" y="1021"/>
      <point x="1208" y="1014"/>
      <point x="1191" y="1005"/>
      <point x="1185" y="999" type="qcurve"/>
      <point x="1167" y="1005"/>
      <point x="1125" y="1015"/>
      <point x="1079" y="1021"/>
      <point x="1027" y="1024"/>
      <point x="998" y="1024" type="qcurve" smooth="yes"/>
      <point x="738" y="1024" type="line" smooth="yes"/>
      <point x="711" y="1024"/>
      <point x="670" y="1010"/>
      <point x="657" y="996" type="qcurve"/>
      <point x="662" y="1024" type="line"/>
      <point x="138" y="1024" type="line"/>
    </contour>
  </outline>
  <guideline angle="90" x="1598.7" y="0"/>
</glyph>
<glyph name="q" format="2">
  <advance width="1291.38" height="1448"/>
  <unicode hex="0071"/>
  <anchor x="796" y="1598" name="top"/>
  <anchor x="489" y="-162" name="bottom"/>
  <outline>
    <contour>
      <point x="-12.086" y="260" type="line"/>
      <point x="76.914" y="770" type="line" smooth="yes"/>
      <point x="88.914" y="835"/>
      <point x="141.914" y="931"/>
      <point x="227.914" y="994"/>
      <point x="348.914" y="1024"/>
      <point x="427.914" y="1024" type="qcurve" smooth="yes"/>
      <point x="669.914" y="1024" type="line" smooth="yes"/>
      <point x="701.914" y="1024"/>
      <point x="736.914" y="1012"/>
      <point x="741.914" y="1000" type="qcurve"/>
      <point x="745.914" y="1024" type="line"/>
      <point x="1269.91" y="1024" type="line"/>
      <point x="1015.91" y="-428" type="line"/>
      <point x="491.914" y="-428" type="line"/>
      <point x="570.914" y="24" type="line"/>
      <point x="557.914" y="10"/>
      <point x="516.914" y="-4"/>
      <point x="489.914" y="-4" type="qcurve" smooth="yes"/>
      <point x="247.914" y="-4" type="line" smooth="yes"/>
      <point x="167.914" y="-4"/>
      <point x="56.914" y="27"/>
      <point x="-6.086" y="91"/>
      <point x="-24.086" y="191"/>
      <point x="-12.086" y="260" type="qcurve"/>
    </contour>
    <contour>
      <point x="471.914" y="28" type="line"/>
      <point x="471.914" y="28"/>
      <point x="471.914" y="28"/>
      <point x="471.914" y="28" type="qcurve"/>
      <point x="571.914" y="28" type="line"/>
      <point x="739.914" y="992" type="line"/>
      <point x="639.914" y="992" type="line"/>
      <point x="639.914" y="992"/>
      <point x="639.914" y="992"/>
      <point x="639.914" y="992" type="qcurve"/>
    </contour>
  </outline>
</glyph>
<glyph name="r" format="2">
  <advance width="1239" height="1448"/>
  <unicode hex="0072"/>
  <anchor x="733" y="1174" name="top"/>
  <anchor x="195" y="-150" name="bottom"/>
  <anchor x="-52" y="512" name="left"/>
  <outline>
    <contour>
      <point x="-41.2989" y="0" type="line"/>
      <point x="137.701" y="1024" type="line"/>
      <point x="661.701" y="1024" type="line"/>
      <point x="656.701" y="996" type="line"/>
      <point x="669.701" y="1010"/>
      <point x="710.701" y="1024"/>
      <point x="737.701" y="1024" type="qcurve" smooth="yes"/>
      <point x="909.701" y="1024" type="line" smooth="yes"/>
      <point x="1007.7" y="1024"/>
      <point x="1139.7" y="988"/>
      <point x="1214.7" y="914"/>
      <point x="1236.7" y="801"/>
      <point x="1222.7" y="724" type="qcurve" smooth="yes"/>
      <point x="1208.7" y="644" type="line"/>
      <point x="667.701" y="546" type="line"/>
      <point x="745.701" y="992" type="line"/>
      <point x="745.701" y="992"/>
      <point x="745.701" y="992"/>
      <point x="745.701" y="992" type="qcurve"/>
      <point x="655.701" y="992" type="line"/>
      <point x="482.701" y="0" type="line"/>
    </contour>
  </outline>
  <guideline y="988"/>
  <guideline y="870"/>
</glyph>
<glyph name="t" format="2">
  <advance width="836"/>
  <unicode hex="0074"/>
  <anchor x="489" y="1394" name="top"/>
  <anchor x="219" y="-156" name="bottom"/>
  <anchor x="764" y="1400" name="right"/>
  <outline>
    <contour>
      <point x="300.773" y="-6" type="line" smooth="yes"/>
      <point x="218.773" y="-6"/>
      <point x="106.773" y="22"/>
      <point x="44.7733" y="84"/>
      <point x="27.7733" y="181"/>
      <point x="39.7733" y="250" type="qcurve" smooth="yes"/>
      <point x="168.773" y="992" type="line"/>
      <point x="85.7733" y="992" type="line"/>
      <point x="91.7733" y="1024" type="line"/>
      <point x="174.773" y="1024" type="line"/>
      <point x="212.773" y="1244" type="line"/>
      <point x="736.773" y="1244" type="line"/>
      <point x="698.773" y="1024" type="line"/>
      <point x="867.773" y="1024" type="line"/>
      <point x="861.773" y="992" type="line"/>
      <point x="692.773" y="992" type="line"/>
      <point x="524.773" y="26" type="line"/>
      <point x="524.773" y="26"/>
      <point x="524.773" y="26"/>
      <point x="524.773" y="26" type="qcurve"/>
      <point x="673.773" y="26" type="line"/>
      <point x="657.773" y="-6" type="line"/>
    </contour>
  </outline>
</glyph>
<glyph name="u" format="2">
  <advance width="1282.73"/>
  <unicode hex="0075"/>
  <anchor x="726" y="1174" name="top"/>
  <anchor x="495" y="-150" name="bottom"/>
  <anchor x="540" y="0" name="ogonek"/>
  <anchor x="1270" y="1024" name="horn"/>
  <outline>
    <contour>
      <point x="-13.2989" y="204" type="line"/>
      <point x="129.701" y="1024" type="line"/>
      <point x="653.701" y="1024" type="line"/>
      <point x="480.701" y="32" type="line"/>
      <point x="480.701" y="32"/>
      <point x="480.701" y="32"/>
      <point x="480.701" y="32" type="qcurve"/>
      <point x="572.701" y="32" type="line"/>
      <point x="572.701" y="32"/>
      <point x="572.701" y="32"/>
      <point x="572.701" y="32" type="qcurve"/>
      <point x="745.701" y="1024" type="line"/>
      <point x="1269.7" y="1024" type="line"/>
      <point x="1126.7" y="204" type="line" smooth="yes"/>
      <point x="1115.7" y="141"/>
      <point x="1067.7" y="62"/>
      <point x="995.701" y="17"/>
      <point x="901.701" y="0"/>
      <point x="844.701" y="0" type="qcurve" smooth="yes"/>
      <point x="194.701" y="0" type="line" smooth="yes"/>
      <point x="137.701" y="0"/>
      <point x="49.7011" y="17"/>
      <point x="-5.2989" y="62"/>
      <point x="-24.2989" y="141"/>
      <point x="-13.2989" y="204" type="qcurve"/>
    </contour>
  </outline>
</glyph>
<glyph name="v" format="2">
  <advance width="1061"/>
  <unicode hex="0076"/>
  <anchor x="617" y="1174" name="top"/>
  <anchor x="386" y="-150" name="bottom"/>
  <outline>
    <contour>
      <point x="288" y="0" type="line"/>
      <point x="555" y="0" type="line"/>
      <point x="1121" y="1024" type="line"/>
      <point x="1084" y="1024" type="line"/>
      <point x="721" y="365" type="line"/>
      <point x="594" y="1024" type="line"/>
      <point x="61" y="1024" type="line"/>
    </contour>
  </outline>
</glyph>
<glyph name="w" format="2">
  <advance width="1755"/>
  <unicode hex="0077"/>
  <anchor x="1166.56" y="1174" name="top"/>
  <anchor x="735.559" y="-150" name="bottom"/>
  <outline>
    <contour>
      <point x="163.559" y="0" type="line"/>
      <point x="562.559" y="0" type="line"/>
      <point x="898.559" y="750" type="line"/>
      <point x="962.559" y="0" type="line"/>
      <point x="1357.56" y="0" type="line"/>
      <point x="1815.56" y="1024" type="line"/>
      <point x="1780.56" y="1024" type="line"/>
      <point x="1452.56" y="291" type="line"/>
      <point x="1390.56" y="1024" type="line"/>
      <point x="985.559" y="1024" type="line"/>
      <point x="653.559" y="281" type="line"/>
      <point x="589.559" y="1024" type="line"/>
      <point x="60.5588" y="1024" type="line"/>
    </contour>
  </outline>
</glyph>
<glyph name="x" format="2">
  <advance width="1207.56"/>
  <unicode hex="0078"/>
  <anchor x="689.559" y="1174" name="top"/>
  <anchor x="458.559" y="-150" name="bottom"/>
  <outline>
    <contour>
      <point x="-88.4412" y="0" type="line"/>
      <point x="-40.4412" y="0" type="line"/>
      <point x="358.559" y="368" type="line"/>
      <point x="525.559" y="0" type="line"/>
      <point x="1087.56" y="0" type="line"/>
      <point x="773.559" y="691" type="line"/>
      <point x="1128.56" y="1024" type="line"/>
      <point x="1080.56" y="1024" type="line"/>
      <point x="759.559" y="722" type="line"/>
      <point x="622.559" y="1024" type="line"/>
      <point x="60.5588" y="1024" type="line"/>
      <point x="343.559" y="400" type="line"/>
    </contour>
  </outline>
</glyph>
<glyph name="y" format="2">
  <advance width="1060"/>
  <unicode hex="0079"/>
  <anchor x="616.559" y="1174" name="top"/>
  <anchor x="734.559" y="-110" name="bottom"/>
  <outline>
    <contour>
      <point x="-179.441" y="-428" type="line"/>
      <point x="228.559" y="-428" type="line" smooth="yes"/>
      <point x="261.559" y="-428"/>
      <point x="304.559" y="-413"/>
      <point x="339.559" y="-382"/>
      <point x="370.559" y="-332"/>
      <point x="389.559" y="-296" type="qcurve"/>
      <point x="1120.56" y="1024" type="line"/>
      <point x="1083.56" y="1024" type="line"/>
      <point x="765.559" y="451" type="line"/>
      <point x="596.559" y="1024" type="line"/>
      <point x="60.5588" y="1024" type="line"/>
      <point x="423.559" y="-167" type="line"/>
      <point x="347.559" y="-304" type="line" smooth="yes"/>
      <point x="333.559" y="-329"/>
      <point x="311.559" y="-364"/>
      <point x="286.559" y="-386"/>
      <point x="254.559" y="-396"/>
      <point x="230.559" y="-396" type="qcurve" smooth="yes"/>
      <point x="-180.441" y="-396" type="line"/>
    </contour>
  </outline>
</glyph>
<glyph name="z" format="2">
  <advance width="1099.1"/>
  <unicode hex="007A"/>
  <anchor x="633.779" y="1174" name="top"/>
  <anchor x="402.779" y="-150" name="bottom"/>
  <outline>
    <contour>
      <point x="-89.255" y="0" type="line"/>
      <point x="946.745" y="0" type="line"/>
      <point x="952.745" y="32" type="line"/>
      <point x="487.745" y="32" type="line"/>
      <point x="493.745" y="22" type="line"/>
      <point x="1112.74" y="1006" type="line"/>
      <point x="1115.74" y="1024" type="line"/>
      <point x="140.745" y="1024" type="line"/>
      <point x="134.745" y="992" type="line"/>
      <point x="542.745" y="992" type="line"/>
      <point x="536.745" y="1002" type="line"/>
      <point x="-86.255" y="18" type="line"/>
    </contour>
  </outline>
</glyph>
<glyph name="braceleft" format="2">
  <advance width="875"/>
  <unicode hex="007B"/>
  <outline>
    <contour>
      <point x="116" y="18" type="line"/>
      <point x="184" y="403" type="line" smooth="yes"/>
      <point x="191" y="444"/>
      <point x="183" y="510"/>
      <point x="147" y="556"/>
      <point x="78" y="581"/>
      <point x="25" y="581" type="qcurve"/>
      <point x="30" y="613" type="line"/>
      <point x="83" y="613"/>
      <point x="161" y="638"/>
      <point x="213" y="685"/>
      <point x="244" y="751"/>
      <point x="251" y="791" type="qcurve" smooth="yes"/>
      <point x="316" y="1164" type="line" smooth="yes"/>
      <point x="328" y="1232"/>
      <point x="389" y="1337"/>
      <point x="480" y="1410"/>
      <point x="597" y="1448"/>
      <point x="664" y="1448" type="qcurve" smooth="yes"/>
      <point x="997" y="1448" type="line"/>
      <point x="991" y="1416" type="line"/>
      <point x="922" y="1416" type="line" smooth="yes"/>
      <point x="889" y="1416"/>
      <point x="841" y="1403"/>
      <point x="807" y="1375"/>
      <point x="786" y="1333"/>
      <point x="781" y="1304" type="qcurve" smooth="yes"/>
      <point x="706" y="877" type="line" smooth="yes"/>
      <point x="687" y="766"/>
      <point x="559" y="624"/>
      <point x="458" y="597" type="qcurve"/>
      <point x="503" y="584"/>
      <point x="569" y="534"/>
      <point x="608" y="464"/>
      <point x="618" y="373"/>
      <point x="609" y="317" type="qcurve" smooth="yes"/>
      <point x="534" y="-112" type="line" smooth="yes"/>
      <point x="529" y="-141"/>
      <point x="535" y="-183"/>
      <point x="559" y="-211"/>
      <point x="603" y="-224"/>
      <point x="636" y="-224" type="qcurve" smooth="yes"/>
      <point x="705" y="-224" type="line"/>
      <point x="700" y="-256" type="line"/>
      <point x="367" y="-256" type="line" smooth="yes"/>
      <point x="300" y="-256"/>
      <point x="196" y="-218"/>
      <point x="130" y="-147"/>
      <point x="105" y="-46"/>
      <point x="116" y="18" type="qcurve"/>
    </contour>
  </outline>
</glyph>
<glyph name="bar" format="2">
  <advance width="576.796"/>
  <unicode hex="007C"/>
  <outline>
    <contour>
      <point x="233" y="1520" type="line"/>
      <point x="633" y="1520" type="line"/>
      <point x="284" y="-480" type="line"/>
      <point x="-116" y="-480" type="line"/>
    </contour>
  </outline>
</glyph>
<glyph name="asciitilde" format="2">
  <advance width="673"/>
  <unicode hex="007E"/>
  <outline>
    <contour>
      <point x="-35" y="425" type="line"/>
      <point x="-19" y="477"/>
      <point x="9" y="569"/>
      <point x="39" y="645"/>
      <point x="71" y="705"/>
      <point x="112" y="746"/>
      <point x="162" y="768"/>
      <point x="194" y="768" type="qcurve" smooth="yes"/>
      <point x="226" y="768"/>
      <point x="288" y="755"/>
      <point x="349" y="734"/>
      <point x="407" y="711"/>
      <point x="465" y="690"/>
      <point x="521" y="677"/>
      <point x="548" y="677" type="qcurve" smooth="yes"/>
      <point x="565" y="677"/>
      <point x="594" y="686"/>
      <point x="617" y="705"/>
      <point x="636" y="735"/>
      <point x="642" y="756" type="qcurve"/>
      <point x="676" y="750" type="line"/>
      <point x="661" y="702"/>
      <point x="633" y="613"/>
      <point x="604" y="537"/>
      <point x="570" y="475"/>
      <point x="529" y="431"/>
      <point x="479" y="407"/>
      <point x="447" y="407" type="qcurve" smooth="yes"/>
      <point x="415" y="407"/>
      <point x="353" y="420"/>
      <point x="293" y="441"/>
      <point x="234" y="464"/>
      <point x="176" y="485"/>
      <point x="120" y="498"/>
      <point x="93" y="498" type="qcurve" smooth="yes"/>
      <point x="76" y="498"/>
      <point x="47" y="489"/>
      <point x="24" y="470"/>
      <point x="5" y="440"/>
      <point x="-1" y="419" type="qcurve"/>
    </contour>
  </outline>
</glyph>
<glyph name="cent" format="2">
  <advance width="1386"/>
  <unicode hex="00A2"/>
  <outline>
    <contour>
      <point x="529" y="-100" type="line"/>
      <point x="591" y="-100" type="line"/>
      <point x="633" y="144" type="line"/>
      <point x="919" y="144" type="line" smooth="yes"/>
      <point x="1008" y="144"/>
      <point x="1136" y="174"/>
      <point x="1225" y="239"/>
      <point x="1278" y="341"/>
      <point x="1290" y="414" type="qcurve" smooth="yes"/>
      <point x="1308" y="516" type="line"/>
      <point x="803" y="624" type="line"/>
      <point x="725" y="176" type="line"/>
      <point x="725" y="176"/>
      <point x="725" y="176"/>
      <point x="725" y="176" type="qcurve"/>
      <point x="639" y="176" type="line"/>
      <point x="808" y="1148" type="line"/>
      <point x="890" y="1148" type="line"/>
      <point x="890" y="1148"/>
      <point x="890" y="1148"/>
      <point x="890" y="1148" type="qcurve"/>
      <point x="813" y="702" type="line"/>
      <point x="1354" y="800" type="line"/>
      <point x="1375" y="924" type="line" smooth="yes"/>
      <point x="1387" y="993"/>
      <point x="1369" y="1090"/>
      <point x="1303" y="1152"/>
      <point x="1185" y="1180"/>
      <point x="1098" y="1180" type="qcurve" smooth="yes"/>
      <point x="814" y="1180" type="line"/>
      <point x="852" y="1400" type="line"/>
      <point x="790" y="1400" type="line"/>
      <point x="752" y="1180" type="line"/>
      <point x="474" y="1180" type="line" smooth="yes"/>
      <point x="387" y="1180"/>
      <point x="259" y="1151"/>
      <point x="169" y="1088"/>
      <point x="115" y="990"/>
      <point x="103" y="920" type="qcurve" smooth="yes"/>
      <point x="14" y="414" type="line" smooth="yes"/>
      <point x="2" y="341"/>
      <point x="19" y="239"/>
      <point x="85" y="174"/>
      <point x="203" y="144"/>
      <point x="291" y="144" type="qcurve" smooth="yes"/>
      <point x="571" y="144" type="line"/>
    </contour>
    <contour>
      <point x="746" y="1148" type="line"/>
      <point x="577" y="176" type="line"/>
      <point x="497" y="176" type="line"/>
      <point x="497" y="176"/>
      <point x="497" y="176"/>
      <point x="497" y="176" type="qcurve"/>
      <point x="666" y="1148" type="line"/>
      <point x="666" y="1148"/>
      <point x="666" y="1148"/>
      <point x="666" y="1148" type="qcurve"/>
    </contour>
  </outline>
</glyph>
<glyph name="sterling" format="2">
  <advance width="1383"/>
  <unicode hex="00A3"/>
  <outline>
    <contour>
      <point x="-95" y="0" type="line"/>
      <point x="837" y="0" type="line" smooth="yes"/>
      <point x="936" y="0"/>
      <point x="1097" y="33"/>
      <point x="1217" y="111"/>
      <point x="1294" y="240"/>
      <point x="1310" y="336" type="qcurve" smooth="yes"/>
      <point x="1317" y="378" type="line"/>
      <point x="764" y="488" type="line"/>
      <point x="692" y="76" type="line" smooth="yes"/>
      <point x="690" y="66"/>
      <point x="683" y="50"/>
      <point x="672" y="41"/>
      <point x="656" y="36"/>
      <point x="645" y="36" type="qcurve" smooth="yes"/>
      <point x="417" y="36" type="line"/>
      <point x="503" y="68"/>
      <point x="616" y="210"/>
      <point x="637" y="334" type="qcurve" smooth="yes"/>
      <point x="690" y="641" type="line"/>
      <point x="903" y="641" type="line"/>
      <point x="919" y="677" type="line"/>
      <point x="696" y="677" type="line"/>
      <point x="811" y="1341" type="line" smooth="yes"/>
      <point x="813" y="1352"/>
      <point x="820" y="1368"/>
      <point x="831" y="1378"/>
      <point x="847" y="1382"/>
      <point x="858" y="1382" type="qcurve" smooth="yes"/>
      <point x="872" y="1382" type="line" smooth="yes"/>
      <point x="883" y="1382"/>
      <point x="898" y="1378"/>
      <point x="906" y="1368"/>
      <point x="907" y="1353"/>
      <point x="905" y="1342" type="qcurve" smooth="yes"/>
      <point x="825" y="876" type="line"/>
      <point x="1415" y="980" type="line"/>
      <point x="1432" y="1084" type="line" smooth="yes"/>
      <point x="1450" y="1185"/>
      <point x="1414" y="1314"/>
      <point x="1319" y="1389"/>
      <point x="1171" y="1418"/>
      <point x="1076" y="1418" type="qcurve" smooth="yes"/>
      <point x="664" y="1418" type="line" smooth="yes"/>
      <point x="570" y="1418"/>
      <point x="412" y="1389"/>
      <point x="292" y="1314"/>
      <point x="212" y="1185"/>
      <point x="194" y="1084" type="qcurve" smooth="yes"/>
      <point x="124" y="677" type="line"/>
      <point x="64" y="677" type="line"/>
      <point x="58" y="641" type="line"/>
      <point x="118" y="641" type="line"/>
      <point x="22" y="86" type="line" smooth="yes"/>
      <point x="20" y="73"/>
      <point x="11" y="54"/>
      <point x="-4" y="42"/>
      <point x="-24" y="36"/>
      <point x="-37" y="36" type="qcurve" smooth="yes"/>
      <point x="-89" y="36" type="line"/>
    </contour>
  </outline>
  <guideline angle="0" x="0" y="988"/>
</glyph>
<glyph name="currency" format="2">
  <advance width="1471.82" height="1448"/>
  <unicode hex="00A4"/>
  <outline>
    <contour>
      <point x="-138" y="-33" type="line"/>
      <point x="172" y="230" type="line"/>
      <point x="205" y="205"/>
      <point x="306" y="182"/>
      <point x="377" y="182" type="qcurve" smooth="yes"/>
      <point x="913" y="182" type="line" smooth="yes"/>
      <point x="986" y="182"/>
      <point x="1097" y="206"/>
      <point x="1138" y="232" type="qcurve"/>
      <point x="1356" y="-33" type="line"/>
      <point x="1386" y="-8" type="line"/>
      <point x="1169" y="254" type="line"/>
      <point x="1208" y="286"/>
      <point x="1254" y="381"/>
      <point x="1265" y="446" type="qcurve" smooth="yes"/>
      <point x="1355" y="964" type="line" smooth="yes"/>
      <point x="1366" y="1024"/>
      <point x="1352" y="1115"/>
      <point x="1325" y="1146" type="qcurve"/>
      <point x="1633" y="1408" type="line"/>
      <point x="1612" y="1433" type="line"/>
      <point x="1302" y="1168" type="line"/>
      <point x="1269" y="1194"/>
      <point x="1166" y="1218"/>
      <point x="1094" y="1218" type="qcurve" smooth="yes"/>
      <point x="558" y="1218" type="line" smooth="yes"/>
      <point x="487" y="1218"/>
      <point x="378" y="1194"/>
      <point x="336" y="1170" type="qcurve"/>
      <point x="118" y="1433" type="line"/>
      <point x="89" y="1408" type="line"/>
      <point x="303" y="1148" type="line"/>
      <point x="266" y="1116"/>
      <point x="218" y="1025"/>
      <point x="207" y="964" type="qcurve" smooth="yes"/>
      <point x="117" y="446" type="line" smooth="yes"/>
      <point x="106" y="380"/>
      <point x="120" y="285"/>
      <point x="148" y="253" type="qcurve"/>
      <point x="-158" y="-8" type="line"/>
    </contour>
    <contour>
      <point x="600" y="214" type="line"/>
      <point x="600" y="214"/>
      <point x="600" y="214"/>
      <point x="600" y="214" type="qcurve"/>
      <point x="770" y="1186" type="line"/>
      <point x="770" y="1186"/>
      <point x="770" y="1186"/>
      <point x="770" y="1186" type="qcurve"/>
      <point x="870" y="1186" type="line"/>
      <point x="870" y="1186"/>
      <point x="870" y="1186"/>
      <point x="870" y="1186" type="qcurve"/>
      <point x="700" y="214" type="line"/>
      <point x="700" y="214"/>
      <point x="700" y="214"/>
      <point x="700" y="214" type="qcurve"/>
    </contour>
  </outline>
</glyph>
<glyph name="yen" format="2">
  <advance width="1338"/>
  <unicode hex="00A5"/>
  <outline>
    <component base="Y" yxScale="-0.0018" xOffset="3.1445"/>
    <contour>
      <point x="110" y="391" type="line"/>
      <point x="1125" y="391" type="line"/>
      <point x="1132" y="427" type="line"/>
      <point x="117" y="427" type="line"/>
    </contour>
    <contour>
      <point x="82" y="231" type="line"/>
      <point x="1097" y="231" type="line"/>
      <point x="1104" y="267" type="line"/>
      <point x="89" y="267" type="line"/>
    </contour>
  </outline>
</glyph>
<glyph name="brokenbar" format="2">
  <advance width="576.796"/>
  <unicode hex="00A6"/>
  <outline>
    <contour>
      <point x="233" y="1520" type="line"/>
      <point x="633" y="1520" type="line"/>
      <point x="494" y="720" type="line"/>
      <point x="94" y="720" type="line"/>
    </contour>
    <contour>
      <point x="24" y="320" type="line"/>
      <point x="424" y="320" type="line"/>
      <point x="284" y="-480" type="line"/>
      <point x="-116" y="-480" type="line"/>
    </contour>
  </outline>
</glyph>
<glyph name="section" format="2">
  <advance width="1249"/>
  <unicode hex="00A7"/>
  <outline>
    <contour>
      <point x="31" y="138" type="line"/>
      <point x="487" y="206" type="line"/>
      <point x="433" y="-104" type="line"/>
      <point x="433" y="-104"/>
      <point x="433" y="-104"/>
      <point x="433" y="-104" type="qcurve"/>
      <point x="513" y="-104" type="line"/>
      <point x="513" y="-104"/>
      <point x="513" y="-104"/>
      <point x="513" y="-104" type="qcurve"/>
      <point x="595" y="369" type="line"/>
      <point x="595" y="369"/>
      <point x="595" y="369"/>
      <point x="595" y="369" type="qcurve"/>
      <point x="299" y="369" type="line" smooth="yes"/>
      <point x="235" y="369"/>
      <point x="137" y="396"/>
      <point x="76" y="457"/>
      <point x="56" y="556"/>
      <point x="68" y="627" type="qcurve"/>
      <point x="78" y="680" type="line" smooth="yes"/>
      <point x="90" y="750"/>
      <point x="147" y="838"/>
      <point x="230" y="888"/>
      <point x="337" y="906"/>
      <point x="399" y="906" type="qcurve" smooth="yes"/>
      <point x="791" y="906" type="line"/>
      <point x="786" y="874" type="line"/>
      <point x="536" y="874" type="line"/>
      <point x="536" y="874"/>
      <point x="536" y="874"/>
      <point x="536" y="874" type="qcurve"/>
      <point x="453" y="401" type="line"/>
      <point x="453" y="401"/>
      <point x="453" y="401"/>
      <point x="453" y="401" type="qcurve"/>
      <point x="767" y="401" type="line" smooth="yes"/>
      <point x="829" y="401"/>
      <point x="929" y="385"/>
      <point x="993" y="337"/>
      <point x="1018" y="250"/>
      <point x="1006" y="179" type="qcurve" smooth="yes"/>
      <point x="992" y="96" type="line" smooth="yes"/>
      <point x="979" y="24"/>
      <point x="925" y="-67"/>
      <point x="845" y="-118"/>
      <point x="738" y="-136"/>
      <point x="673" y="-136" type="qcurve" smooth="yes"/>
      <point x="259" y="-136" type="line" smooth="yes"/>
      <point x="195" y="-136"/>
      <point x="95" y="-118"/>
      <point x="33" y="-67"/>
      <point x="11" y="24"/>
      <point x="24" y="96" type="qcurve" smooth="yes"/>
    </contour>
    <contour>
      <point x="671" y="401" type="line"/>
      <point x="671" y="401"/>
      <point x="671" y="401"/>
      <point x="671" y="401" type="qcurve"/>
      <point x="754" y="874" type="line"/>
      <point x="754" y="874"/>
      <point x="754" y="874"/>
      <point x="754" y="874"/>
      <point x="754" y="874"/>
      <point x="754" y="874" type="qcurve"/>
      <point x="556" y="874" type="line"/>
      <point x="464" y="874" type="line" smooth="yes"/>
      <point x="400" y="874"/>
      <point x="300" y="901"/>
      <point x="237" y="962"/>
      <point x="214" y="1061"/>
      <point x="227" y="1132" type="qcurve" smooth="yes"/>
      <point x="235" y="1179" type="line" smooth="yes"/>
      <point x="247" y="1249"/>
      <point x="304" y="1337"/>
      <point x="387" y="1387"/>
      <point x="494" y="1405"/>
      <point x="556" y="1405" type="qcurve" smooth="yes"/>
      <point x="928" y="1405" type="line" smooth="yes"/>
      <point x="990" y="1405"/>
      <point x="1090" y="1387"/>
      <point x="1154" y="1339"/>
      <point x="1179" y="1252"/>
      <point x="1167" y="1183" type="qcurve" smooth="yes"/>
      <point x="1159" y="1137" type="line"/>
      <point x="720" y="1071" type="line"/>
      <point x="773" y="1373" type="line"/>
      <point x="773" y="1373"/>
      <point x="773" y="1373"/>
      <point x="773" y="1373" type="qcurve"/>
      <point x="693" y="1373" type="line"/>
      <point x="693" y="1373"/>
      <point x="693" y="1373"/>
      <point x="693" y="1373" type="qcurve"/>
      <point x="611" y="906" type="line"/>
      <point x="611" y="906"/>
      <point x="611" y="906"/>
      <point x="611" y="906" type="qcurve"/>
      <point x="925" y="906" type="line" smooth="yes"/>
      <point x="987" y="906"/>
      <point x="1087" y="890"/>
      <point x="1151" y="842"/>
      <point x="1176" y="755"/>
      <point x="1164" y="684" type="qcurve" smooth="yes"/>
      <point x="1150" y="601" type="line" smooth="yes"/>
      <point x="1137" y="529"/>
      <point x="1083" y="439"/>
      <point x="1003" y="388"/>
      <point x="896" y="369"/>
      <point x="831" y="369" type="qcurve" smooth="yes"/>
      <point x="535" y="369" type="line"/>
      <point x="541" y="401" type="line"/>
    </contour>
  </outline>
</glyph>
<glyph name="copyright" format="2">
  <advance width="1671"/>
  <unicode hex="00A9"/>
  <outline>
    <contour>
      <point x="339" y="548" type="line"/>
      <point x="393" y="862" type="line" smooth="yes"/>
      <point x="405" y="932"/>
      <point x="459" y="1030"/>
      <point x="549" y="1093"/>
      <point x="678" y="1122"/>
      <point x="765" y="1122" type="qcurve" smooth="yes"/>
      <point x="1057" y="1122" type="line" smooth="yes"/>
      <point x="1144" y="1122"/>
      <point x="1261" y="1094"/>
      <point x="1328" y="1032"/>
      <point x="1346" y="935"/>
      <point x="1334" y="866" type="qcurve" smooth="yes"/>
      <point x="1328" y="832" type="line"/>
      <point x="879" y="745" type="line"/>
      <point x="939" y="1090" type="line"/>
      <point x="939" y="1090"/>
      <point x="939" y="1090"/>
      <point x="939" y="1090" type="qcurve"/>
      <point x="867" y="1090" type="line"/>
      <point x="867" y="1090"/>
      <point x="867" y="1090"/>
      <point x="867" y="1090" type="qcurve"/>
      <point x="731" y="310" type="line"/>
      <point x="731" y="310"/>
      <point x="731" y="310"/>
      <point x="731" y="310" type="qcurve"/>
      <point x="807" y="310" type="line"/>
      <point x="807" y="310"/>
      <point x="807" y="310"/>
      <point x="807" y="310" type="qcurve"/>
      <point x="869" y="662" type="line"/>
      <point x="1287" y="575" type="line"/>
      <point x="1283" y="548" type="line"/>
      <point x="1270" y="475"/>
      <point x="1218" y="373"/>
      <point x="1129" y="308"/>
      <point x="1001" y="278"/>
      <point x="912" y="278" type="qcurve" smooth="yes"/>
      <point x="616" y="278" type="line" smooth="yes"/>
      <point x="528" y="278"/>
      <point x="409" y="308"/>
      <point x="343" y="373"/>
      <point x="326" y="475"/>
      <point x="339" y="548" type="qcurve"/>
    </contour>
    <contour>
      <point x="109" y="904" type="line" smooth="yes"/>
      <point x="126" y="1004"/>
      <point x="203" y="1133"/>
      <point x="322" y="1208"/>
      <point x="480" y="1238"/>
      <point x="579" y="1238" type="qcurve" smooth="yes"/>
      <point x="1275" y="1238" type="line" smooth="yes"/>
      <point x="1374" y="1238"/>
      <point x="1524" y="1211"/>
      <point x="1617" y="1138"/>
      <point x="1649" y="1008"/>
      <point x="1631" y="904" type="qcurve" smooth="yes"/>
      <point x="1562" y="508" type="line" smooth="yes"/>
      <point x="1544" y="405"/>
      <point x="1465" y="271"/>
      <point x="1345" y="193"/>
      <point x="1186" y="162"/>
      <point x="1087" y="162" type="qcurve" smooth="yes"/>
      <point x="391" y="162" type="line" smooth="yes"/>
      <point x="292" y="162"/>
      <point x="144" y="192"/>
      <point x="52" y="270"/>
      <point x="22" y="404"/>
      <point x="40" y="508" type="qcurve" smooth="yes"/>
    </contour>
    <contour>
      <point x="328" y="1048" type="line"/>
      <point x="209" y="369" type="line" smooth="yes"/>
      <point x="200" y="317"/>
      <point x="217" y="249"/>
      <point x="266" y="209"/>
      <point x="345" y="194"/>
      <point x="397" y="194" type="qcurve" smooth="yes"/>
      <point x="1093" y="194" type="line" smooth="yes"/>
      <point x="1146" y="194"/>
      <point x="1230" y="209"/>
      <point x="1293" y="248"/>
      <point x="1334" y="316"/>
      <point x="1343" y="368" type="qcurve" smooth="yes"/>
      <point x="1462" y="1049" type="line" smooth="yes"/>
      <point x="1470" y="1096"/>
      <point x="1451" y="1157"/>
      <point x="1401" y="1192"/>
      <point x="1322" y="1206"/>
      <point x="1269" y="1206" type="qcurve" smooth="yes"/>
      <point x="573" y="1206" type="line" smooth="yes"/>
      <point x="521" y="1206"/>
      <point x="437" y="1192"/>
      <point x="376" y="1157"/>
      <point x="336" y="1096"/>
      <point x="328" y="1048" type="qcurve"/>
    </contour>
  </outline>
</glyph>
<glyph name="ordfeminine" format="2">
  <advance width="864"/>
  <unicode hex="00AA"/>
  <outline>
    <contour>
      <point x="217" y="597" type="line" smooth="yes"/>
      <point x="177" y="597"/>
      <point x="109" y="613"/>
      <point x="64" y="651"/>
      <point x="45" y="715"/>
      <point x="53" y="763" type="qcurve" smooth="yes"/>
      <point x="60" y="801" type="line" smooth="yes"/>
      <point x="68" y="849"/>
      <point x="109" y="910"/>
      <point x="168" y="946"/>
      <point x="241" y="960"/>
      <point x="281" y="960" type="qcurve" smooth="yes"/>
      <point x="507" y="960" type="line"/>
      <point x="558" y="1253" type="line"/>
      <point x="558" y="1253"/>
      <point x="558" y="1253"/>
      <point x="558" y="1253" type="qcurve"/>
      <point x="496" y="1253" type="line"/>
      <point x="496" y="1253"/>
      <point x="496" y="1253"/>
      <point x="496" y="1253" type="qcurve"/>
      <point x="456" y="1028" type="line"/>
      <point x="127" y="1089" type="line"/>
      <point x="130" y="1107" type="line" smooth="yes"/>
      <point x="139" y="1160"/>
      <point x="179" y="1229"/>
      <point x="237" y="1269"/>
      <point x="311" y="1285"/>
      <point x="354" y="1285" type="qcurve" smooth="yes"/>
      <point x="710" y="1285" type="line" smooth="yes"/>
      <point x="753" y="1285"/>
      <point x="822" y="1270"/>
      <point x="865" y="1230"/>
      <point x="881" y="1160"/>
      <point x="872" y="1105" type="qcurve" smooth="yes"/>
      <point x="785" y="606" type="line"/>
      <point x="445" y="606" type="line"/>
      <point x="448" y="625" type="line"/>
      <point x="440" y="618"/>
      <point x="419" y="608"/>
      <point x="392" y="601"/>
      <point x="360" y="597"/>
      <point x="341" y="597" type="qcurve" smooth="yes"/>
    </contour>
    <contour>
      <point x="370" y="629" type="line"/>
      <point x="370" y="629"/>
      <point x="370" y="629"/>
      <point x="370" y="629" type="qcurve"/>
      <point x="449" y="629" type="line"/>
      <point x="501" y="928" type="line"/>
      <point x="422" y="928" type="line"/>
      <point x="422" y="928"/>
      <point x="422" y="928"/>
      <point x="422" y="928" type="qcurve"/>
    </contour>
  </outline>
  <guideline y="36"/>
  <guideline y="272"/>
  <guideline y="36"/>
  <guideline y="272"/>
</glyph>
<glyph name="logicalnot" format="2">
  <advance width="599.139"/>
  <unicode hex="00AC"/>
  <outline>
    <contour>
      <point x="489" y="380" type="line"/>
      <point x="449" y="380" type="line"/>
      <point x="505" y="699" type="line"/>
      <point x="59" y="699" type="line"/>
      <point x="65" y="735" type="line"/>
      <point x="551" y="735" type="line"/>
    </contour>
  </outline>
</glyph>
<glyph name="registered" format="2">
  <advance width="687"/>
  <unicode hex="00AE"/>
  <outline>
    <contour>
      <point x="98" y="1058" type="line"/>
      <point x="159" y="1408" type="line" smooth="yes"/>
      <point x="171" y="1477"/>
      <point x="259" y="1550"/>
      <point x="328" y="1550" type="qcurve" smooth="yes"/>
      <point x="663" y="1550" type="line" smooth="yes"/>
      <point x="732" y="1550"/>
      <point x="795" y="1477"/>
      <point x="783" y="1408" type="qcurve" smooth="yes"/>
      <point x="722" y="1058" type="line" smooth="yes"/>
      <point x="710" y="989"/>
      <point x="621" y="915"/>
      <point x="552" y="915" type="qcurve" smooth="yes"/>
      <point x="217" y="915" type="line" smooth="yes"/>
      <point x="148" y="915"/>
      <point x="86" y="989"/>
      <point x="98" y="1058" type="qcurve"/>
    </contour>
    <contour>
      <point x="243" y="1393" type="line"/>
      <point x="187" y="1073" type="line" smooth="yes"/>
      <point x="180" y="1033"/>
      <point x="211" y="991"/>
      <point x="250" y="991" type="qcurve" smooth="yes"/>
      <point x="559" y="991" type="line" smooth="yes"/>
      <point x="599" y="991"/>
      <point x="630" y="1033"/>
      <point x="637" y="1073" type="qcurve" smooth="yes"/>
      <point x="693" y="1393" type="line" smooth="yes"/>
      <point x="700" y="1433"/>
      <point x="669" y="1474"/>
      <point x="629" y="1474" type="qcurve" smooth="yes"/>
      <point x="334" y="1474" type="line" smooth="yes"/>
      <point x="295" y="1474"/>
      <point x="250" y="1433"/>
      <point x="243" y="1393" type="qcurve"/>
    </contour>
    <contour>
      <point x="324" y="1400" type="line"/>
      <point x="523" y="1400" type="line" smooth="yes"/>
      <point x="568" y="1400"/>
      <point x="616" y="1369"/>
      <point x="608" y="1321" type="qcurve" smooth="yes"/>
      <point x="597" y="1260" type="line" smooth="yes"/>
      <point x="594" y="1245"/>
      <point x="584" y="1222"/>
      <point x="570" y="1205"/>
      <point x="552" y="1193"/>
      <point x="542" y="1189" type="qcurve"/>
      <point x="542" y="1189" type="line"/>
      <point x="595" y="1060" type="line"/>
      <point x="453" y="1060" type="line"/>
      <point x="414" y="1181" type="line"/>
      <point x="413" y="1181" type="line"/>
      <point x="392" y="1060" type="line"/>
      <point x="265" y="1060" type="line"/>
    </contour>
    <contour>
      <point x="419" y="1213" type="line"/>
      <point x="449" y="1213" type="line" smooth="yes"/>
      <point x="457" y="1213"/>
      <point x="465" y="1220"/>
      <point x="466" y="1228" type="qcurve"/>
      <point x="488" y="1353" type="line"/>
      <point x="489" y="1360"/>
      <point x="484" y="1368"/>
      <point x="476" y="1368" type="qcurve" smooth="yes"/>
      <point x="446" y="1368" type="line"/>
    </contour>
  </outline>
</glyph>
<glyph name="plusminus" format="2">
  <advance width="599.212"/>
  <unicode hex="00B1"/>
  <outline>
    <contour>
      <point x="529" y="605" type="line"/>
      <point x="522" y="569" type="line"/>
      <point x="299" y="569" type="line"/>
      <point x="251" y="291" type="line"/>
      <point x="211" y="291" type="line"/>
      <point x="259" y="569" type="line"/>
      <point x="36" y="569" type="line"/>
      <point x="43" y="605" type="line"/>
      <point x="266" y="605" type="line"/>
      <point x="313" y="877" type="line"/>
      <point x="353" y="877" type="line"/>
      <point x="306" y="605" type="line"/>
    </contour>
    <contour>
      <point x="-64" y="0" type="line"/>
      <point x="-58" y="36" type="line"/>
      <point x="428" y="36" type="line"/>
      <point x="422" y="0" type="line"/>
    </contour>
  </outline>
</glyph>
<glyph name="uni00B5" format="2">
  <advance width="1321.84"/>
  <unicode hex="00B5"/>
  <outline>
    <contour>
      <point x="-116" y="-428" type="line"/>
      <point x="415" y="-378" type="line"/>
      <point x="487" y="22" type="line"/>
      <point x="493" y="8"/>
      <point x="512" y="-6"/>
      <point x="528" y="-6" type="qcurve"/>
      <point x="528" y="-6" type="line"/>
      <point x="535" y="-6"/>
      <point x="549" y="-3"/>
      <point x="562" y="4"/>
      <point x="573" y="15"/>
      <point x="579" y="22" type="qcurve"/>
      <point x="575" y="0" type="line"/>
      <point x="1125" y="0" type="line"/>
      <point x="1304" y="1024" type="line"/>
      <point x="754" y="1024" type="line"/>
      <point x="595" y="114" type="line" smooth="yes"/>
      <point x="591" y="93"/>
      <point x="580" y="60"/>
      <point x="565" y="37"/>
      <point x="546" y="26"/>
      <point x="534" y="26" type="qcurve"/>
      <point x="534" y="26" type="line"/>
      <point x="521" y="26"/>
      <point x="506" y="37"/>
      <point x="498" y="60"/>
      <point x="499" y="93"/>
      <point x="503" y="114" type="qcurve" smooth="yes"/>
      <point x="662" y="1024" type="line"/>
      <point x="138" y="1024" type="line"/>
    </contour>
  </outline>
</glyph>
<glyph name="paragraph" format="2">
  <advance width="1025"/>
  <unicode hex="00B6"/>
  <outline>
    <contour>
      <point x="817" y="0" type="line"/>
      <point x="625" y="0" type="line"/>
      <point x="863" y="1364" type="line"/>
      <point x="775" y="1364" type="line"/>
      <point x="537" y="0" type="line"/>
      <point x="345" y="0" type="line"/>
      <point x="408" y="360" type="line"/>
      <point x="383" y="360" type="line" smooth="yes"/>
      <point x="289" y="360"/>
      <point x="140" y="387"/>
      <point x="45" y="459"/>
      <point x="8" y="586"/>
      <point x="26" y="686" type="qcurve" smooth="yes"/>
      <point x="92" y="1066" type="line" smooth="yes"/>
      <point x="110" y="1167"/>
      <point x="191" y="1296"/>
      <point x="312" y="1371"/>
      <point x="470" y="1400"/>
      <point x="564" y="1400" type="qcurve" smooth="yes"/>
      <point x="1061" y="1400" type="line"/>
    </contour>
  </outline>
  <guideline x="512.5" name="halfwidth" color="0.4,0.4,0.4,1"/>
</glyph>
<glyph name="periodcentered" format="2">
  <advance width="648"/>
  <unicode hex="00B7"/>
  <outline>
    <contour>
      <point x="45" y="492" type="line"/>
      <point x="82" y="703" type="line" smooth="yes"/>
      <point x="90" y="747"/>
      <point x="109" y="801"/>
      <point x="145" y="831"/>
      <point x="202" y="841"/>
      <point x="247" y="841" type="qcurve" smooth="yes"/>
      <point x="454" y="841" type="line" smooth="yes"/>
      <point x="499" y="841"/>
      <point x="553" y="831"/>
      <point x="578" y="801"/>
      <point x="579" y="746"/>
      <point x="571" y="701" type="qcurve" smooth="yes"/>
      <point x="535" y="492" type="line" smooth="yes"/>
      <point x="527" y="447"/>
      <point x="507" y="392"/>
      <point x="471" y="361"/>
      <point x="414" y="351"/>
      <point x="369" y="351" type="qcurve" smooth="yes"/>
      <point x="161" y="351" type="line" smooth="yes"/>
      <point x="116" y="351"/>
      <point x="63" y="361"/>
      <point x="38" y="392"/>
      <point x="37" y="447"/>
      <point x="45" y="492" type="qcurve"/>
    </contour>
  </outline>
</glyph>
<glyph name="ordmasculine" format="2">
  <advance width="847"/>
  <unicode hex="00BA"/>
  <outline>
    <contour>
      <point x="62" y="769" type="line"/>
      <point x="123" y="1120" type="line" smooth="yes"/>
      <point x="138" y="1205"/>
      <point x="247" y="1285"/>
      <point x="352" y="1285" type="qcurve" smooth="yes"/>
      <point x="706" y="1285" type="line" smooth="yes"/>
      <point x="811" y="1285"/>
      <point x="892" y="1205"/>
      <point x="877" y="1120" type="qcurve" smooth="yes"/>
      <point x="816" y="769" type="line" smooth="yes"/>
      <point x="800" y="679"/>
      <point x="692" y="597"/>
      <point x="586" y="597" type="qcurve" smooth="yes"/>
      <point x="232" y="597" type="line" smooth="yes"/>
      <point x="126" y="597"/>
      <point x="46" y="678"/>
      <point x="62" y="769" type="qcurve"/>
    </contour>
    <contour>
      <point x="378" y="629" type="line"/>
      <point x="378" y="629"/>
      <point x="378" y="629"/>
      <point x="378" y="629" type="qcurve"/>
      <point x="452" y="629" type="line"/>
      <point x="452" y="629"/>
      <point x="452" y="629"/>
      <point x="452" y="629" type="qcurve"/>
      <point x="561" y="1253" type="line"/>
      <point x="561" y="1253"/>
      <point x="561" y="1253"/>
      <point x="561" y="1253" type="qcurve"/>
      <point x="487" y="1253" type="line"/>
      <point x="487" y="1253"/>
      <point x="487" y="1253"/>
      <point x="487" y="1253" type="qcurve"/>
    </contour>
  </outline>
</glyph>
<glyph name="AE" format="2">
  <advance width="1913"/>
  <unicode hex="00C6"/>
  <anchor x="1428" y="1550" name="top"/>
  <anchor x="672" y="-150" name="bottom"/>
  <outline>
    <contour>
      <point x="-130" y="0" type="line"/>
      <point x="791" y="1400" type="line"/>
      <point x="2013" y="1400" type="line"/>
      <point x="2007" y="1364" type="line"/>
      <point x="1583" y="1364" type="line"/>
      <point x="1473" y="736" type="line"/>
      <point x="1857" y="736" type="line"/>
      <point x="1851" y="700" type="line"/>
      <point x="1467" y="700" type="line"/>
      <point x="1351" y="36" type="line"/>
      <point x="1789" y="36" type="line"/>
      <point x="1783" y="0" type="line"/>
      <point x="773" y="0" type="line"/>
      <point x="825" y="298" type="line"/>
      <point x="109" y="298" type="line"/>
      <point x="-88" y="0" type="line"/>
    </contour>
    <contour>
      <point x="133" y="334" type="line"/>
      <point x="831" y="334" type="line"/>
      <point x="1011" y="1364" type="line"/>
      <point x="814" y="1364" type="line"/>
    </contour>
  </outline>
</glyph>
<glyph name="Eth" format="2">
  <advance width="1373"/>
  <unicode hex="00D0"/>
  <anchor x="618" y="1550" name="top"/>
  <anchor x="618" y="-150" name="bottom"/>
  <outline>
    <contour>
      <point x="35.7914" y="720" type="line"/>
      <point x="704.791" y="720" type="line"/>
      <point x="698.791" y="688" type="line"/>
      <point x="29.7914" y="688" type="line"/>
    </contour>
    <contour>
      <point x="537.073" y="36" type="line"/>
      <point x="547.073" y="36" type="line" smooth="yes"/>
      <point x="565.073" y="36"/>
      <point x="600.832" y="69"/>
      <point x="637.221" y="140"/>
      <point x="674.242" y="249"/>
      <point x="713.591" y="400"/>
      <point x="753.619" y="595"/>
      <point x="774.733" y="716" type="qcurve" smooth="yes"/>
      <point x="795.499" y="835"/>
      <point x="821.479" y="1024"/>
      <point x="833.607" y="1168"/>
      <point x="832.406" y="1270"/>
      <point x="819.574" y="1334"/>
      <point x="795.809" y="1364"/>
      <point x="778.809" y="1364" type="qcurve" smooth="yes"/>
      <point x="768.809" y="1364" type="line"/>
    </contour>
    <contour>
      <point x="-41.2086" y="0" type="line"/>
      <point x="203.091" y="1400" type="line"/>
      <point x="790.091" y="1400" type="line" smooth="yes"/>
      <point x="901.091" y="1400"/>
      <point x="1081.46" y="1362"/>
      <point x="1219.02" y="1285"/>
      <point x="1313.78" y="1169"/>
      <point x="1363.56" y="1013"/>
      <point x="1368.53" y="818"/>
      <point x="1347.94" y="700" type="qcurve" smooth="yes"/>
      <point x="1326.13" y="575"/>
      <point x="1245.88" y="373"/>
      <point x="1133.83" y="218"/>
      <point x="994.288" y="106"/>
      <point x="830.724" y="34"/>
      <point x="645.791" y="0"/>
      <point x="545.791" y="0" type="qcurve" smooth="yes"/>
    </contour>
  </outline>
  <guideline y="1549"/>
  <guideline y="704"/>
  <guideline y="704"/>
</glyph>
<glyph name="multiply" format="2">
  <advance width="532.93"/>
  <unicode hex="00D7"/>
  <outline>
    <contour>
      <point x="22" y="297" type="line"/>
      <point x="-6" y="320" type="line"/>
      <point x="227" y="589" type="line"/>
      <point x="87" y="858" type="line"/>
      <point x="119" y="878" type="line"/>
      <point x="253" y="620" type="line"/>
      <point x="477" y="878" type="line"/>
      <point x="506" y="854" type="line"/>
      <point x="272" y="586" type="line"/>
      <point x="412" y="317" type="line"/>
      <point x="380" y="297" type="line"/>
      <point x="246" y="555" type="line"/>
      <point x="22" y="297" type="line"/>
    </contour>
  </outline>
  <guideline angle="31.4328" color="1,0,0,1" x="-22.369" y="140"/>
  <guideline angle="322.193" color="1,0,0,1" x="107.631" y="1003"/>
</glyph>
<glyph name="Oslash" format="2">
  <advance width="1379"/>
  <unicode hex="00D8"/>
  <anchor x="847" y="1580" name="top"/>
  <outline>
    <contour>
      <point x="137.084" y="1076" type="line"/>
      <point x="8.08427" y="336" type="line" smooth="yes"/>
      <point x="-9.91573" y="233"/>
      <point x="21.0843" y="99"/>
      <point x="112.084" y="21"/>
      <point x="260.084" y="-10"/>
      <point x="359.084" y="-10" type="qcurve" smooth="yes"/>
      <point x="777.084" y="-10" type="line" smooth="yes"/>
      <point x="876.084" y="-10"/>
      <point x="1035.08" y="21"/>
      <point x="1155.08" y="99"/>
      <point x="1234.08" y="233"/>
      <point x="1252.08" y="336" type="qcurve" smooth="yes"/>
      <point x="1381.08" y="1076" type="line" smooth="yes"/>
      <point x="1399.08" y="1177"/>
      <point x="1363.08" y="1306"/>
      <point x="1268.08" y="1381"/>
      <point x="1120.08" y="1410"/>
      <point x="1025.08" y="1410" type="qcurve" smooth="yes"/>
      <point x="607.084" y="1410" type="line" smooth="yes"/>
      <point x="513.084" y="1410"/>
      <point x="355.084" y="1381"/>
      <point x="235.084" y="1306"/>
      <point x="155.084" y="1177"/>
      <point x="137.084" y="1076" type="qcurve"/>
    </contour>
    <contour>
      <point x="761.084" y="1374" type="line"/>
      <point x="761.084" y="1374"/>
      <point x="761.084" y="1374"/>
      <point x="761.084" y="1374"/>
      <point x="761.084" y="1374"/>
      <point x="761.084" y="1374" type="qcurve"/>
      <point x="861.084" y="1374" type="line"/>
      <point x="861.084" y="1374"/>
      <point x="861.084" y="1374"/>
      <point x="861.084" y="1374"/>
      <point x="861.084" y="1374"/>
      <point x="861.084" y="1374" type="qcurve"/>
      <point x="626.084" y="26" type="line"/>
      <point x="626.084" y="26"/>
      <point x="626.084" y="26"/>
      <point x="626.084" y="26"/>
      <point x="626.084" y="26"/>
      <point x="626.084" y="26" type="qcurve"/>
      <point x="526.084" y="26" type="line"/>
      <point x="526.084" y="26"/>
      <point x="526.084" y="26"/>
      <point x="526.084" y="26"/>
      <point x="526.084" y="26"/>
      <point x="526.084" y="26" type="qcurve"/>
    </contour>
    <contour>
      <point x="-58.9157" y="-30" type="line"/>
      <point x="139.084" y="159" type="line"/>
      <point x="385.084" y="314" type="line"/>
      <point x="1041.08" y="1049" type="line"/>
      <point x="1281.08" y="1228" type="line"/>
      <point x="1468.08" y="1405" type="line"/>
      <point x="1446.08" y="1430" type="line"/>
      <point x="1261.08" y="1253" type="line"/>
      <point x="1016.08" y="1070" type="line"/>
      <point x="363.084" y="339" type="line"/>
      <point x="124.084" y="191" type="line"/>
      <point x="-81.9157" y="-6" type="line"/>
    </contour>
  </outline>
  <guideline y="-30"/>
  <guideline y="-30"/>
  <guideline y="1430"/>
</glyph>
<glyph name="Thorn" format="2">
  <advance width="1379"/>
  <unicode hex="00DE"/>
  <outline>
    <contour>
      <point x="-40" y="0" type="line"/>
      <point x="532" y="0" type="line"/>
      <point x="581" y="281" type="line"/>
      <point x="831" y="281" type="line" smooth="yes"/>
      <point x="926" y="281"/>
      <point x="1084" y="310"/>
      <point x="1205" y="385"/>
      <point x="1286" y="515"/>
      <point x="1303" y="615" type="qcurve" smooth="yes"/>
      <point x="1340" y="827" type="line" smooth="yes"/>
      <point x="1358" y="928"/>
      <point x="1322" y="1057"/>
      <point x="1227" y="1132"/>
      <point x="1080" y="1161"/>
      <point x="985" y="1161" type="qcurve" smooth="yes"/>
      <point x="735" y="1161" type="line"/>
      <point x="776" y="1400" type="line"/>
      <point x="204" y="1400" type="line"/>
    </contour>
    <contour>
      <point x="587" y="317" type="line"/>
      <point x="728" y="1125" type="line"/>
      <point x="760" y="1125" type="line" smooth="yes"/>
      <point x="780" y="1125"/>
      <point x="807" y="1116"/>
      <point x="823" y="1101"/>
      <point x="828" y="1079"/>
      <point x="826" y="1065" type="qcurve" smooth="yes"/>
      <point x="706" y="377" type="line" smooth="yes"/>
      <point x="704" y="364"/>
      <point x="691" y="341"/>
      <point x="669" y="326"/>
      <point x="639" y="317"/>
      <point x="619" y="317" type="qcurve" smooth="yes"/>
    </contour>
  </outline>
  <guideline x="689.5" name="halfwidth" color="0.4,0.4,0.4,1"/>
</glyph>
<glyph name="germandbls" format="2">
  <advance width="1273"/>
  <unicode hex="00DF"/>
  <outline>
    <contour>
      <point x="689" y="942" type="line"/>
      <point x="957" y="942" type="line" smooth="yes"/>
      <point x="1038" y="942"/>
      <point x="1159" y="973"/>
      <point x="1245" y="1037"/>
      <point x="1297" y="1137"/>
      <point x="1309" y="1206" type="qcurve"/>
      <point x="1313" y="1224" type="line"/>
      <point x="1336" y="1355"/>
      <point x="1210" y="1478"/>
      <point x="1051" y="1478" type="qcurve" smooth="yes"/>
      <point x="515" y="1478" type="line" smooth="yes"/>
      <point x="436" y="1478"/>
      <point x="315" y="1448"/>
      <point x="229" y="1385"/>
      <point x="176" y="1289"/>
      <point x="165" y="1224" type="qcurve" smooth="yes"/>
      <point x="-49" y="0" type="line"/>
      <point x="475" y="0" type="line"/>
      <point x="727" y="1446" type="line"/>
      <point x="727" y="1446"/>
      <point x="727" y="1446"/>
      <point x="727" y="1446" type="qcurve"/>
      <point x="827" y="1446" type="line"/>
      <point x="827" y="1446"/>
      <point x="827" y="1446"/>
      <point x="827" y="1446" type="qcurve"/>
      <point x="745" y="974" type="line"/>
      <point x="745" y="974"/>
      <point x="745" y="974"/>
      <point x="745" y="974" type="qcurve"/>
      <point x="695" y="974" type="line"/>
    </contour>
    <contour>
      <point x="513" y="-10" type="line"/>
      <point x="819" y="-10" type="line" smooth="yes"/>
      <point x="884" y="-10"/>
      <point x="991" y="9"/>
      <point x="1071" y="60"/>
      <point x="1125" y="150"/>
      <point x="1138" y="222" type="qcurve" smooth="yes"/>
      <point x="1230" y="752" type="line" smooth="yes"/>
      <point x="1242" y="823"/>
      <point x="1217" y="910"/>
      <point x="1153" y="958"/>
      <point x="1053" y="974"/>
      <point x="991" y="974" type="qcurve" smooth="yes"/>
      <point x="695" y="974" type="line"/>
      <point x="689" y="942" type="line"/>
      <point x="739" y="942" type="line"/>
      <point x="739" y="942"/>
      <point x="739" y="942"/>
      <point x="739" y="942" type="qcurve"/>
      <point x="579" y="22" type="line"/>
      <point x="579" y="22"/>
      <point x="579" y="22"/>
      <point x="579" y="22" type="qcurve"/>
      <point x="519" y="22" type="line"/>
    </contour>
  </outline>
</glyph>
<glyph name="ae" format="2">
  <advance width="1903"/>
  <unicode hex="00E6"/>
  <anchor x="1060" y="1174" name="top"/>
  <anchor x="809" y="-150" name="bottom"/>
  <outline>
    <contour>
      <point x="269.093" y="-6" type="line"/>
      <point x="565.093" y="-6" type="line" smooth="yes"/>
      <point x="653.093" y="-6"/>
      <point x="797.093" y="35"/>
      <point x="849.093" y="78" type="qcurve"/>
      <point x="884.093" y="36"/>
      <point x="1006.09" y="-6"/>
      <point x="1089.09" y="-6" type="qcurve" smooth="yes"/>
      <point x="1338.09" y="-6" type="line" smooth="yes"/>
      <point x="1403.09" y="-6"/>
      <point x="1539.09" y="13"/>
      <point x="1657.09" y="64"/>
      <point x="1742.09" y="154"/>
      <point x="1754.09" y="226" type="qcurve"/>
      <point x="1762.09" y="268" type="line"/>
      <point x="1255.09" y="336" type="line"/>
      <point x="1201.09" y="26" type="line"/>
      <point x="1201.09" y="26"/>
      <point x="1201.09" y="26"/>
      <point x="1201.09" y="26" type="qcurve"/>
      <point x="1095.09" y="26" type="line"/>
      <point x="1095.09" y="26"/>
      <point x="1095.09" y="26"/>
      <point x="1095.09" y="26" type="qcurve"/>
      <point x="1177.09" y="499" type="line"/>
      <point x="1807.09" y="499" type="line"/>
      <point x="1848.09" y="733" type="line" smooth="yes"/>
      <point x="1863.09" y="817"/>
      <point x="1810.09" y="930"/>
      <point x="1710.09" y="1000"/>
      <point x="1580.09" y="1030"/>
      <point x="1518.09" y="1030" type="qcurve" smooth="yes"/>
      <point x="1270.09" y="1030" type="line" smooth="yes"/>
      <point x="1187.09" y="1030"/>
      <point x="1051.09" y="990"/>
      <point x="1002.09" y="949" type="qcurve"/>
      <point x="964.093" y="991"/>
      <point x="834.093" y="1030"/>
      <point x="746.093" y="1030" type="qcurve" smooth="yes"/>
      <point x="480.093" y="1030" type="line" smooth="yes"/>
      <point x="418.093" y="1030"/>
      <point x="287.093" y="1012"/>
      <point x="175.093" y="964"/>
      <point x="95.0934" y="877"/>
      <point x="83.0934" y="808" type="qcurve" smooth="yes"/>
      <point x="75.0934" y="762" type="line"/>
      <point x="587.093" y="696" type="line"/>
      <point x="640.093" y="998" type="line"/>
      <point x="640.093" y="998"/>
      <point x="640.093" y="998"/>
      <point x="640.093" y="998" type="qcurve"/>
      <point x="740.093" y="998" type="line"/>
      <point x="740.093" y="998"/>
      <point x="740.093" y="998"/>
      <point x="740.093" y="998" type="qcurve"/>
      <point x="664.093" y="562" type="line"/>
      <point x="368.093" y="562" type="line" smooth="yes"/>
      <point x="302.093" y="562"/>
      <point x="177.093" y="546"/>
      <point x="75.0934" y="498"/>
      <point x="3.0934" y="411"/>
      <point x="-8.9066" y="340" type="qcurve" smooth="yes"/>
      <point x="-28.9066" y="226" type="line" smooth="yes"/>
      <point x="-40.9066" y="154"/>
      <point x="0.0934004" y="64"/>
      <point x="85.0934" y="13"/>
      <point x="204.093" y="-6"/>
      <point x="269.093" y="-6" type="qcurve"/>
    </contour>
    <contour>
      <point x="461.093" y="26" type="line"/>
      <point x="461.093" y="26"/>
      <point x="461.093" y="26"/>
      <point x="461.093" y="26" type="qcurve"/>
      <point x="549.093" y="530" type="line"/>
      <point x="549.093" y="530"/>
      <point x="549.093" y="530"/>
      <point x="549.093" y="530" type="qcurve"/>
      <point x="657.093" y="530" type="line"/>
      <point x="569.093" y="26" type="line"/>
      <point x="569.093" y="26"/>
      <point x="569.093" y="26"/>
      <point x="569.093" y="26" type="qcurve"/>
    </contour>
    <contour>
      <point x="1181.09" y="531" type="line"/>
      <point x="1262.09" y="998" type="line"/>
      <point x="1262.09" y="998"/>
      <point x="1262.09" y="998"/>
      <point x="1262.09" y="998" type="qcurve"/>
      <point x="1370.09" y="998" type="line"/>
      <point x="1370.09" y="998"/>
      <point x="1370.09" y="998"/>
      <point x="1370.09" y="998" type="qcurve"/>
      <point x="1289.09" y="531" type="line"/>
    </contour>
  </outline>
</glyph>
<glyph name="eth" format="2">
  <advance width="1351"/>
  <unicode hex="00F0"/>
  <outline>
    <contour>
      <point x="363" y="1328" type="line"/>
      <point x="451" y="1310"/>
      <point x="576" y="1251"/>
      <point x="659" y="1176"/>
      <point x="707" y="1088"/>
      <point x="726" y="993"/>
      <point x="723" y="894"/>
      <point x="715" y="846" type="qcurve"/>
      <point x="1197" y="610" type="line"/>
      <point x="1220" y="742"/>
      <point x="1225" y="961"/>
      <point x="1190" y="1140"/>
      <point x="1114" y="1279"/>
      <point x="997" y="1380"/>
      <point x="840" y="1444"/>
      <point x="741" y="1458" type="qcurve"/>
    </contour>
    <contour>
      <point x="78" y="776" type="line"/>
      <point x="-12" y="258" type="line" smooth="yes"/>
      <point x="-24" y="189"/>
      <point x="-6" y="89"/>
      <point x="57" y="25"/>
      <point x="168" y="-6"/>
      <point x="248" y="-6" type="qcurve" smooth="yes"/>
      <point x="784" y="-6" type="line" smooth="yes"/>
      <point x="865" y="-6"/>
      <point x="986" y="25"/>
      <point x="1072" y="89"/>
      <point x="1124" y="189"/>
      <point x="1136" y="258" type="qcurve" smooth="yes"/>
      <point x="1197" y="610" type="line"/>
      <point x="747" y="1030" type="line"/>
      <point x="429" y="1030" type="line" smooth="yes"/>
      <point x="350" y="1030"/>
      <point x="229" y="1000"/>
      <point x="143" y="937"/>
      <point x="90" y="841"/>
      <point x="78" y="776" type="qcurve"/>
    </contour>
    <contour>
      <point x="641" y="998" type="line"/>
      <point x="641" y="998"/>
      <point x="641" y="998"/>
      <point x="641" y="998" type="qcurve"/>
      <point x="741" y="998" type="line"/>
      <point x="735" y="960" type="line"/>
      <point x="572" y="26" type="line"/>
      <point x="572" y="26"/>
      <point x="572" y="26"/>
      <point x="572" y="26" type="qcurve"/>
      <point x="472" y="26" type="line"/>
      <point x="472" y="26"/>
      <point x="472" y="26"/>
      <point x="472" y="26" type="qcurve"/>
    </contour>
    <contour>
      <point x="309" y="1168" type="line"/>
      <point x="310" y="1136" type="line"/>
      <point x="1406" y="1358" type="line"/>
      <point x="1405" y="1390" type="line"/>
    </contour>
  </outline>
</glyph>
<glyph name="oslash" format="2">
  <advance width="1281" height="1448"/>
  <unicode hex="00F8"/>
  <anchor x="725" y="1174" name="top"/>
  <outline>
    <contour>
      <point x="-9.26839" y="258" type="line"/>
      <point x="80.7316" y="776" type="line"/>
      <point x="92.7316" y="841"/>
      <point x="145.732" y="937"/>
      <point x="231.732" y="1000"/>
      <point x="352.732" y="1030"/>
      <point x="431.732" y="1030" type="qcurve" smooth="yes"/>
      <point x="967.732" y="1030" type="line" smooth="yes"/>
      <point x="1126.73" y="1030"/>
      <point x="1251.73" y="907"/>
      <point x="1228.73" y="776" type="qcurve" smooth="yes"/>
      <point x="1138.73" y="258" type="line" smooth="yes"/>
      <point x="1126.73" y="189"/>
      <point x="1074.73" y="89"/>
      <point x="988.732" y="25"/>
      <point x="867.732" y="-6"/>
      <point x="786.732" y="-6" type="qcurve" smooth="yes"/>
      <point x="250.732" y="-6" type="line" smooth="yes"/>
      <point x="170.732" y="-6"/>
      <point x="59.7316" y="25"/>
      <point x="-3.26839" y="89"/>
      <point x="-21.2684" y="189"/>
      <point x="-9.26839" y="258" type="qcurve"/>
    </contour>
    <contour>
      <point x="474.732" y="26" type="line"/>
      <point x="474.732" y="26"/>
      <point x="474.732" y="26"/>
      <point x="474.732" y="26" type="qcurve"/>
      <point x="574.732" y="26" type="line"/>
      <point x="574.732" y="26"/>
      <point x="574.732" y="26"/>
      <point x="574.732" y="26" type="qcurve"/>
      <point x="743.732" y="998" type="line"/>
      <point x="743.732" y="998"/>
      <point x="743.732" y="998"/>
      <point x="743.732" y="998" type="qcurve"/>
      <point x="643.732" y="998" type="line"/>
      <point x="643.732" y="998"/>
      <point x="643.732" y="998"/>
      <point x="643.732" y="998" type="qcurve"/>
    </contour>
    <contour>
      <point x="-84.2684" y="-30" type="line"/>
      <point x="-100.268" y="-8" type="line"/>
      <point x="121.732" y="169" type="line"/>
      <point x="370.732" y="294" type="line"/>
      <point x="843.732" y="735" type="line"/>
      <point x="1101.73" y="895" type="line"/>
      <point x="1302.73" y="1054" type="line"/>
      <point x="1318.73" y="1032" type="line"/>
      <point x="1116.73" y="872" type="line"/>
      <point x="862.732" y="716" type="line"/>
      <point x="385.732" y="271" type="line"/>
      <point x="128.732" y="140" type="line"/>
    </contour>
  </outline>
  <guideline y="1060"/>
  <guideline y="-60"/>
</glyph>
<glyph name="Hbar" format="2">
  <advance width="1517"/>
  <unicode hex="0126"/>
  <anchor x="910" y="1550" name="top"/>
  <anchor x="613" y="-150" name="bottom"/>
  <anchor x="39" y="700" name="left"/>
  <outline>
    <contour>
      <point x="17" y="0" type="line"/>
      <point x="589" y="0" type="line"/>
      <point x="833" y="1400" type="line"/>
      <point x="261" y="1400" type="line"/>
    </contour>
    <contour>
      <point x="689" y="0" type="line"/>
      <point x="1261" y="0" type="line"/>
      <point x="1505" y="1400" type="line"/>
      <point x="933" y="1400" type="line"/>
    </contour>
    <contour>
      <point x="683" y="710" type="line"/>
      <point x="843" y="710" type="line"/>
      <point x="849" y="746" type="line"/>
      <point x="689" y="746" type="line"/>
    </contour>
    <contour>
      <point x="97" y="1034" type="line"/>
      <point x="1541" y="1034" type="line"/>
      <point x="1547" y="1066" type="line"/>
      <point x="103" y="1066" type="line"/>
    </contour>
  </outline>
  <guideline y="1050" color="1,0,0,1"/>
</glyph>
<glyph name="hbar" format="2">
  <advance width="1350"/>
  <unicode hex="0127"/>
  <anchor x="555" y="1622" name="top"/>
  <anchor x="558" y="-150" name="bottom"/>
  <anchor x="-1" y="512" name="left"/>
  <outline>
    <contour>
      <point x="9.54851" y="0" type="line"/>
      <point x="225.549" y="1235" type="line"/>
      <point x="125.549" y="1235" type="line"/>
      <point x="130.549" y="1267" type="line"/>
      <point x="230.549" y="1267" type="line"/>
      <point x="266.549" y="1472" type="line"/>
      <point x="790.549" y="1472" type="line"/>
      <point x="754.549" y="1267" type="line"/>
      <point x="1012.55" y="1267" type="line"/>
      <point x="1007.55" y="1235" type="line"/>
      <point x="749.549" y="1235" type="line"/>
      <point x="707.549" y="996" type="line"/>
      <point x="720.549" y="1010"/>
      <point x="761.549" y="1024"/>
      <point x="788.549" y="1024" type="qcurve" smooth="yes"/>
      <point x="970.549" y="1024" type="line" smooth="yes"/>
      <point x="1068.55" y="1024"/>
      <point x="1200.55" y="988"/>
      <point x="1275.55" y="914"/>
      <point x="1296.55" y="801"/>
      <point x="1283.55" y="724" type="qcurve" smooth="yes"/>
      <point x="1157.55" y="0" type="line"/>
      <point x="633.549" y="0" type="line"/>
      <point x="806.549" y="992" type="line"/>
      <point x="806.549" y="992"/>
      <point x="806.549" y="992"/>
      <point x="806.549" y="992" type="qcurve"/>
      <point x="706.549" y="992" type="line"/>
      <point x="533.549" y="0" type="line"/>
    </contour>
  </outline>
  <guideline y="1251" color="1,0,0,1"/>
  <guideline x="757" y="992" angle="260.116" color="1,0,0,1"/>
</glyph>
<glyph name="dotlessi" format="2">
  <advance width="683"/>
  <unicode hex="0131"/>
  <anchor x="195" y="-150" name="bottom"/>
  <anchor x="426" y="1174" name="top"/>
  <anchor x="-4" y="0" name="ogonek"/>
  <outline>
    <contour>
      <point x="-41.2989" y="0" type="line"/>
      <point x="482.701" y="0" type="line"/>
      <point x="661.701" y="1024" type="line"/>
      <point x="137.701" y="1024" type="line"/>
    </contour>
  </outline>
</glyph>
<glyph name="Lslash" format="2">
  <advance width="1030"/>
  <unicode hex="0141"/>
  <outline>
    <contour>
      <point x="-32" y="0" type="line"/>
      <point x="212" y="1400" type="line"/>
      <point x="784" y="1400" type="line"/>
      <point x="546" y="36" type="line"/>
      <point x="906" y="36" type="line"/>
      <point x="900" y="0" type="line"/>
    </contour>
    <contour>
      <point x="909" y="834" type="line"/>
      <point x="902" y="798" type="line"/>
      <point x="-31" y="479" type="line"/>
      <point x="-25" y="515" type="line"/>
    </contour>
  </outline>
</glyph>
<glyph name="lslash" format="2">
  <advance width="712"/>
  <unicode hex="0142"/>
  <outline>
    <contour>
      <point x="-27" y="0" type="line"/>
      <point x="497" y="0" type="line"/>
      <point x="633" y="782" type="line"/>
      <point x="708" y="807" type="line"/>
      <point x="714" y="843" type="line"/>
      <point x="640" y="818" type="line"/>
      <point x="754" y="1472" type="line"/>
      <point x="230" y="1472" type="line"/>
      <point x="83" y="627" type="line"/>
      <point x="8" y="602" type="line"/>
      <point x="2" y="566" type="line"/>
      <point x="76" y="591" type="line"/>
    </contour>
  </outline>
  <guideline y="724"/>
</glyph>
<glyph name="Eng" format="2">
  <advance width="1160"/>
  <unicode hex="014A"/>
  <outline>
    <contour>
      <point x="-32" y="0" type="line"/>
      <point x="4" y="0" type="line"/>
      <point x="132" y="732" type="line"/>
      <point x="892" y="-138" type="line"/>
      <point x="952" y="0" type="line"/>
      <point x="1196" y="1400" type="line"/>
      <point x="1160" y="1400" type="line"/>
      <point x="1031" y="659" type="line"/>
      <point x="390" y="1400" type="line"/>
      <point x="212" y="1400" type="line"/>
    </contour>
    <contour>
      <point x="390" y="-396" type="line"/>
      <point x="394" y="-428" type="line"/>
      <point x="714" y="-428" type="line" smooth="yes"/>
      <point x="753" y="-428"/>
      <point x="818" y="-407"/>
      <point x="866" y="-366"/>
      <point x="898" y="-305"/>
      <point x="905" y="-266" type="qcurve" smooth="yes"/>
      <point x="952" y="0" type="line"/>
      <point x="916" y="0" type="line"/>
      <point x="870" y="-260" type="line" smooth="yes"/>
      <point x="858" y="-326"/>
      <point x="787" y="-396"/>
      <point x="720" y="-396" type="qcurve" smooth="yes"/>
    </contour>
  </outline>
</glyph>
<glyph name="eng" format="2">
  <advance width="1295"/>
  <unicode hex="014B"/>
  <anchor x="909" y="1174" name="top"/>
  <anchor x="507" y="-150" name="bottom"/>
  <anchor x="-52" y="512" name="left"/>
  <outline>
    <contour>
      <point x="-41" y="0" type="line"/>
      <point x="483" y="0" type="line"/>
      <point x="656" y="992" type="line"/>
      <point x="756" y="992" type="line"/>
      <point x="756" y="992"/>
      <point x="756" y="992"/>
      <point x="756" y="992" type="qcurve"/>
      <point x="514" y="-396" type="line"/>
      <point x="514" y="-396"/>
      <point x="514" y="-396"/>
      <point x="514" y="-396" type="qcurve"/>
      <point x="152" y="-396" type="line"/>
      <point x="156" y="-428" type="line"/>
      <point x="772" y="-428" type="line" smooth="yes"/>
      <point x="831" y="-428"/>
      <point x="935" y="-381"/>
      <point x="1018" y="-296"/>
      <point x="1076" y="-176"/>
      <point x="1089" y="-102" type="qcurve" smooth="yes"/>
      <point x="1233" y="724" type="line" smooth="yes"/>
      <point x="1247" y="801"/>
      <point x="1225" y="914"/>
      <point x="1150" y="988"/>
      <point x="1018" y="1024"/>
      <point x="920" y="1024" type="qcurve" smooth="yes"/>
      <point x="738" y="1024" type="line" smooth="yes"/>
      <point x="711" y="1024"/>
      <point x="670" y="1010"/>
      <point x="657" y="996" type="qcurve"/>
      <point x="662" y="1024" type="line"/>
      <point x="138" y="1024" type="line"/>
    </contour>
  </outline>
  <guideline x="533" y="-0" angle="260.112" color="1,0,0,1"/>
  <guideline x="221" y="-0" angle="260.049" color="1,0,0,1"/>
</glyph>
<glyph name="OE" format="2">
  <advance width="1763"/>
  <unicode hex="0152"/>
  <outline>
    <contour>
      <point x="363" y="0" type="line"/>
      <point x="1633" y="0" type="line"/>
      <point x="1638" y="26" type="line"/>
      <point x="1200" y="26" type="line"/>
      <point x="1317" y="700" type="line"/>
      <point x="1701" y="700" type="line"/>
      <point x="1707" y="736" type="line"/>
      <point x="1323" y="736" type="line"/>
      <point x="1435" y="1374" type="line"/>
      <point x="1859" y="1374" type="line"/>
      <point x="1863" y="1400" type="line"/>
      <point x="607" y="1400" type="line" smooth="yes"/>
      <point x="513" y="1400"/>
      <point x="356" y="1374"/>
      <point x="236" y="1303"/>
      <point x="157" y="1177"/>
      <point x="139" y="1076" type="qcurve" smooth="yes"/>
      <point x="10" y="336" type="line" smooth="yes"/>
      <point x="-8" y="233"/>
      <point x="24" y="103"/>
      <point x="115" y="28"/>
      <point x="264" y="0"/>
      <point x="363" y="0" type="qcurve"/>
    </contour>
    <contour>
      <point x="628" y="26" type="line"/>
      <point x="528" y="26" type="line"/>
      <point x="528" y="26"/>
      <point x="528" y="26"/>
      <point x="528" y="26"/>
      <point x="528" y="26"/>
      <point x="528" y="26" type="qcurve"/>
      <point x="763" y="1374" type="line"/>
      <point x="763" y="1374"/>
      <point x="763" y="1374"/>
      <point x="763" y="1374"/>
      <point x="763" y="1374"/>
      <point x="763" y="1374" type="qcurve"/>
      <point x="863" y="1374" type="line"/>
    </contour>
  </outline>
  <guideline x="863" y="1374" angle="260.105" color="1,0,0,1"/>
</glyph>
<glyph name="oe" format="2">
  <advance width="1931.63"/>
  <unicode hex="0153"/>
  <anchor x="2021.62" y="1174" name="top"/>
  <anchor x="1790.62" y="-150" name="bottom"/>
  <outline>
    <contour>
      <point x="280" y="-6" type="line"/>
      <point x="584" y="-6" type="line" smooth="yes"/>
      <point x="672" y="-6"/>
      <point x="815" y="32"/>
      <point x="867" y="74" type="qcurve"/>
      <point x="901" y="33"/>
      <point x="1024" y="-6"/>
      <point x="1108" y="-6" type="qcurve" smooth="yes"/>
      <point x="1367" y="-6" type="line" smooth="yes"/>
      <point x="1431" y="-6"/>
      <point x="1568" y="13"/>
      <point x="1686" y="64"/>
      <point x="1770" y="154"/>
      <point x="1783" y="226" type="qcurve" smooth="yes"/>
      <point x="1791" y="268" type="line"/>
      <point x="1284" y="336" type="line"/>
      <point x="1230" y="26" type="line"/>
      <point x="1230" y="26"/>
      <point x="1230" y="26"/>
      <point x="1230" y="26" type="qcurve"/>
      <point x="1114" y="26" type="line"/>
      <point x="1114" y="26"/>
      <point x="1114" y="26"/>
      <point x="1114" y="26" type="qcurve"/>
      <point x="1196" y="499" type="line"/>
      <point x="1836" y="499" type="line"/>
      <point x="1877" y="733" type="line" smooth="yes"/>
      <point x="1891" y="817"/>
      <point x="1838" y="930"/>
      <point x="1739" y="1000"/>
      <point x="1609" y="1030"/>
      <point x="1547" y="1030" type="qcurve" smooth="yes"/>
      <point x="1289" y="1030" type="line" smooth="yes"/>
      <point x="1205" y="1030"/>
      <point x="1070" y="993"/>
      <point x="1020" y="953" type="qcurve"/>
      <point x="983" y="994"/>
      <point x="853" y="1030"/>
      <point x="765" y="1030" type="qcurve" smooth="yes"/>
      <point x="461" y="1030" type="line" smooth="yes"/>
      <point x="398" y="1030"/>
      <point x="274" y="1012"/>
      <point x="170" y="964"/>
      <point x="96" y="877"/>
      <point x="84" y="808" type="qcurve" smooth="yes"/>
      <point x="-18" y="226" type="line" smooth="yes"/>
      <point x="-31" y="154"/>
      <point x="10" y="64"/>
      <point x="96" y="13"/>
      <point x="214" y="-6"/>
      <point x="280" y="-6" type="qcurve"/>
    </contour>
    <contour>
      <point x="1318" y="531" type="line"/>
      <point x="1200" y="531" type="line"/>
      <point x="1281" y="998" type="line"/>
      <point x="1281" y="998"/>
      <point x="1281" y="998"/>
      <point x="1281" y="998" type="qcurve"/>
      <point x="1399" y="998" type="line"/>
      <point x="1399" y="998"/>
      <point x="1399" y="998"/>
      <point x="1399" y="998" type="qcurve"/>
    </contour>
    <contour>
      <point x="472" y="26" type="line"/>
      <point x="641" y="998" type="line"/>
      <point x="641" y="998"/>
      <point x="641" y="998"/>
      <point x="641" y="998" type="qcurve"/>
      <point x="759" y="998" type="line"/>
      <point x="759" y="998"/>
      <point x="759" y="998"/>
      <point x="759" y="998" type="qcurve"/>
      <point x="590" y="26" type="line"/>
      <point x="590" y="26"/>
      <point x="588" y="26"/>
      <point x="588" y="26" type="qcurve"/>
      <point x="472" y="26" type="line"/>
      <point x="472" y="26"/>
      <point x="472" y="26"/>
      <point x="472" y="26" type="qcurve"/>
    </contour>
  </outline>
  <guideline angle="260.089" color="1,0,0,1" x="845.615" y="0"/>
</glyph>
<glyph name="Tbar" format="2">
  <advance width="1144"/>
  <unicode hex="0166"/>
  <anchor x="726" y="1550" name="top"/>
  <anchor x="429" y="-150" name="bottom"/>
  <outline>
    <contour>
      <point x="137" y="1400" type="line"/>
      <point x="1261" y="1400" type="line"/>
      <point x="1255" y="1364" type="line"/>
      <point x="979" y="1364" type="line"/>
      <point x="871" y="742" type="line"/>
      <point x="1010" y="742" type="line"/>
      <point x="1004" y="710" type="line"/>
      <point x="865" y="710" type="line"/>
      <point x="741" y="0" type="line"/>
      <point x="169" y="0" type="line"/>
      <point x="293" y="710" type="line"/>
      <point x="154" y="710" type="line"/>
      <point x="160" y="742" type="line"/>
      <point x="299" y="742" type="line"/>
      <point x="407" y="1364" type="line"/>
      <point x="131" y="1364" type="line"/>
    </contour>
  </outline>
</glyph>
<glyph name="uni018F" format="2">
  <advance width="1381"/>
  <unicode hex="018F"/>
  <anchor x="836" y="1550" name="top"/>
  <anchor x="539" y="-150" name="bottom"/>
  <outline>
    <contour>
      <point x="355.429" y="-10" type="line" smooth="yes"/>
      <point x="256.429" y="-10"/>
      <point x="107.429" y="21"/>
      <point x="15.4289" y="99"/>
      <point x="-15.5711" y="233"/>
      <point x="2.42889" y="336" type="qcurve" smooth="yes"/>
      <point x="65.4289" y="700" type="line"/>
      <point x="740.429" y="700" type="line"/>
      <point x="857.429" y="1374" type="line"/>
      <point x="857.429" y="1374"/>
      <point x="857.429" y="1374"/>
      <point x="857.429" y="1374"/>
      <point x="857.429" y="1374"/>
      <point x="857.429" y="1374" type="qcurve"/>
      <point x="761.429" y="1374" type="line"/>
      <point x="761.429" y="1374"/>
      <point x="761.429" y="1374"/>
      <point x="761.429" y="1374"/>
      <point x="761.429" y="1374"/>
      <point x="761.429" y="1374" type="qcurve"/>
      <point x="679.429" y="906" type="line"/>
      <point x="125.429" y="1010" type="line"/>
      <point x="137.429" y="1076" type="line" smooth="yes"/>
      <point x="155.429" y="1177"/>
      <point x="237.429" y="1306"/>
      <point x="357.429" y="1381"/>
      <point x="515.429" y="1410"/>
      <point x="609.429" y="1410" type="qcurve" smooth="yes"/>
      <point x="1023.43" y="1410" type="line" smooth="yes"/>
      <point x="1118.43" y="1410"/>
      <point x="1265.43" y="1381"/>
      <point x="1359.43" y="1306"/>
      <point x="1395.43" y="1177"/>
      <point x="1377.43" y="1076" type="qcurve" smooth="yes"/>
      <point x="1248.43" y="336" type="line" smooth="yes"/>
      <point x="1230.43" y="233"/>
      <point x="1152.43" y="99"/>
      <point x="1033.43" y="21"/>
      <point x="874.429" y="-10"/>
      <point x="775.429" y="-10" type="qcurve" smooth="yes"/>
    </contour>
    <contour>
      <point x="591.429" y="664" type="line"/>
      <point x="480.429" y="26" type="line"/>
      <point x="480.429" y="26"/>
      <point x="480.429" y="26"/>
      <point x="480.429" y="26"/>
      <point x="480.429" y="26"/>
      <point x="480.429" y="26" type="qcurve"/>
      <point x="622.429" y="26" type="line"/>
      <point x="622.429" y="26"/>
      <point x="622.429" y="26"/>
      <point x="622.429" y="26"/>
      <point x="622.429" y="26"/>
      <point x="622.429" y="26" type="qcurve"/>
      <point x="733.429" y="664" type="line"/>
    </contour>
  </outline>
</glyph>
<glyph name="florin" format="2">
  <advance width="1097.98"/>
  <unicode hex="0192"/>
  <outline>
    <contour>
      <point x="-195" y="-428" type="line"/>
      <point x="-174" y="-396" type="line"/>
      <point x="-62" y="-396" type="line"/>
      <point x="-62" y="-396"/>
      <point x="-62" y="-396"/>
      <point x="-62" y="-396" type="qcurve"/>
      <point x="360" y="808" type="line"/>
      <point x="312" y="808" type="line"/>
      <point x="323" y="840" type="line"/>
      <point x="371" y="840" type="line"/>
      <point x="488" y="1176" type="line" smooth="yes"/>
      <point x="515" y="1254"/>
      <point x="594" y="1366"/>
      <point x="699" y="1438"/>
      <point x="828" y="1472"/>
      <point x="906" y="1472" type="qcurve" smooth="yes"/>
      <point x="1238" y="1472" type="line"/>
      <point x="1216" y="1440" type="line"/>
      <point x="1104" y="1440" type="line"/>
      <point x="1104" y="1440"/>
      <point x="1104" y="1440"/>
      <point x="1104" y="1440" type="qcurve"/>
      <point x="895" y="840" type="line"/>
      <point x="987" y="840" type="line"/>
      <point x="976" y="808" type="line"/>
      <point x="884" y="808" type="line"/>
      <point x="565" y="-102" type="line" smooth="yes"/>
      <point x="539" y="-176"/>
      <point x="460" y="-296"/>
      <point x="361" y="-381"/>
      <point x="249" y="-428"/>
      <point x="191" y="-428" type="qcurve" smooth="yes"/>
    </contour>
  </outline>
</glyph>
<glyph name="uni0237" format="2">
  <advance width="684"/>
  <unicode hex="0237"/>
  <anchor x="438" y="1174" name="top"/>
  <outline>
    <contour>
      <point x="-449.874" y="-396" type="line"/>
      <point x="-445.874" y="-428" type="line"/>
      <point x="160.126" y="-428" type="line" smooth="yes"/>
      <point x="219.126" y="-428"/>
      <point x="323.126" y="-381"/>
      <point x="406.126" y="-296"/>
      <point x="464.126" y="-176"/>
      <point x="477.126" y="-102" type="qcurve" smooth="yes"/>
      <point x="674.126" y="1024" type="line"/>
      <point x="150.126" y="1024" type="line"/>
      <point x="-97.874" y="-396" type="line"/>
      <point x="-97.874" y="-396"/>
      <point x="-97.874" y="-396"/>
      <point x="-97.874" y="-396" type="qcurve"/>
    </contour>
  </outline>
</glyph>
<glyph name="acutecomb" format="2">
  <unicode hex="0301"/>
  <anchor x="85" y="1174" name="_top"/>
  <anchor x="-6" y="1100" name="_topright"/>
  <outline>
    <contour>
      <point x="-46" y="1100" type="line"/>
      <point x="108" y="1448" type="line"/>
      <point x="659" y="1448" type="line"/>
      <point x="-10" y="1100" type="line"/>
    </contour>
  </outline>
</glyph>
<glyph name="uni0302" format="2">
  <unicode hex="0302"/>
  <anchor x="81" y="1150" name="_top"/>
  <anchor x="159" y="1598" name="_bottom"/>
  <anchor x="458" y="1274" name="topright"/>
  <anchor x="150" y="1548" name="top"/>
  <outline>
    <contour>
      <point x="-248" y="1100" type="line"/>
      <point x="-32" y="1448" type="line"/>
      <point x="282" y="1448" type="line"/>
      <point x="428" y="1100" type="line"/>
      <point x="74" y="1100" type="line"/>
      <point x="-21" y="1411" type="line"/>
      <point x="-213" y="1100" type="line"/>
    </contour>
  </outline>
</glyph>
<glyph name="tildecomb" format="2">
  <unicode hex="0303"/>
  <anchor x="81" y="1150" name="_top"/>
  <anchor x="143" y="1507" name="top"/>
  <outline>
    <contour>
      <point x="-267" y="1105" type="line"/>
      <point x="-244" y="1183"/>
      <point x="-193" y="1305"/>
      <point x="-129" y="1389"/>
      <point x="-47" y="1432"/>
      <point x="9" y="1432" type="qcurve" smooth="yes"/>
      <point x="39" y="1432"/>
      <point x="98" y="1420"/>
      <point x="156" y="1401"/>
      <point x="212" y="1379"/>
      <point x="265" y="1360"/>
      <point x="315" y="1348"/>
      <point x="337" y="1348" type="qcurve" smooth="yes"/>
      <point x="363" y="1348"/>
      <point x="397" y="1363"/>
      <point x="420" y="1385"/>
      <point x="434" y="1409"/>
      <point x="438" y="1419" type="qcurve"/>
      <point x="467" y="1414" type="line"/>
      <point x="445" y="1342"/>
      <point x="394" y="1221"/>
      <point x="330" y="1135"/>
      <point x="247" y="1087"/>
      <point x="191" y="1087" type="qcurve" smooth="yes"/>
      <point x="162" y="1087"/>
      <point x="103" y="1099"/>
      <point x="44" y="1118"/>
      <point x="-12" y="1140"/>
      <point x="-66" y="1159"/>
      <point x="-116" y="1171"/>
      <point x="-138" y="1171" type="qcurve" smooth="yes"/>
      <point x="-164" y="1171"/>
      <point x="-198" y="1156"/>
      <point x="-220" y="1134"/>
      <point x="-234" y="1110"/>
      <point x="-238" y="1100" type="qcurve"/>
    </contour>
  </outline>
  <guideline x="-460"/>
  <guideline x="220"/>
  <guideline x="-430"/>
  <guideline x="190"/>
</glyph>
<glyph name="uni0304" format="2">
  <unicode hex="0304"/>
  <anchor x="85" y="1174" name="_top"/>
  <anchor x="115" y="1344" name="top"/>
  <outline>
    <contour>
      <point x="-198" y="1212" type="line"/>
      <point x="382" y="1212" type="line"/>
      <point x="387" y="1244" type="line"/>
      <point x="-193" y="1244" type="line"/>
    </contour>
  </outline>
</glyph>
<glyph name="uni0306" format="2">
  <unicode hex="0306"/>
  <anchor x="85" y="1174" name="_top"/>
  <anchor x="150" y="1549" name="top"/>
  <outline>
    <contour>
      <point x="-227" y="1449" type="line"/>
      <point x="-246" y="1339"/>
      <point x="-244" y="1202"/>
      <point x="-180" y="1126"/>
      <point x="-43" y="1099"/>
      <point x="72" y="1099" type="qcurve" smooth="yes"/>
      <point x="187" y="1099"/>
      <point x="333" y="1126"/>
      <point x="423" y="1202"/>
      <point x="472" y="1339"/>
      <point x="491" y="1449" type="qcurve"/>
      <point x="236" y="1449" type="line"/>
      <point x="217" y="1338"/>
      <point x="186" y="1210"/>
      <point x="151" y="1147"/>
      <point x="109" y="1131"/>
      <point x="77" y="1131" type="qcurve" smooth="yes"/>
      <point x="44" y="1131"/>
      <point x="6" y="1147"/>
      <point x="-6" y="1210"/>
      <point x="9" y="1338"/>
      <point x="28" y="1449" type="qcurve"/>
    </contour>
  </outline>
</glyph>
<glyph name="uni0308" format="2">
  <unicode hex="0308"/>
  <anchor x="85" y="1172" name="_top"/>
  <anchor x="163" y="1622" name="_bottom"/>
  <anchor x="148" y="1535" name="top"/>
  <outline>
    <contour>
      <point x="-343" y="1220" type="line" smooth="yes"/>
      <point x="-350" y="1180"/>
      <point x="-354" y="1135"/>
      <point x="-336" y="1114"/>
      <point x="-293" y="1110"/>
      <point x="-252" y="1110" type="qcurve" smooth="yes"/>
      <point x="-120" y="1110" type="line" smooth="yes"/>
      <point x="-80" y="1110"/>
      <point x="-34" y="1114"/>
      <point x="-10" y="1135"/>
      <point x="2" y="1180"/>
      <point x="9" y="1220" type="qcurve" smooth="yes"/>
      <point x="30" y="1342" type="line" smooth="yes"/>
      <point x="37" y="1382"/>
      <point x="41" y="1425"/>
      <point x="23" y="1446"/>
      <point x="-21" y="1450"/>
      <point x="-61" y="1450" type="qcurve" smooth="yes"/>
      <point x="-193" y="1450" type="line" smooth="yes"/>
      <point x="-234" y="1450"/>
      <point x="-279" y="1446"/>
      <point x="-303" y="1425"/>
      <point x="-315" y="1382"/>
      <point x="-322" y="1342" type="qcurve" smooth="yes"/>
    </contour>
    <contour>
      <point x="177" y="1220" type="line" smooth="yes"/>
      <point x="170" y="1180"/>
      <point x="166" y="1135"/>
      <point x="184" y="1114"/>
      <point x="228" y="1110"/>
      <point x="268" y="1110" type="qcurve" smooth="yes"/>
      <point x="400" y="1110" type="line" smooth="yes"/>
      <point x="441" y="1110"/>
      <point x="486" y="1114"/>
      <point x="510" y="1135"/>
      <point x="522" y="1180"/>
      <point x="529" y="1220" type="qcurve" smooth="yes"/>
      <point x="550" y="1342" type="line" smooth="yes"/>
      <point x="557" y="1382"/>
      <point x="561" y="1425"/>
      <point x="543" y="1446"/>
      <point x="500" y="1450"/>
      <point x="459" y="1450" type="qcurve" smooth="yes"/>
      <point x="327" y="1450" type="line" smooth="yes"/>
      <point x="287" y="1450"/>
      <point x="241" y="1446"/>
      <point x="217" y="1425"/>
      <point x="205" y="1382"/>
      <point x="198" y="1342" type="qcurve" smooth="yes"/>
    </contour>
  </outline>
</glyph>
<glyph name="uni0309" format="2">
  <unicode hex="0309"/>
  <anchor x="85" y="1174" name="_top"/>
  <anchor x="22" y="1100" name="_topright"/>
  <outline>
    <contour>
      <point x="-38" y="1100" type="line"/>
      <point x="99" y="1100" type="line"/>
      <point x="138" y="1114"/>
      <point x="212" y="1153"/>
      <point x="271" y="1205"/>
      <point x="312" y="1269"/>
      <point x="319" y="1307" type="qcurve" smooth="yes"/>
      <point x="326" y="1345"/>
      <point x="306" y="1409"/>
      <point x="258" y="1455"/>
      <point x="184" y="1480"/>
      <point x="136" y="1480" type="qcurve" smooth="yes"/>
      <point x="106" y="1480"/>
      <point x="49" y="1470"/>
      <point x="-1" y="1455"/>
      <point x="-42" y="1435"/>
      <point x="-55" y="1424" type="qcurve"/>
      <point x="-43" y="1399" type="line"/>
      <point x="-29" y="1409"/>
      <point x="-1" y="1423"/>
      <point x="13" y="1423" type="qcurve" smooth="yes"/>
      <point x="45" y="1423"/>
      <point x="61" y="1359"/>
      <point x="53" y="1313" type="qcurve" smooth="yes"/>
      <point x="45" y="1264"/>
      <point x="-1" y="1159"/>
      <point x="-38" y="1100" type="qcurve"/>
    </contour>
  </outline>
</glyph>
<glyph name="uni030A" format="2">
  <unicode hex="030A"/>
  <anchor x="85" y="1174" name="_top"/>
  <anchor x="158" y="1594" name="top"/>
  <outline>
    <contour>
      <point x="-160" y="1281" type="line"/>
      <point x="-171" y="1219"/>
      <point x="-164" y="1146"/>
      <point x="-114" y="1109"/>
      <point x="-12" y="1098"/>
      <point x="72" y="1098" type="qcurve" smooth="yes"/>
      <point x="156" y="1098"/>
      <point x="261" y="1109"/>
      <point x="325" y="1146"/>
      <point x="357" y="1219"/>
      <point x="368" y="1281" type="qcurve" smooth="yes"/>
      <point x="379" y="1343"/>
      <point x="372" y="1416"/>
      <point x="322" y="1454"/>
      <point x="220" y="1464"/>
      <point x="136" y="1464" type="qcurve" smooth="yes"/>
      <point x="52" y="1464"/>
      <point x="-53" y="1454"/>
      <point x="-117" y="1416"/>
      <point x="-149" y="1343"/>
      <point x="-160" y="1281" type="qcurve"/>
    </contour>
    <contour>
      <point x="54" y="1281" type="line"/>
      <point x="63" y="1333"/>
      <point x="77" y="1395"/>
      <point x="93" y="1427"/>
      <point x="115" y="1436"/>
      <point x="131" y="1436" type="qcurve" smooth="yes"/>
      <point x="148" y="1436"/>
      <point x="166" y="1427"/>
      <point x="170" y="1395"/>
      <point x="163" y="1333"/>
      <point x="154" y="1281" type="qcurve" smooth="yes"/>
      <point x="145" y="1230"/>
      <point x="131" y="1168"/>
      <point x="115" y="1136"/>
      <point x="94" y="1126"/>
      <point x="77" y="1126" type="qcurve" smooth="yes"/>
      <point x="61" y="1126"/>
      <point x="42" y="1136"/>
      <point x="38" y="1168"/>
      <point x="45" y="1230"/>
      <point x="54" y="1281" type="qcurve"/>
    </contour>
  </outline>
</glyph>
<glyph name="uni031B" format="2">
  <unicode hex="031B"/>
  <anchor x="58" y="1024" name="_horn"/>
  <outline>
    <contour>
      <point x="55" y="994" type="line"/>
      <point x="192" y="994"/>
      <point x="365" y="1027"/>
      <point x="466" y="1087"/>
      <point x="511" y="1172"/>
      <point x="520" y="1224" type="qcurve" smooth="yes"/>
      <point x="528" y="1272"/>
      <point x="532" y="1353"/>
      <point x="526" y="1392" type="qcurve"/>
      <point x="165" y="1324" type="line"/>
      <point x="166" y="1280"/>
      <point x="154" y="1184"/>
      <point x="146" y="1138" type="qcurve" smooth="yes"/>
      <point x="142" y="1115"/>
      <point x="127" y="1073"/>
      <point x="106" y="1042"/>
      <point x="78" y="1024"/>
      <point x="60" y="1024" type="qcurve"/>
    </contour>
  </outline>
</glyph>
<glyph name="uni0326" format="2">
  <unicode hex="0326"/>
  <anchor x="-146" y="-150" name="_bottom"/>
  <outline>
    <contour>
      <point x="-292" y="-699" type="line"/>
      <point x="-158" y="-471" type="line"/>
      <point x="-294" y="-471" type="line" smooth="yes"/>
      <point x="-327" y="-471"/>
      <point x="-367" y="-464"/>
      <point x="-386" y="-444"/>
      <point x="-387" y="-406"/>
      <point x="-382" y="-376" type="qcurve" smooth="yes"/>
      <point x="-353" y="-214" type="line" smooth="yes"/>
      <point x="-348" y="-184"/>
      <point x="-334" y="-148"/>
      <point x="-308" y="-128"/>
      <point x="-266" y="-121"/>
      <point x="-233" y="-121" type="qcurve" smooth="yes"/>
      <point x="-49" y="-121" type="line" smooth="yes"/>
      <point x="-16" y="-121"/>
      <point x="23" y="-128"/>
      <point x="42" y="-148"/>
      <point x="44" y="-184"/>
      <point x="39" y="-214" type="qcurve" smooth="yes"/>
      <point x="10" y="-376" type="line" smooth="yes"/>
      <point x="5" y="-407"/>
      <point x="-10" y="-442"/>
      <point x="-22" y="-454" type="qcurve" smooth="yes"/>
      <point x="-273" y="-704" type="line"/>
    </contour>
  </outline>
</glyph>
<glyph name="uni0327" format="2">
  <unicode hex="0327"/>
  <anchor x="-26" y="-150" name="_bottom"/>
  <outline>
    <contour>
      <point x="-63" y="0" type="line"/>
      <point x="-119" y="-104" type="line"/>
      <point x="-110" y="-101"/>
      <point x="-98" y="-99"/>
      <point x="-90" y="-99" type="qcurve" smooth="yes"/>
      <point x="-76" y="-99"/>
      <point x="-56" y="-117"/>
      <point x="-47" y="-154"/>
      <point x="-49" y="-209"/>
      <point x="-55" y="-245" type="qcurve" smooth="yes"/>
      <point x="-61" y="-282"/>
      <point x="-80" y="-340"/>
      <point x="-103" y="-381"/>
      <point x="-130" y="-403"/>
      <point x="-145" y="-403" type="qcurve" smooth="yes"/>
      <point x="-160" y="-403"/>
      <point x="-187" y="-383"/>
      <point x="-197" y="-366" type="qcurve"/>
      <point x="-227" y="-387" type="line"/>
      <point x="-215" y="-402"/>
      <point x="-191" y="-421"/>
      <point x="-162" y="-433"/>
      <point x="-125" y="-438"/>
      <point x="-100" y="-438" type="qcurve" smooth="yes"/>
      <point x="-58" y="-438"/>
      <point x="26" y="-417"/>
      <point x="95" y="-375"/>
      <point x="144" y="-310"/>
      <point x="152" y="-265" type="qcurve" smooth="yes"/>
      <point x="159" y="-225"/>
      <point x="147" y="-158"/>
      <point x="109" y="-110"/>
      <point x="44" y="-81"/>
      <point x="-3" y="-78" type="qcurve"/>
      <point x="39" y="0" type="line"/>
    </contour>
  </outline>
</glyph>
<glyph name="uni0328" format="2">
  <unicode hex="0328"/>
  <anchor x="-146" y="-150" name="_bottom"/>
  <anchor x="-221" y="0" name="_ogonek"/>
  <outline>
    <contour>
      <point x="-221" y="0" type="line"/>
      <point x="-229" y="-10"/>
      <point x="-240" y="-28"/>
      <point x="-249" y="-46"/>
      <point x="-255" y="-63"/>
      <point x="-256" y="-71" type="qcurve" smooth="yes"/>
      <point x="-261" y="-98"/>
      <point x="-241" y="-141"/>
      <point x="-195" y="-173"/>
      <point x="-124" y="-190"/>
      <point x="-78" y="-190" type="qcurve" smooth="yes"/>
      <point x="-55" y="-190"/>
      <point x="-5" y="-186"/>
      <point x="44" y="-178"/>
      <point x="88" y="-167"/>
      <point x="104" y="-160" type="qcurve"/>
      <point x="11" y="-383" type="line"/>
      <point x="-32" y="-404"/>
      <point x="-118" y="-425"/>
      <point x="-163" y="-425" type="qcurve" smooth="yes"/>
      <point x="-218" y="-425"/>
      <point x="-315" y="-396"/>
      <point x="-385" y="-347"/>
      <point x="-421" y="-283"/>
      <point x="-415" y="-249" type="qcurve"/>
      <point x="-397" y="-221"/>
      <point x="-357" y="-157"/>
      <point x="-316" y="-92"/>
      <point x="-276" y="-28"/>
      <point x="-258" y="0" type="qcurve"/>
    </contour>
  </outline>
</glyph>
<glyph name="uni0402" format="2">
  <advance width="1578"/>
  <unicode hex="0402"/>
  <outline>
    <contour>
      <point x="169" y="0" type="line"/>
      <point x="741" y="0" type="line"/>
      <point x="891" y="858" type="line"/>
      <point x="933" y="858" type="line" smooth="yes"/>
      <point x="953" y="858"/>
      <point x="980" y="849"/>
      <point x="996" y="834"/>
      <point x="1001" y="812"/>
      <point x="998" y="798" type="qcurve" smooth="yes"/>
      <point x="871" y="66" type="line" smooth="yes"/>
      <point x="870" y="59"/>
      <point x="863" y="48"/>
      <point x="854" y="40"/>
      <point x="842" y="36"/>
      <point x="835" y="36" type="qcurve" smooth="yes"/>
      <point x="797" y="36" type="line"/>
      <point x="791" y="0" type="line"/>
      <point x="1017" y="0" type="line" smooth="yes"/>
      <point x="1112" y="0"/>
      <point x="1270" y="29"/>
      <point x="1391" y="104"/>
      <point x="1472" y="234"/>
      <point x="1489" y="334" type="qcurve" smooth="yes"/>
      <point x="1529" y="560" type="line" smooth="yes"/>
      <point x="1547" y="661"/>
      <point x="1511" y="790"/>
      <point x="1416" y="865"/>
      <point x="1268" y="894"/>
      <point x="1173" y="894" type="qcurve" smooth="yes"/>
      <point x="897" y="894" type="line"/>
      <point x="979" y="1364" type="line"/>
      <point x="1255" y="1364" type="line"/>
      <point x="1261" y="1400" type="line"/>
      <point x="137" y="1400" type="line"/>
      <point x="131" y="1364" type="line"/>
      <point x="407" y="1364" type="line"/>
    </contour>
  </outline>
  <guideline x="407" y="1364" angle="260.112" color="1,0,0,1"/>
</glyph>
<glyph name="uni0404" format="2">
  <advance width="1304.62"/>
  <unicode hex="0404"/>
  <anchor x="843.87" y="1550" name="top"/>
  <outline>
    <contour>
      <point x="361" y="-10" type="line"/>
      <point x="747" y="-10" type="line" smooth="yes"/>
      <point x="846" y="-10"/>
      <point x="1005" y="21"/>
      <point x="1125" y="99"/>
      <point x="1203" y="233"/>
      <point x="1222" y="336" type="qcurve" smooth="yes"/>
      <point x="1241" y="446" type="line"/>
      <point x="683" y="526" type="line"/>
      <point x="596" y="26" type="line"/>
      <point x="596" y="26"/>
      <point x="596" y="26"/>
      <point x="596" y="26"/>
      <point x="596" y="26"/>
      <point x="596" y="26" type="qcurve"/>
      <point x="528" y="26" type="line"/>
      <point x="528" y="26"/>
      <point x="528" y="26"/>
      <point x="528" y="26"/>
      <point x="528" y="26"/>
      <point x="528" y="26" type="qcurve"/>
      <point x="644" y="696" type="line"/>
      <point x="911" y="696" type="line"/>
      <point x="918" y="736" type="line"/>
      <point x="651" y="736" type="line"/>
      <point x="763" y="1374" type="line"/>
      <point x="763" y="1374"/>
      <point x="763" y="1374"/>
      <point x="763" y="1374"/>
      <point x="763" y="1374"/>
      <point x="763" y="1374" type="qcurve"/>
      <point x="825" y="1374" type="line"/>
      <point x="825" y="1374"/>
      <point x="825" y="1374"/>
      <point x="825" y="1374"/>
      <point x="825" y="1374"/>
      <point x="825" y="1374" type="qcurve"/>
      <point x="742" y="901" type="line"/>
      <point x="1328" y="981" type="line"/>
      <point x="1345" y="1076" type="line" smooth="yes"/>
      <point x="1362" y="1177"/>
      <point x="1327" y="1306"/>
      <point x="1231" y="1381"/>
      <point x="1083" y="1410"/>
      <point x="989" y="1410" type="qcurve" smooth="yes"/>
      <point x="609" y="1410" type="line" smooth="yes"/>
      <point x="514" y="1410"/>
      <point x="357" y="1381"/>
      <point x="237" y="1306"/>
      <point x="156" y="1177"/>
      <point x="139" y="1076" type="qcurve" smooth="yes"/>
      <point x="10" y="336" type="line" smooth="yes"/>
      <point x="-8" y="233"/>
      <point x="23" y="99"/>
      <point x="114" y="21"/>
      <point x="262" y="-10"/>
      <point x="361" y="-10" type="qcurve"/>
    </contour>
  </outline>
  <guideline angle="260.088" color="1,0,0,1" x="759.87" y="0"/>
</glyph>
<glyph name="uni0409" format="2">
  <advance width="2164"/>
  <unicode hex="0409"/>
  <outline>
    <contour>
      <point x="-130" y="0" type="line"/>
      <point x="-88" y="0" type="line"/>
      <point x="734" y="1364" type="line"/>
      <point x="893" y="1364" type="line"/>
      <point x="655" y="0" type="line"/>
      <point x="1608" y="0" type="line" smooth="yes"/>
      <point x="1701" y="0"/>
      <point x="1858" y="29"/>
      <point x="1978" y="104"/>
      <point x="2058" y="234"/>
      <point x="2075" y="334" type="qcurve" smooth="yes"/>
      <point x="2094" y="444" type="line" smooth="yes"/>
      <point x="2112" y="545"/>
      <point x="2077" y="674"/>
      <point x="1985" y="749"/>
      <point x="1841" y="778"/>
      <point x="1749" y="778" type="qcurve" smooth="yes"/>
      <point x="1363" y="778" type="line"/>
      <point x="1471" y="1400" type="line"/>
      <point x="711" y="1400" type="line"/>
    </contour>
    <contour>
      <point x="1233" y="36" type="line"/>
      <point x="1357" y="742" type="line"/>
      <point x="1510" y="742" type="line" smooth="yes"/>
      <point x="1527" y="742"/>
      <point x="1550" y="733"/>
      <point x="1563" y="718"/>
      <point x="1566" y="696"/>
      <point x="1564" y="682" type="qcurve" smooth="yes"/>
      <point x="1462" y="96" type="line"/>
      <point x="1459" y="83"/>
      <point x="1448" y="60"/>
      <point x="1429" y="45"/>
      <point x="1403" y="36"/>
      <point x="1386" y="36" type="qcurve" smooth="yes"/>
    </contour>
  </outline>
</glyph>
<glyph name="uni040A" format="2">
  <advance width="2031.11"/>
  <unicode hex="040A"/>
  <outline>
    <contour>
      <point x="-32" y="0" type="line"/>
      <point x="540" y="0" type="line"/>
      <point x="670" y="742" type="line"/>
      <point x="780" y="742" type="line"/>
      <point x="650" y="0" type="line"/>
      <point x="1475" y="0" type="line" smooth="yes"/>
      <point x="1568" y="0"/>
      <point x="1725" y="29"/>
      <point x="1845" y="104"/>
      <point x="1925" y="234"/>
      <point x="1942" y="334" type="qcurve" smooth="yes"/>
      <point x="1961" y="444" type="line" smooth="yes"/>
      <point x="1979" y="545"/>
      <point x="1944" y="674"/>
      <point x="1852" y="749"/>
      <point x="1708" y="778"/>
      <point x="1616" y="778" type="qcurve" smooth="yes"/>
      <point x="1358" y="778" type="line"/>
      <point x="1466" y="1400" type="line"/>
      <point x="894" y="1400" type="line"/>
      <point x="786" y="778" type="line"/>
      <point x="676" y="778" type="line"/>
      <point x="784" y="1400" type="line"/>
      <point x="212" y="1400" type="line"/>
    </contour>
    <contour>
      <point x="1228" y="36" type="line"/>
      <point x="1352" y="742" type="line"/>
      <point x="1377" y="742" type="line" smooth="yes"/>
      <point x="1394" y="742"/>
      <point x="1417" y="733"/>
      <point x="1430" y="718"/>
      <point x="1433" y="696"/>
      <point x="1431" y="682" type="qcurve"/>
      <point x="1329" y="96" type="line"/>
      <point x="1326" y="83"/>
      <point x="1315" y="60"/>
      <point x="1296" y="45"/>
      <point x="1270" y="36"/>
      <point x="1253" y="36" type="qcurve" smooth="yes"/>
    </contour>
  </outline>
</glyph>
<glyph name="uni040B" format="2">
  <advance width="1579"/>
  <unicode hex="040B"/>
  <outline>
    <contour>
      <point x="169" y="0" type="line"/>
      <point x="741" y="0" type="line"/>
      <point x="891" y="858" type="line"/>
      <point x="933" y="858" type="line" smooth="yes"/>
      <point x="952" y="858"/>
      <point x="980" y="849"/>
      <point x="995" y="834"/>
      <point x="1000" y="812"/>
      <point x="998" y="798" type="qcurve"/>
      <point x="859" y="0" type="line"/>
      <point x="1431" y="0" type="line"/>
      <point x="1529" y="560" type="line" smooth="yes"/>
      <point x="1546" y="661"/>
      <point x="1511" y="790"/>
      <point x="1415" y="865"/>
      <point x="1267" y="894"/>
      <point x="1173" y="894" type="qcurve" smooth="yes"/>
      <point x="897" y="894" type="line"/>
      <point x="979" y="1364" type="line"/>
      <point x="1255" y="1364" type="line"/>
      <point x="1261" y="1400" type="line"/>
      <point x="137" y="1400" type="line"/>
      <point x="131" y="1364" type="line"/>
      <point x="407" y="1364" type="line"/>
    </contour>
  </outline>
</glyph>
<glyph name="uni040F" format="2">
  <advance width="1410"/>
  <unicode hex="040F"/>
  <outline>
    <contour>
      <point x="-32" y="0" type="line"/>
      <point x="357" y="0" type="line"/>
      <point x="399" y="-300" type="line"/>
      <point x="761" y="-300" type="line"/>
      <point x="813" y="0" type="line"/>
      <point x="1202" y="0" type="line"/>
      <point x="1446" y="1400" type="line"/>
      <point x="874" y="1400" type="line"/>
      <point x="636" y="36" type="line"/>
      <point x="546" y="36" type="line"/>
      <point x="784" y="1400" type="line"/>
      <point x="212" y="1400" type="line"/>
    </contour>
  </outline>
  <guideline x="588.5" y="0" angle="260.141" color="1,0,0,1"/>
</glyph>
<glyph name="uni0411" format="2">
  <advance width="1386"/>
  <unicode hex="0411"/>
  <outline>
    <contour>
      <point x="-32" y="0" type="line"/>
      <point x="825" y="0" type="line" smooth="yes"/>
      <point x="920" y="0"/>
      <point x="1076" y="22"/>
      <point x="1194" y="79"/>
      <point x="1270" y="177"/>
      <point x="1283" y="253" type="qcurve" smooth="yes"/>
      <point x="1337" y="560" type="line" smooth="yes"/>
      <point x="1355" y="661"/>
      <point x="1319" y="790"/>
      <point x="1224" y="865"/>
      <point x="1076" y="894"/>
      <point x="981" y="894" type="qcurve" smooth="yes"/>
      <point x="696" y="894" type="line"/>
      <point x="778" y="1364" type="line"/>
      <point x="1401" y="1364" type="line"/>
      <point x="1407" y="1400" type="line"/>
      <point x="212" y="1400" type="line"/>
    </contour>
    <contour>
      <point x="546" y="36" type="line"/>
      <point x="690" y="858" type="line"/>
      <point x="741" y="858" type="line" smooth="yes"/>
      <point x="780" y="858"/>
      <point x="811" y="825"/>
      <point x="806" y="798" type="qcurve" smooth="yes"/>
      <point x="682" y="85" type="line" smooth="yes"/>
      <point x="680" y="74"/>
      <point x="668" y="56"/>
      <point x="647" y="43"/>
      <point x="617" y="36"/>
      <point x="597" y="36" type="qcurve" smooth="yes"/>
    </contour>
  </outline>
</glyph>
